<svg xmlns="http://www.w3.org/2000/svg" viewBox="0 0 100 100" preserveAspectRatio="xMidYMid" width="217" height="217" style="shape-rendering: auto; display: block; background: transparent;" xmlns:xlink="http://www.w3.org/1999/xlink"><g><g transform="rotate(0 50 50)">
  <rect fill="#ffffff" height="7" width="24" ry="3.5" rx="12" y="14.5" x="38">
    <animate repeatCount="indefinite" begin="-2.6052631578947367s" dur="2.6315789473684212s" keyTimes="0;1" values="1;0" attributeName="opacity"></animate>
  </rect>
</g><g transform="rotate(3.6 50 50)">
  <rect fill="#ffffff" height="7" width="24" ry="3.5" rx="12" y="14.5" x="38">
    <animate repeatCount="indefinite" begin="-2.5789473684210527s" dur="2.6315789473684212s" keyTimes="0;1" values="1;0" attributeName="opacity"></animate>
  </rect>
</g><g transform="rotate(7.2 50 50)">
  <rect fill="#ffffff" height="7" width="24" ry="3.5" rx="12" y="14.5" x="38">
    <animate repeatCount="indefinite" begin="-2.5526315789473686s" dur="2.6315789473684212s" keyTimes="0;1" values="1;0" attributeName="opacity"></animate>
  </rect>
</g><g transform="rotate(10.8 50 50)">
  <rect fill="#ffffff" height="7" width="24" ry="3.5" rx="12" y="14.5" x="38">
    <animate repeatCount="indefinite" begin="-2.526315789473684s" dur="2.6315789473684212s" keyTimes="0;1" values="1;0" attributeName="opacity"></animate>
  </rect>
</g><g transform="rotate(14.4 50 50)">
  <rect fill="#ffffff" height="7" width="24" ry="3.5" rx="12" y="14.5" x="38">
    <animate repeatCount="indefinite" begin="-2.5s" dur="2.6315789473684212s" keyTimes="0;1" values="1;0" attributeName="opacity"></animate>
  </rect>
</g><g transform="rotate(18 50 50)">
  <rect fill="#ffffff" height="7" width="24" ry="3.5" rx="12" y="14.5" x="38">
    <animate repeatCount="indefinite" begin="-2.473684210526316s" dur="2.6315789473684212s" keyTimes="0;1" values="1;0" attributeName="opacity"></animate>
  </rect>
</g><g transform="rotate(21.6 50 50)">
  <rect fill="#ffffff" height="7" width="24" ry="3.5" rx="12" y="14.5" x="38">
    <animate repeatCount="indefinite" begin="-2.4473684210526314s" dur="2.6315789473684212s" keyTimes="0;1" values="1;0" attributeName="opacity"></animate>
  </rect>
</g><g transform="rotate(25.2 50 50)">
  <rect fill="#ffffff" height="7" width="24" ry="3.5" rx="12" y="14.5" x="38">
    <animate repeatCount="indefinite" begin="-2.4210526315789473s" dur="2.6315789473684212s" keyTimes="0;1" values="1;0" attributeName="opacity"></animate>
  </rect>
</g><g transform="rotate(28.8 50 50)">
  <rect fill="#ffffff" height="7" width="24" ry="3.5" rx="12" y="14.5" x="38">
    <animate repeatCount="indefinite" begin="-2.3947368421052633s" dur="2.6315789473684212s" keyTimes="0;1" values="1;0" attributeName="opacity"></animate>
  </rect>
</g><g transform="rotate(32.4 50 50)">
  <rect fill="#ffffff" height="7" width="24" ry="3.5" rx="12" y="14.5" x="38">
    <animate repeatCount="indefinite" begin="-2.3684210526315788s" dur="2.6315789473684212s" keyTimes="0;1" values="1;0" attributeName="opacity"></animate>
  </rect>
</g><g transform="rotate(36 50 50)">
  <rect fill="#ffffff" height="7" width="24" ry="3.5" rx="12" y="14.5" x="38">
    <animate repeatCount="indefinite" begin="-2.3421052631578947s" dur="2.6315789473684212s" keyTimes="0;1" values="1;0" attributeName="opacity"></animate>
  </rect>
</g><g transform="rotate(39.6 50 50)">
  <rect fill="#ffffff" height="7" width="24" ry="3.5" rx="12" y="14.5" x="38">
    <animate repeatCount="indefinite" begin="-2.3157894736842106s" dur="2.6315789473684212s" keyTimes="0;1" values="1;0" attributeName="opacity"></animate>
  </rect>
</g><g transform="rotate(43.2 50 50)">
  <rect fill="#ffffff" height="7" width="24" ry="3.5" rx="12" y="14.5" x="38">
    <animate repeatCount="indefinite" begin="-2.289473684210526s" dur="2.6315789473684212s" keyTimes="0;1" values="1;0" attributeName="opacity"></animate>
  </rect>
</g><g transform="rotate(46.8 50 50)">
  <rect fill="#ffffff" height="7" width="24" ry="3.5" rx="12" y="14.5" x="38">
    <animate repeatCount="indefinite" begin="-2.263157894736842s" dur="2.6315789473684212s" keyTimes="0;1" values="1;0" attributeName="opacity"></animate>
  </rect>
</g><g transform="rotate(50.4 50 50)">
  <rect fill="#ffffff" height="7" width="24" ry="3.5" rx="12" y="14.5" x="38">
    <animate repeatCount="indefinite" begin="-2.236842105263158s" dur="2.6315789473684212s" keyTimes="0;1" values="1;0" attributeName="opacity"></animate>
  </rect>
</g><g transform="rotate(54 50 50)">
  <rect fill="#ffffff" height="7" width="24" ry="3.5" rx="12" y="14.5" x="38">
    <animate repeatCount="indefinite" begin="-2.210526315789474s" dur="2.6315789473684212s" keyTimes="0;1" values="1;0" attributeName="opacity"></animate>
  </rect>
</g><g transform="rotate(57.6 50 50)">
  <rect fill="#ffffff" height="7" width="24" ry="3.5" rx="12" y="14.5" x="38">
    <animate repeatCount="indefinite" begin="-2.1842105263157894s" dur="2.6315789473684212s" keyTimes="0;1" values="1;0" attributeName="opacity"></animate>
  </rect>
</g><g transform="rotate(61.2 50 50)">
  <rect fill="#ffffff" height="7" width="24" ry="3.5" rx="12" y="14.5" x="38">
    <animate repeatCount="indefinite" begin="-2.1578947368421053s" dur="2.6315789473684212s" keyTimes="0;1" values="1;0" attributeName="opacity"></animate>
  </rect>
</g><g transform="rotate(64.8 50 50)">
  <rect fill="#ffffff" height="7" width="24" ry="3.5" rx="12" y="14.5" x="38">
    <animate repeatCount="indefinite" begin="-2.1315789473684212s" dur="2.6315789473684212s" keyTimes="0;1" values="1;0" attributeName="opacity"></animate>
  </rect>
</g><g transform="rotate(68.4 50 50)">
  <rect fill="#ffffff" height="7" width="24" ry="3.5" rx="12" y="14.5" x="38">
    <animate repeatCount="indefinite" begin="-2.1052631578947367s" dur="2.6315789473684212s" keyTimes="0;1" values="1;0" attributeName="opacity"></animate>
  </rect>
</g><g transform="rotate(72 50 50)">
  <rect fill="#ffffff" height="7" width="24" ry="3.5" rx="12" y="14.5" x="38">
    <animate repeatCount="indefinite" begin="-2.0789473684210527s" dur="2.6315789473684212s" keyTimes="0;1" values="1;0" attributeName="opacity"></animate>
  </rect>
</g><g transform="rotate(75.6 50 50)">
  <rect fill="#ffffff" height="7" width="24" ry="3.5" rx="12" y="14.5" x="38">
    <animate repeatCount="indefinite" begin="-2.0526315789473686s" dur="2.6315789473684212s" keyTimes="0;1" values="1;0" attributeName="opacity"></animate>
  </rect>
</g><g transform="rotate(79.2 50 50)">
  <rect fill="#ffffff" height="7" width="24" ry="3.5" rx="12" y="14.5" x="38">
    <animate repeatCount="indefinite" begin="-2.026315789473684s" dur="2.6315789473684212s" keyTimes="0;1" values="1;0" attributeName="opacity"></animate>
  </rect>
</g><g transform="rotate(82.8 50 50)">
  <rect fill="#ffffff" height="7" width="24" ry="3.5" rx="12" y="14.5" x="38">
    <animate repeatCount="indefinite" begin="-2s" dur="2.6315789473684212s" keyTimes="0;1" values="1;0" attributeName="opacity"></animate>
  </rect>
</g><g transform="rotate(86.4 50 50)">
  <rect fill="#ffffff" height="7" width="24" ry="3.5" rx="12" y="14.5" x="38">
    <animate repeatCount="indefinite" begin="-1.9736842105263157s" dur="2.6315789473684212s" keyTimes="0;1" values="1;0" attributeName="opacity"></animate>
  </rect>
</g><g transform="rotate(90 50 50)">
  <rect fill="#ffffff" height="7" width="24" ry="3.5" rx="12" y="14.5" x="38">
    <animate repeatCount="indefinite" begin="-1.9473684210526316s" dur="2.6315789473684212s" keyTimes="0;1" values="1;0" attributeName="opacity"></animate>
  </rect>
</g><g transform="rotate(93.6 50 50)">
  <rect fill="#ffffff" height="7" width="24" ry="3.5" rx="12" y="14.5" x="38">
    <animate repeatCount="indefinite" begin="-1.9210526315789473s" dur="2.6315789473684212s" keyTimes="0;1" values="1;0" attributeName="opacity"></animate>
  </rect>
</g><g transform="rotate(97.2 50 50)">
  <rect fill="#ffffff" height="7" width="24" ry="3.5" rx="12" y="14.5" x="38">
    <animate repeatCount="indefinite" begin="-1.894736842105263s" dur="2.6315789473684212s" keyTimes="0;1" values="1;0" attributeName="opacity"></animate>
  </rect>
</g><g transform="rotate(100.8 50 50)">
  <rect fill="#ffffff" height="7" width="24" ry="3.5" rx="12" y="14.5" x="38">
    <animate repeatCount="indefinite" begin="-1.868421052631579s" dur="2.6315789473684212s" keyTimes="0;1" values="1;0" attributeName="opacity"></animate>
  </rect>
</g><g transform="rotate(104.4 50 50)">
  <rect fill="#ffffff" height="7" width="24" ry="3.5" rx="12" y="14.5" x="38">
    <animate repeatCount="indefinite" begin="-1.8421052631578947s" dur="2.6315789473684212s" keyTimes="0;1" values="1;0" attributeName="opacity"></animate>
  </rect>
</g><g transform="rotate(108 50 50)">
  <rect fill="#ffffff" height="7" width="24" ry="3.5" rx="12" y="14.5" x="38">
    <animate repeatCount="indefinite" begin="-1.8157894736842106s" dur="2.6315789473684212s" keyTimes="0;1" values="1;0" attributeName="opacity"></animate>
  </rect>
</g><g transform="rotate(111.6 50 50)">
  <rect fill="#ffffff" height="7" width="24" ry="3.5" rx="12" y="14.5" x="38">
    <animate repeatCount="indefinite" begin="-1.7894736842105263s" dur="2.6315789473684212s" keyTimes="0;1" values="1;0" attributeName="opacity"></animate>
  </rect>
</g><g transform="rotate(115.2 50 50)">
  <rect fill="#ffffff" height="7" width="24" ry="3.5" rx="12" y="14.5" x="38">
    <animate repeatCount="indefinite" begin="-1.763157894736842s" dur="2.6315789473684212s" keyTimes="0;1" values="1;0" attributeName="opacity"></animate>
  </rect>
</g><g transform="rotate(118.8 50 50)">
  <rect fill="#ffffff" height="7" width="24" ry="3.5" rx="12" y="14.5" x="38">
    <animate repeatCount="indefinite" begin="-1.736842105263158s" dur="2.6315789473684212s" keyTimes="0;1" values="1;0" attributeName="opacity"></animate>
  </rect>
</g><g transform="rotate(122.4 50 50)">
  <rect fill="#ffffff" height="7" width="24" ry="3.5" rx="12" y="14.5" x="38">
    <animate repeatCount="indefinite" begin="-1.7105263157894737s" dur="2.6315789473684212s" keyTimes="0;1" values="1;0" attributeName="opacity"></animate>
  </rect>
</g><g transform="rotate(126 50 50)">
  <rect fill="#ffffff" height="7" width="24" ry="3.5" rx="12" y="14.5" x="38">
    <animate repeatCount="indefinite" begin="-1.6842105263157894s" dur="2.6315789473684212s" keyTimes="0;1" values="1;0" attributeName="opacity"></animate>
  </rect>
</g><g transform="rotate(129.6 50 50)">
  <rect fill="#ffffff" height="7" width="24" ry="3.5" rx="12" y="14.5" x="38">
    <animate repeatCount="indefinite" begin="-1.6578947368421053s" dur="2.6315789473684212s" keyTimes="0;1" values="1;0" attributeName="opacity"></animate>
  </rect>
</g><g transform="rotate(133.2 50 50)">
  <rect fill="#ffffff" height="7" width="24" ry="3.5" rx="12" y="14.5" x="38">
    <animate repeatCount="indefinite" begin="-1.631578947368421s" dur="2.6315789473684212s" keyTimes="0;1" values="1;0" attributeName="opacity"></animate>
  </rect>
</g><g transform="rotate(136.8 50 50)">
  <rect fill="#ffffff" height="7" width="24" ry="3.5" rx="12" y="14.5" x="38">
    <animate repeatCount="indefinite" begin="-1.605263157894737s" dur="2.6315789473684212s" keyTimes="0;1" values="1;0" attributeName="opacity"></animate>
  </rect>
</g><g transform="rotate(140.4 50 50)">
  <rect fill="#ffffff" height="7" width="24" ry="3.5" rx="12" y="14.5" x="38">
    <animate repeatCount="indefinite" begin="-1.5789473684210527s" dur="2.6315789473684212s" keyTimes="0;1" values="1;0" attributeName="opacity"></animate>
  </rect>
</g><g transform="rotate(144 50 50)">
  <rect fill="#ffffff" height="7" width="24" ry="3.5" rx="12" y="14.5" x="38">
    <animate repeatCount="indefinite" begin="-1.5526315789473684s" dur="2.6315789473684212s" keyTimes="0;1" values="1;0" attributeName="opacity"></animate>
  </rect>
</g><g transform="rotate(147.6 50 50)">
  <rect fill="#ffffff" height="7" width="24" ry="3.5" rx="12" y="14.5" x="38">
    <animate repeatCount="indefinite" begin="-1.5263157894736843s" dur="2.6315789473684212s" keyTimes="0;1" values="1;0" attributeName="opacity"></animate>
  </rect>
</g><g transform="rotate(151.2 50 50)">
  <rect fill="#ffffff" height="7" width="24" ry="3.5" rx="12" y="14.5" x="38">
    <animate repeatCount="indefinite" begin="-1.5s" dur="2.6315789473684212s" keyTimes="0;1" values="1;0" attributeName="opacity"></animate>
  </rect>
</g><g transform="rotate(154.8 50 50)">
  <rect fill="#ffffff" height="7" width="24" ry="3.5" rx="12" y="14.5" x="38">
    <animate repeatCount="indefinite" begin="-1.4736842105263157s" dur="2.6315789473684212s" keyTimes="0;1" values="1;0" attributeName="opacity"></animate>
  </rect>
</g><g transform="rotate(158.4 50 50)">
  <rect fill="#ffffff" height="7" width="24" ry="3.5" rx="12" y="14.5" x="38">
    <animate repeatCount="indefinite" begin="-1.4473684210526316s" dur="2.6315789473684212s" keyTimes="0;1" values="1;0" attributeName="opacity"></animate>
  </rect>
</g><g transform="rotate(162 50 50)">
  <rect fill="#ffffff" height="7" width="24" ry="3.5" rx="12" y="14.5" x="38">
    <animate repeatCount="indefinite" begin="-1.4210526315789473s" dur="2.6315789473684212s" keyTimes="0;1" values="1;0" attributeName="opacity"></animate>
  </rect>
</g><g transform="rotate(165.6 50 50)">
  <rect fill="#ffffff" height="7" width="24" ry="3.5" rx="12" y="14.5" x="38">
    <animate repeatCount="indefinite" begin="-1.394736842105263s" dur="2.6315789473684212s" keyTimes="0;1" values="1;0" attributeName="opacity"></animate>
  </rect>
</g><g transform="rotate(169.2 50 50)">
  <rect fill="#ffffff" height="7" width="24" ry="3.5" rx="12" y="14.5" x="38">
    <animate repeatCount="indefinite" begin="-1.368421052631579s" dur="2.6315789473684212s" keyTimes="0;1" values="1;0" attributeName="opacity"></animate>
  </rect>
</g><g transform="rotate(172.8 50 50)">
  <rect fill="#ffffff" height="7" width="24" ry="3.5" rx="12" y="14.5" x="38">
    <animate repeatCount="indefinite" begin="-1.3421052631578947s" dur="2.6315789473684212s" keyTimes="0;1" values="1;0" attributeName="opacity"></animate>
  </rect>
</g><g transform="rotate(176.4 50 50)">
  <rect fill="#ffffff" height="7" width="24" ry="3.5" rx="12" y="14.5" x="38">
    <animate repeatCount="indefinite" begin="-1.3157894736842106s" dur="2.6315789473684212s" keyTimes="0;1" values="1;0" attributeName="opacity"></animate>
  </rect>
</g><g transform="rotate(180 50 50)">
  <rect fill="#ffffff" height="7" width="24" ry="3.5" rx="12" y="14.5" x="38">
    <animate repeatCount="indefinite" begin="-1.2894736842105263s" dur="2.6315789473684212s" keyTimes="0;1" values="1;0" attributeName="opacity"></animate>
  </rect>
</g><g transform="rotate(183.6 50 50)">
  <rect fill="#ffffff" height="7" width="24" ry="3.5" rx="12" y="14.5" x="38">
    <animate repeatCount="indefinite" begin="-1.263157894736842s" dur="2.6315789473684212s" keyTimes="0;1" values="1;0" attributeName="opacity"></animate>
  </rect>
</g><g transform="rotate(187.2 50 50)">
  <rect fill="#ffffff" height="7" width="24" ry="3.5" rx="12" y="14.5" x="38">
    <animate repeatCount="indefinite" begin="-1.236842105263158s" dur="2.6315789473684212s" keyTimes="0;1" values="1;0" attributeName="opacity"></animate>
  </rect>
</g><g transform="rotate(190.8 50 50)">
  <rect fill="#ffffff" height="7" width="24" ry="3.5" rx="12" y="14.5" x="38">
    <animate repeatCount="indefinite" begin="-1.2105263157894737s" dur="2.6315789473684212s" keyTimes="0;1" values="1;0" attributeName="opacity"></animate>
  </rect>
</g><g transform="rotate(194.4 50 50)">
  <rect fill="#ffffff" height="7" width="24" ry="3.5" rx="12" y="14.5" x="38">
    <animate repeatCount="indefinite" begin="-1.1842105263157894s" dur="2.6315789473684212s" keyTimes="0;1" values="1;0" attributeName="opacity"></animate>
  </rect>
</g><g transform="rotate(198 50 50)">
  <rect fill="#ffffff" height="7" width="24" ry="3.5" rx="12" y="14.5" x="38">
    <animate repeatCount="indefinite" begin="-1.1578947368421053s" dur="2.6315789473684212s" keyTimes="0;1" values="1;0" attributeName="opacity"></animate>
  </rect>
</g><g transform="rotate(201.6 50 50)">
  <rect fill="#ffffff" height="7" width="24" ry="3.5" rx="12" y="14.5" x="38">
    <animate repeatCount="indefinite" begin="-1.131578947368421s" dur="2.6315789473684212s" keyTimes="0;1" values="1;0" attributeName="opacity"></animate>
  </rect>
</g><g transform="rotate(205.2 50 50)">
  <rect fill="#ffffff" height="7" width="24" ry="3.5" rx="12" y="14.5" x="38">
    <animate repeatCount="indefinite" begin="-1.105263157894737s" dur="2.6315789473684212s" keyTimes="0;1" values="1;0" attributeName="opacity"></animate>
  </rect>
</g><g transform="rotate(208.8 50 50)">
  <rect fill="#ffffff" height="7" width="24" ry="3.5" rx="12" y="14.5" x="38">
    <animate repeatCount="indefinite" begin="-1.0789473684210527s" dur="2.6315789473684212s" keyTimes="0;1" values="1;0" attributeName="opacity"></animate>
  </rect>
</g><g transform="rotate(212.4 50 50)">
  <rect fill="#ffffff" height="7" width="24" ry="3.5" rx="12" y="14.5" x="38">
    <animate repeatCount="indefinite" begin="-1.0526315789473684s" dur="2.6315789473684212s" keyTimes="0;1" values="1;0" attributeName="opacity"></animate>
  </rect>
</g><g transform="rotate(216 50 50)">
  <rect fill="#ffffff" height="7" width="24" ry="3.5" rx="12" y="14.5" x="38">
    <animate repeatCount="indefinite" begin="-1.0263157894736843s" dur="2.6315789473684212s" keyTimes="0;1" values="1;0" attributeName="opacity"></animate>
  </rect>
</g><g transform="rotate(219.6 50 50)">
  <rect fill="#ffffff" height="7" width="24" ry="3.5" rx="12" y="14.5" x="38">
    <animate repeatCount="indefinite" begin="-1s" dur="2.6315789473684212s" keyTimes="0;1" values="1;0" attributeName="opacity"></animate>
  </rect>
</g><g transform="rotate(223.2 50 50)">
  <rect fill="#ffffff" height="7" width="24" ry="3.5" rx="12" y="14.5" x="38">
    <animate repeatCount="indefinite" begin="-0.9736842105263158s" dur="2.6315789473684212s" keyTimes="0;1" values="1;0" attributeName="opacity"></animate>
  </rect>
</g><g transform="rotate(226.8 50 50)">
  <rect fill="#ffffff" height="7" width="24" ry="3.5" rx="12" y="14.5" x="38">
    <animate repeatCount="indefinite" begin="-0.9473684210526315s" dur="2.6315789473684212s" keyTimes="0;1" values="1;0" attributeName="opacity"></animate>
  </rect>
</g><g transform="rotate(230.4 50 50)">
  <rect fill="#ffffff" height="7" width="24" ry="3.5" rx="12" y="14.5" x="38">
    <animate repeatCount="indefinite" begin="-0.9210526315789473s" dur="2.6315789473684212s" keyTimes="0;1" values="1;0" attributeName="opacity"></animate>
  </rect>
</g><g transform="rotate(234 50 50)">
  <rect fill="#ffffff" height="7" width="24" ry="3.5" rx="12" y="14.5" x="38">
    <animate repeatCount="indefinite" begin="-0.8947368421052632s" dur="2.6315789473684212s" keyTimes="0;1" values="1;0" attributeName="opacity"></animate>
  </rect>
</g><g transform="rotate(237.6 50 50)">
  <rect fill="#ffffff" height="7" width="24" ry="3.5" rx="12" y="14.5" x="38">
    <animate repeatCount="indefinite" begin="-0.868421052631579s" dur="2.6315789473684212s" keyTimes="0;1" values="1;0" attributeName="opacity"></animate>
  </rect>
</g><g transform="rotate(241.2 50 50)">
  <rect fill="#ffffff" height="7" width="24" ry="3.5" rx="12" y="14.5" x="38">
    <animate repeatCount="indefinite" begin="-0.8421052631578947s" dur="2.6315789473684212s" keyTimes="0;1" values="1;0" attributeName="opacity"></animate>
  </rect>
</g><g transform="rotate(244.8 50 50)">
  <rect fill="#ffffff" height="7" width="24" ry="3.5" rx="12" y="14.5" x="38">
    <animate repeatCount="indefinite" begin="-0.8157894736842105s" dur="2.6315789473684212s" keyTimes="0;1" values="1;0" attributeName="opacity"></animate>
  </rect>
</g><g transform="rotate(248.4 50 50)">
  <rect fill="#ffffff" height="7" width="24" ry="3.5" rx="12" y="14.5" x="38">
    <animate repeatCount="indefinite" begin="-0.7894736842105263s" dur="2.6315789473684212s" keyTimes="0;1" values="1;0" attributeName="opacity"></animate>
  </rect>
</g><g transform="rotate(252 50 50)">
  <rect fill="#ffffff" height="7" width="24" ry="3.5" rx="12" y="14.5" x="38">
    <animate repeatCount="indefinite" begin="-0.7631578947368421s" dur="2.6315789473684212s" keyTimes="0;1" values="1;0" attributeName="opacity"></animate>
  </rect>
</g><g transform="rotate(255.6 50 50)">
  <rect fill="#ffffff" height="7" width="24" ry="3.5" rx="12" y="14.5" x="38">
    <animate repeatCount="indefinite" begin="-0.7368421052631579s" dur="2.6315789473684212s" keyTimes="0;1" values="1;0" attributeName="opacity"></animate>
  </rect>
</g><g transform="rotate(259.2 50 50)">
  <rect fill="#ffffff" height="7" width="24" ry="3.5" rx="12" y="14.5" x="38">
    <animate repeatCount="indefinite" begin="-0.7105263157894737s" dur="2.6315789473684212s" keyTimes="0;1" values="1;0" attributeName="opacity"></animate>
  </rect>
</g><g transform="rotate(262.8 50 50)">
  <rect fill="#ffffff" height="7" width="24" ry="3.5" rx="12" y="14.5" x="38">
    <animate repeatCount="indefinite" begin="-0.6842105263157895s" dur="2.6315789473684212s" keyTimes="0;1" values="1;0" attributeName="opacity"></animate>
  </rect>
</g><g transform="rotate(266.4 50 50)">
  <rect fill="#ffffff" height="7" width="24" ry="3.5" rx="12" y="14.5" x="38">
    <animate repeatCount="indefinite" begin="-0.6578947368421053s" dur="2.6315789473684212s" keyTimes="0;1" values="1;0" attributeName="opacity"></animate>
  </rect>
</g><g transform="rotate(270 50 50)">
  <rect fill="#ffffff" height="7" width="24" ry="3.5" rx="12" y="14.5" x="38">
    <animate repeatCount="indefinite" begin="-0.631578947368421s" dur="2.6315789473684212s" keyTimes="0;1" values="1;0" attributeName="opacity"></animate>
  </rect>
</g><g transform="rotate(273.6 50 50)">
  <rect fill="#ffffff" height="7" width="24" ry="3.5" rx="12" y="14.5" x="38">
    <animate repeatCount="indefinite" begin="-0.6052631578947368s" dur="2.6315789473684212s" keyTimes="0;1" values="1;0" attributeName="opacity"></animate>
  </rect>
</g><g transform="rotate(277.2 50 50)">
  <rect fill="#ffffff" height="7" width="24" ry="3.5" rx="12" y="14.5" x="38">
    <animate repeatCount="indefinite" begin="-0.5789473684210527s" dur="2.6315789473684212s" keyTimes="0;1" values="1;0" attributeName="opacity"></animate>
  </rect>
</g><g transform="rotate(280.8 50 50)">
  <rect fill="#ffffff" height="7" width="24" ry="3.5" rx="12" y="14.5" x="38">
    <animate repeatCount="indefinite" begin="-0.5526315789473685s" dur="2.6315789473684212s" keyTimes="0;1" values="1;0" attributeName="opacity"></animate>
  </rect>
</g><g transform="rotate(284.4 50 50)">
  <rect fill="#ffffff" height="7" width="24" ry="3.5" rx="12" y="14.5" x="38">
    <animate repeatCount="indefinite" begin="-0.5263157894736842s" dur="2.6315789473684212s" keyTimes="0;1" values="1;0" attributeName="opacity"></animate>
  </rect>
</g><g transform="rotate(288 50 50)">
  <rect fill="#ffffff" height="7" width="24" ry="3.5" rx="12" y="14.5" x="38">
    <animate repeatCount="indefinite" begin="-0.5s" dur="2.6315789473684212s" keyTimes="0;1" values="1;0" attributeName="opacity"></animate>
  </rect>
</g><g transform="rotate(291.6 50 50)">
  <rect fill="#ffffff" height="7" width="24" ry="3.5" rx="12" y="14.5" x="38">
    <animate repeatCount="indefinite" begin="-0.47368421052631576s" dur="2.6315789473684212s" keyTimes="0;1" values="1;0" attributeName="opacity"></animate>
  </rect>
</g><g transform="rotate(295.2 50 50)">
  <rect fill="#ffffff" height="7" width="24" ry="3.5" rx="12" y="14.5" x="38">
    <animate repeatCount="indefinite" begin="-0.4473684210526316s" dur="2.6315789473684212s" keyTimes="0;1" values="1;0" attributeName="opacity"></animate>
  </rect>
</g><g transform="rotate(298.8 50 50)">
  <rect fill="#ffffff" height="7" width="24" ry="3.5" rx="12" y="14.5" x="38">
    <animate repeatCount="indefinite" begin="-0.42105263157894735s" dur="2.6315789473684212s" keyTimes="0;1" values="1;0" attributeName="opacity"></animate>
  </rect>
</g><g transform="rotate(302.4 50 50)">
  <rect fill="#ffffff" height="7" width="24" ry="3.5" rx="12" y="14.5" x="38">
    <animate repeatCount="indefinite" begin="-0.39473684210526316s" dur="2.6315789473684212s" keyTimes="0;1" values="1;0" attributeName="opacity"></animate>
  </rect>
</g><g transform="rotate(306 50 50)">
  <rect fill="#ffffff" height="7" width="24" ry="3.5" rx="12" y="14.5" x="38">
    <animate repeatCount="indefinite" begin="-0.3684210526315789s" dur="2.6315789473684212s" keyTimes="0;1" values="1;0" attributeName="opacity"></animate>
  </rect>
</g><g transform="rotate(309.6 50 50)">
  <rect fill="#ffffff" height="7" width="24" ry="3.5" rx="12" y="14.5" x="38">
    <animate repeatCount="indefinite" begin="-0.34210526315789475s" dur="2.6315789473684212s" keyTimes="0;1" values="1;0" attributeName="opacity"></animate>
  </rect>
</g><g transform="rotate(313.2 50 50)">
  <rect fill="#ffffff" height="7" width="24" ry="3.5" rx="12" y="14.5" x="38">
    <animate repeatCount="indefinite" begin="-0.3157894736842105s" dur="2.6315789473684212s" keyTimes="0;1" values="1;0" attributeName="opacity"></animate>
  </rect>
</g><g transform="rotate(316.8 50 50)">
  <rect fill="#ffffff" height="7" width="24" ry="3.5" rx="12" y="14.5" x="38">
    <animate repeatCount="indefinite" begin="-0.2894736842105263s" dur="2.6315789473684212s" keyTimes="0;1" values="1;0" attributeName="opacity"></animate>
  </rect>
</g><g transform="rotate(320.4 50 50)">
  <rect fill="#ffffff" height="7" width="24" ry="3.5" rx="12" y="14.5" x="38">
    <animate repeatCount="indefinite" begin="-0.2631578947368421s" dur="2.6315789473684212s" keyTimes="0;1" values="1;0" attributeName="opacity"></animate>
  </rect>
</g><g transform="rotate(324 50 50)">
  <rect fill="#ffffff" height="7" width="24" ry="3.5" rx="12" y="14.5" x="38">
    <animate repeatCount="indefinite" begin="-0.23684210526315788s" dur="2.6315789473684212s" keyTimes="0;1" values="1;0" attributeName="opacity"></animate>
  </rect>
</g><g transform="rotate(327.6 50 50)">
  <rect fill="#ffffff" height="7" width="24" ry="3.5" rx="12" y="14.5" x="38">
    <animate repeatCount="indefinite" begin="-0.21052631578947367s" dur="2.6315789473684212s" keyTimes="0;1" values="1;0" attributeName="opacity"></animate>
  </rect>
</g><g transform="rotate(331.2 50 50)">
  <rect fill="#ffffff" height="7" width="24" ry="3.5" rx="12" y="14.5" x="38">
    <animate repeatCount="indefinite" begin="-0.18421052631578946s" dur="2.6315789473684212s" keyTimes="0;1" values="1;0" attributeName="opacity"></animate>
  </rect>
</g><g transform="rotate(334.8 50 50)">
  <rect fill="#ffffff" height="7" width="24" ry="3.5" rx="12" y="14.5" x="38">
    <animate repeatCount="indefinite" begin="-0.15789473684210525s" dur="2.6315789473684212s" keyTimes="0;1" values="1;0" attributeName="opacity"></animate>
  </rect>
</g><g transform="rotate(338.4 50 50)">
  <rect fill="#ffffff" height="7" width="24" ry="3.5" rx="12" y="14.5" x="38">
    <animate repeatCount="indefinite" begin="-0.13157894736842105s" dur="2.6315789473684212s" keyTimes="0;1" values="1;0" attributeName="opacity"></animate>
  </rect>
</g><g transform="rotate(342 50 50)">
  <rect fill="#ffffff" height="7" width="24" ry="3.5" rx="12" y="14.5" x="38">
    <animate repeatCount="indefinite" begin="-0.10526315789473684s" dur="2.6315789473684212s" keyTimes="0;1" values="1;0" attributeName="opacity"></animate>
  </rect>
</g><g transform="rotate(345.6 50 50)">
  <rect fill="#ffffff" height="7" width="24" ry="3.5" rx="12" y="14.5" x="38">
    <animate repeatCount="indefinite" begin="-0.07894736842105263s" dur="2.6315789473684212s" keyTimes="0;1" values="1;0" attributeName="opacity"></animate>
  </rect>
</g><g transform="rotate(349.2 50 50)">
  <rect fill="#ffffff" height="7" width="24" ry="3.5" rx="12" y="14.5" x="38">
    <animate repeatCount="indefinite" begin="-0.05263157894736842s" dur="2.6315789473684212s" keyTimes="0;1" values="1;0" attributeName="opacity"></animate>
  </rect>
</g><g transform="rotate(352.8 50 50)">
  <rect fill="#ffffff" height="7" width="24" ry="3.5" rx="12" y="14.5" x="38">
    <animate repeatCount="indefinite" begin="-0.02631578947368421s" dur="2.6315789473684212s" keyTimes="0;1" values="1;0" attributeName="opacity"></animate>
  </rect>
</g><g transform="rotate(356.4 50 50)">
  <rect fill="#ffffff" height="7" width="24" ry="3.5" rx="12" y="14.5" x="38">
    <animate repeatCount="indefinite" begin="0s" dur="2.6315789473684212s" keyTimes="0;1" values="1;0" attributeName="opacity"></animate>
  </rect>
</g><g></g></g><!-- [ldio] generated by https://loading.io --></svg>