<svg width="28" height="25" viewBox="0 0 28 25" fill="none" xmlns="http://www.w3.org/2000/svg">
<g clip-path="url(#clip0_1768_317)">
<path d="M11.9478 2.88587C13.1025 0.885869 15.9893 0.885872 17.144 2.88587L26.6703 19.3859C27.825 21.3859 26.3816 23.8859 24.0722 23.8859H5.01961C2.71021 23.8859 1.26684 21.3859 2.42154 19.3859L11.9478 2.88587Z" stroke="black"/>
<path d="M9.82735 21.3859H9.79518H9.76301H9.73084H9.69867H9.66649H9.63432L9.60225 21.353L9.56998 21.3529H9.53781H9.50563L9.47356 21.3201L9.44129 21.32L9.40922 21.2871L9.37694 21.287L9.34487 21.2542L9.3127 21.2213L9.28043 21.2212L9.24836 21.1883L9.21618 21.1554L9.18401 21.1224L9.15184 21.0895L9.11967 21.0566V21.0236L9.0875 20.9907L9.05532 20.9577V20.9248V20.8918L9.02315 20.8589V20.826V20.793L8.99098 20.7601V20.7271V20.6942V20.6613V20.6283V20.5954V20.5624V20.5295V20.4965V20.4636V20.4307V20.3977L9.02305 20.3649L9.02315 20.3318V20.2989L9.05522 20.2661L9.05532 20.233V20.2001V20.1671L9.0874 20.1343L9.0875 20.1012V20.0683L9.11957 20.0355L9.11967 20.0024V19.9695L9.15174 19.9366L9.15184 19.9036V19.8707L9.18391 19.8378L9.18401 19.8048V19.7718L9.21608 19.739L9.21618 19.7059V19.673V19.6401L9.24826 19.6072L9.24836 19.5742V19.5412L9.28043 19.5084L9.28053 19.4754V19.4424L9.3126 19.4096L9.3127 19.3765V19.3436L9.34477 19.3107L9.34487 19.2777V19.2448V19.2118L9.37694 19.179L9.37704 19.1459V19.113L9.40912 19.0802L9.40922 19.0471V19.0142V18.9812L9.44129 18.9484L9.44139 18.9153V18.8824L9.47346 18.8496L9.47356 18.8165V18.7836V18.7506L9.50563 18.7178L9.50573 18.6848V18.6518L9.53781 18.619L9.53791 18.5859V18.553L9.56998 18.5201L9.57008 18.4871V18.4542V18.4212L9.60215 18.3884L9.60225 18.3553V18.3224V18.2895L9.63432 18.2566L9.63442 18.2236V18.1906V18.1577L9.66649 18.1248L9.66659 18.0918V18.0589L9.69867 18.026L9.69877 17.993V17.96V17.9271L9.73084 17.8943L9.73094 17.8612V17.8283L9.76301 17.7954L9.76311 17.7624V17.7294V17.6965L9.79518 17.6637L9.79528 17.6306V17.5977V17.5647L9.82735 17.5319L9.82745 17.4989V17.4659V17.433L9.85953 17.4001L9.85963 17.3671L9.8917 17.3342L9.8918 17.3012L9.92387 17.2684L9.92397 17.2353L9.95604 17.2025L9.95614 17.1694L9.98821 17.1366L9.98832 17.1036L10.0204 17.0707L10.0526 17.0378L10.0847 17.0048L10.1169 16.9719L10.1491 16.9389L10.1812 16.906L10.2134 16.8731L10.2456 16.8401L10.2778 16.8072L10.3099 16.7742H10.3421L10.3743 16.7413L10.4065 16.7084H10.4386L10.4708 16.6754L10.503 16.6425H10.5351L10.5673 16.6095L10.5995 16.5766H10.6317L10.6638 16.5436L10.696 16.5107H10.7282L10.7603 16.4778L10.7925 16.4448H10.8247L10.8569 16.4119L10.889 16.3789H10.9212L10.9534 16.346L10.9856 16.3131H11.0177L11.0499 16.2801H11.0821L11.1142 16.2472L11.1464 16.2142H11.1786L11.2108 16.1813L11.2429 16.1483H11.2751L11.3073 16.1154L11.3394 16.0825H11.3716L11.4038 16.0495L11.436 16.0166H11.4681L11.5003 15.9836L11.5325 15.9507H11.5646L11.5968 15.9178L11.629 15.8848H11.6612L11.6933 15.8519L11.7255 15.8189L11.6934 15.7859L11.6612 15.7858L11.6291 15.7529L11.5969 15.72L11.5646 15.7199L11.5326 15.6871L11.5003 15.687L11.4682 15.6541L11.436 15.654L11.4039 15.6212L11.3716 15.6211L11.3395 15.5882L11.3073 15.5881L11.2752 15.5553L11.243 15.5224L11.2108 15.5222L11.1787 15.4894L11.1464 15.4893L11.1143 15.4565L11.0821 15.4564L11.05 15.4235L11.0177 15.4234L10.9857 15.3906L10.9535 15.3576L10.9212 15.3575L10.8891 15.3247L10.8569 15.3246L10.8248 15.2918L10.7925 15.2917L10.7604 15.2588L10.7282 15.2587L10.6961 15.2259L10.6639 15.1929L10.6317 15.1928L10.5996 15.16L10.5673 15.1599L10.5352 15.1271L10.503 15.1269L10.4709 15.0941L10.4386 15.094L10.4066 15.0612L10.3743 15.0611L10.3422 15.0282L10.31 14.9953L10.2778 14.9952L10.2457 14.9623L10.2134 14.9622L10.1813 14.9294L10.1491 14.9293L10.117 14.8965L10.0847 14.8964L10.0527 14.8635L10.0204 14.8634L9.98832 14.8306L9.95614 14.7976L9.92387 14.7975L9.8918 14.7647L9.85953 14.7646L9.82745 14.7318L9.79518 14.7316L9.76311 14.6988L9.73084 14.6987L9.69877 14.6659L9.66649 14.6658H9.63432L9.60215 14.6987L9.56998 14.7316L9.53781 14.7646L9.50563 14.7975L9.47346 14.8305L9.44129 14.8634L9.40912 14.8964L9.37694 14.9293H9.34477L9.3126 14.9622L9.28043 14.9952L9.24826 15.0281L9.21608 15.0611L9.18391 15.094L9.15174 15.1269L9.11957 15.1599L9.0874 15.1928L9.05522 15.2258L9.02305 15.2587L8.99088 15.2917L8.95871 15.3246H8.92653L8.89436 15.3575L8.86219 15.3905L8.83002 15.4234L8.79785 15.4564L8.76567 15.4893L8.7335 15.5222L8.70133 15.5552L8.66916 15.5881L8.63699 15.6211L8.60481 15.654L8.57264 15.687H8.54047L8.5083 15.7199L8.47613 15.7528L8.44395 15.7858L8.41178 15.8187L8.37961 15.8517L8.34744 15.8846L8.31526 15.9175L8.28309 15.9505L8.25092 15.9834H8.21875L8.18658 16.0164L8.1544 16.0493L8.12223 16.0823L8.09006 16.1152L8.05789 16.1481L8.02572 16.1811L7.99354 16.214L7.96137 16.247H7.9292L7.89703 16.2799L7.86486 16.3128L7.83268 16.3458L7.80051 16.3787H7.76834L7.73617 16.4117L7.70399 16.4446H7.67182L7.63965 16.4776H7.60748L7.57531 16.5105H7.54313L7.51096 16.5434H7.47879H7.44662L7.41445 16.5764H7.38227H7.3501H7.31793H7.28576H7.25358H7.22141H7.18924H7.15707L7.125 16.5435L7.09272 16.5434H7.06055H7.02838L6.99631 16.5106L6.96404 16.5105L6.93196 16.4777L6.89969 16.4776L6.86762 16.4447L6.83545 16.4118L6.80318 16.4117L6.7711 16.3788L6.73893 16.3459L6.70676 16.313L6.67459 16.28V16.2471L6.64241 16.2141L6.61024 16.1812V16.1482V16.1153L6.57807 16.0824V16.0494V16.0165L6.5459 15.9835V15.9506V15.9177V15.8847V15.8518V15.8188V15.7859V15.7529V15.72V15.6871L6.57797 15.6542L6.57807 15.6212V15.5882V15.5553L6.61014 15.5225L6.61024 15.4894L6.64231 15.4566L6.64241 15.4235L6.67449 15.3907L6.70666 15.3577L6.73883 15.3248L6.771 15.2919L6.80318 15.2589L6.83535 15.226L6.86752 15.193L6.89969 15.1601L6.93186 15.1272L6.96404 15.0942L6.99621 15.0613L7.02838 15.0283L7.06055 14.9954L7.09272 14.9624L7.1249 14.9295H7.15707L7.18924 14.8966L7.22141 14.8636L7.25358 14.8307L7.28576 14.7977L7.31793 14.7648L7.3501 14.7319L7.38227 14.6989H7.41445L7.44662 14.666L7.47879 14.633L7.51096 14.6001L7.54313 14.5671L7.57531 14.5342L7.60748 14.5013L7.63965 14.4683L7.67182 14.4354H7.70399L7.73617 14.4024L7.76834 14.3695L7.80051 14.3366L7.83268 14.3036L7.86486 14.2707L7.89703 14.2377L7.9292 14.2048L7.96137 14.1718H7.99354L8.02572 14.1389L8.05789 14.106L8.09006 14.073L8.12223 14.0401L8.1544 14.0071L8.18658 13.9742L8.21875 13.9413L8.25092 13.9083L8.28309 13.8754L8.31526 13.8424H8.34744L8.37961 13.8095L8.41178 13.7765L8.44395 13.7436L8.47613 13.7107L8.5083 13.6777L8.54047 13.6448L8.57264 13.6118L8.60481 13.5789L8.63699 13.546H8.66916L8.70133 13.513L8.7335 13.4801L8.76567 13.4471L8.79785 13.4142L8.83002 13.3812L8.86219 13.3483L8.89436 13.3154L8.92653 13.2824H8.95871L8.99088 13.2495L9.02305 13.2165L9.05522 13.1836L9.0874 13.1507L9.11957 13.1177L9.15174 13.0848H9.18391L9.21608 13.0518H9.24826L9.28043 13.0189H9.3126L9.34477 12.9859H9.37694H9.40912L9.44129 12.953H9.47346H9.50563H9.53781H9.56998H9.60215H9.63432H9.66649H9.69867H9.73084H9.76301H9.79518H9.82735H9.85953L9.8916 12.9858L9.92387 12.9859H9.95604L9.98811 13.0188L10.0204 13.0189L10.0525 13.0517L10.0847 13.0518L10.1168 13.0847L10.1491 13.0848L10.1811 13.1176L10.2134 13.1177L10.2455 13.1506L10.2778 13.1507L10.3098 13.1835L10.3421 13.1836L10.3742 13.2164L10.4064 13.2494L10.4386 13.2495L10.4707 13.2823L10.503 13.2824L10.535 13.3153L10.5673 13.3154L10.5994 13.3482L10.6317 13.3483L10.6637 13.3811L10.696 13.3812L10.7281 13.4141L10.7603 13.4142L10.7924 13.447L10.8247 13.4471L10.8568 13.48L10.8889 13.5129L10.9212 13.513L10.9533 13.5459L10.9856 13.546L11.0176 13.5788L11.0499 13.5789L11.082 13.6117L11.1142 13.6118L11.1463 13.6447L11.1786 13.6448L11.2107 13.6776L11.2429 13.6777L11.275 13.7106L11.3073 13.7107H11.3394L11.3715 13.7435L11.4038 13.7436L11.4359 13.7764L11.4681 13.7765L11.5002 13.8094L11.5325 13.8095L11.5645 13.8423L11.5968 13.8424L11.6289 13.8753L11.6612 13.8754L11.6932 13.9082L11.7255 13.9083L11.7576 13.9412L11.7899 13.9413L11.79 13.9082L11.822 13.8754L11.8221 13.8423L11.8542 13.8095L11.8543 13.7764L11.8864 13.7436L11.8865 13.7106L11.9185 13.6777L11.9186 13.6447L11.9507 13.6118L11.9508 13.5788L11.9829 13.546L11.983 13.5129L12.0151 13.4801L12.0152 13.447L12.0472 13.4142L12.0473 13.3811L12.0794 13.3483L12.1116 13.3154L12.1117 13.2823L12.1437 13.2495L12.1438 13.2164L12.1759 13.1836L12.176 13.1506L12.2081 13.1177L12.2082 13.0847L12.2403 13.0518L12.2404 13.0188L12.2724 12.9859L12.2725 12.9529L12.3046 12.9201L12.3047 12.887L12.3368 12.8542L12.3369 12.8211L12.369 12.7883L12.3691 12.7553L12.4011 12.7224L12.4012 12.6894L12.4333 12.6565L12.4334 12.6235L12.4655 12.5906L12.4656 12.5576L12.4976 12.5248L12.4977 12.4917L12.5298 12.4589L12.5299 12.4258L12.562 12.393L12.5942 12.3601L12.5943 12.327V12.2941L12.6263 12.2612L12.6264 12.2282L12.6585 12.1953L12.6586 12.1623L12.6907 12.1295L12.7228 12.0965L12.7229 12.0635L12.755 12.0306L12.7551 11.9976L12.7872 11.9648L12.7873 11.9317L12.8194 11.8989L12.8195 11.8658L12.8515 11.833L12.8516 11.7999L12.8837 11.7671L12.8838 11.7341L12.9159 11.7012L12.916 11.6682L12.948 11.6353L12.9481 11.6023L12.9802 11.5695L12.948 11.5693L12.916 11.5364L12.8837 11.5363L12.8516 11.5035L12.8194 11.5034L12.7873 11.4705L12.755 11.4704L12.7229 11.4376L12.6907 11.4375H12.6585L12.6264 11.4046L12.5942 11.4045L12.5621 11.3717L12.5298 11.3716L12.4977 11.3388L12.4655 11.3387L12.4334 11.3058L12.4011 11.3057L12.3691 11.2729L12.3368 11.2728H12.3046L12.2725 11.2399L12.2403 11.2398L12.2082 11.207L12.1759 11.2069L12.1438 11.1741L12.1116 11.174L12.0795 11.1411L12.0472 11.141L12.0152 11.1082L11.9829 11.1081L11.9508 11.0752L11.9185 11.0751L11.8865 11.0423L11.8542 11.0422L11.8221 11.0093L11.7899 11.0092L11.7578 10.9764L11.7255 10.9763H11.6933L11.6613 10.9435L11.629 10.9434L11.5969 10.9105L11.5646 10.9104L11.5326 10.8776L11.5004 10.8446L11.4681 10.8445L11.4361 10.8117L11.4038 10.8116L11.3717 10.7788L11.3394 10.7787L11.3074 10.7458L11.2752 10.7129L11.243 10.6799L11.2109 10.647L11.1787 10.614V10.5811L11.1465 10.5482V10.5152L11.1143 10.4823V10.4493L11.0822 10.4164V10.3835V10.3505V10.3176L11.05 10.2846V10.2517V10.2187V10.1858L11.0178 10.1529V10.1199V10.087V10.054L10.9857 10.0211V9.98815V9.95521L10.9535 9.92227V9.88933V9.85639V9.82344L10.9213 9.7905V9.75756V9.72462V9.69168L10.8891 9.65874V9.62579V9.59285V9.55991L10.857 9.52697V9.49403V9.46109V9.42814L10.8248 9.3952V9.36226V9.32932L10.7926 9.29638V9.26344V9.23049V9.19755L10.7604 9.16461V9.13167V9.09873L10.7283 9.06579V9.03284V8.9999V8.96696L10.6961 8.93402V8.90108V8.86814V8.83519L10.6639 8.80225V8.76931V8.73637L10.6318 8.70343V8.67049V8.63754L10.5996 8.6046V8.57166V8.53872V8.50578L10.5674 8.47284V8.43989V8.40695V8.37401L10.5352 8.34107V8.30813V8.27519V8.24224L10.5031 8.2093V8.17636V8.14342V8.11048V8.07754V8.04459V8.01165V7.97871V7.94577L10.5351 7.91293L10.5352 7.87989V7.84694V7.814L10.5673 7.78116L10.5674 7.74812L10.5995 7.71528L10.5996 7.68224L10.6317 7.6494L10.6638 7.61646L10.696 7.58351L10.7282 7.55057L10.7603 7.51763L10.7925 7.48469H10.8247L10.8569 7.45175H10.889L10.9212 7.41881H10.9534L10.9856 7.38586H11.0177H11.0499H11.0821H11.1142H11.1464H11.1786H11.2108H11.2429H11.2751H11.3073H11.3394L11.3715 7.4187L11.4038 7.41881H11.436L11.468 7.45165L11.5003 7.45175L11.5324 7.48459L11.5646 7.48469L11.5967 7.51753L11.6289 7.55047L11.6611 7.58341L11.6932 7.61635L11.7254 7.6493L11.7576 7.68224V7.71518L11.7898 7.74812L11.8219 7.78106V7.814V7.84694L11.8541 7.87989V7.91283L11.8863 7.94577V7.97871V8.01165V8.04459L11.9184 8.07754V8.11048V8.14342L11.9506 8.17636V8.2093V8.24224V8.27519L11.9828 8.30813V8.34107V8.37401V8.40695L12.015 8.43989V8.47284V8.50578L12.0471 8.53872V8.57166V8.6046V8.63754L12.0793 8.67049V8.70343V8.73637V8.76931L12.1115 8.80225V8.83519V8.86814V8.90108L12.1436 8.93402V8.96696V8.9999V9.03284L12.1758 9.06579V9.09873V9.13167V9.16461L12.208 9.19755V9.23049V9.26344V9.29638L12.2402 9.32932V9.36226V9.3952L12.2723 9.42814V9.46109V9.49403V9.52697L12.3045 9.55991V9.59285V9.62579V9.65874L12.3367 9.69168V9.72462V9.75756V9.7905L12.369 9.79061L12.401 9.82344L12.4333 9.82355H12.4655L12.4975 9.85639L12.5298 9.85649L12.5619 9.88933L12.5942 9.88943L12.6262 9.92227L12.6585 9.92237L12.6906 9.95521L12.7228 9.95531L12.7549 9.98815L12.7872 9.98826H12.8194L12.8514 10.0211L12.8837 10.0212L12.9158 10.054L12.948 10.0541H12.9802L13.0123 10.087L13.0446 10.0871L13.0766 10.1199L13.1089 10.12L13.141 10.1529L13.1733 10.153L13.2053 10.1858L13.2376 10.1859H13.2698L13.3018 10.2187L13.3341 10.2188L13.3662 10.2517L13.3985 10.2518L13.4305 10.2846L13.4628 10.2847L13.4949 10.3176L13.5271 10.3177H13.5593L13.5914 10.3505L13.6237 10.3506L13.6557 10.3835L13.688 10.3836H13.7202L13.7523 10.4164L13.7845 10.4165L13.8166 10.4493L13.8489 10.4494L13.8809 10.4823L13.9132 10.4824L13.9453 10.5152L13.9776 10.5153L14.0096 10.5482L14.0419 10.5483H14.0741L14.1061 10.5811L14.1384 10.5812L14.1705 10.614L14.2028 10.6141H14.2349L14.267 10.647L14.2993 10.6471L14.3314 10.6799L14.3636 10.68L14.3957 10.7129L14.428 10.713L14.46 10.7458L14.4923 10.7459H14.5245L14.5566 10.7788L14.5888 10.7789L14.6209 10.8117L14.6532 10.8118L14.6852 10.8446L14.7175 10.8447H14.7497L14.7818 10.8776L14.814 10.8777L14.8461 10.9105L14.8784 10.9106L14.9104 10.9435L14.9427 10.9436L14.9748 10.9764L15.0071 10.9765H15.0392L15.0713 11.0093L15.1036 11.0094L15.1357 11.0423L15.1679 11.0424L15.2 11.0752L15.2323 11.0753H15.2644L15.2965 11.1082L15.3288 11.1083L15.3609 11.1411L15.3931 11.1412L15.4252 11.1741L15.4575 11.1742H15.4896L15.5217 11.207L15.554 11.2071L15.5861 11.2399L15.6183 11.24L15.6504 11.2729L15.6827 11.273L15.7148 11.3058L15.747 11.3059L15.7791 11.3388L15.8114 11.3389L15.8434 11.3717L15.8757 11.3718H15.9079L15.94 11.4046L15.9722 11.4047L16.0043 11.4376L16.0366 11.4377L16.0686 11.4705L16.1009 11.4706L16.133 11.5035L16.1653 11.5036L16.1973 11.5364L16.2296 11.5365L16.2617 11.5694L16.2939 11.5695L16.326 11.6023L16.3583 11.6024L16.3904 11.6352L16.4225 11.6682L16.4548 11.6683L16.4869 11.7011L16.5192 11.7012L16.5512 11.7341L16.5834 11.767L16.6157 11.7671L16.6477 11.7999L16.6799 11.8329L16.7121 11.8658L16.7443 11.8988L16.7764 11.9317L16.8086 11.9647L16.8408 11.9976L16.8729 12.0305L16.9051 12.0635L16.9373 12.0964L16.9695 12.1294L17.0016 12.1623L17.0338 12.1952L17.066 12.2282L17.0982 12.2611V12.2941L17.1303 12.327L17.1625 12.36L17.1947 12.3929L17.2268 12.4258L17.259 12.4588L17.2912 12.4917L17.3234 12.5247L17.3555 12.5576L17.3877 12.5905L17.4199 12.6235L17.452 12.6564L17.4842 12.6894L17.5164 12.7223L17.5486 12.7553L17.5807 12.7882V12.8211L17.6129 12.8541L17.6451 12.887L17.6773 12.92L17.7094 12.9529L17.7416 12.9858L17.7738 13.0188L17.8059 13.0517L17.8381 13.0847L17.8703 13.1176L17.9025 13.1506L17.9346 13.1835L17.9668 13.2164L17.999 13.2494L18.0311 13.2823L18.0633 13.3153V13.3482L18.0955 13.3811L18.1277 13.4141L18.1598 13.447V13.48L18.192 13.5129V13.5459L18.2242 13.5788V13.6117V13.6447L18.2563 13.6776V13.7106V13.7435V13.7764V13.8094L18.2885 13.8423V13.8753V13.9082V13.9412V13.9741V14.007V14.04V14.0729L18.3207 14.1059V14.1388V14.1717V14.2047V14.2376V14.2706V14.3035L18.3529 14.3365V14.3694V14.4023V14.4353V14.4682V14.5012V14.5341L18.385 14.567V14.6V14.6329V14.6659V14.6988V14.7318V14.7647L18.4172 14.7976V14.8306V14.8635V14.8965V14.9294V14.9623V14.9953L18.4494 15.0282V15.0612V15.0941V15.1271V15.16V15.1929V15.2259L18.4816 15.2588V15.2918V15.3247V15.3576V15.3906V15.4235V15.4565V15.4894L18.5137 15.5224V15.5553V15.5882V15.6212V15.6541V15.6871V15.72L18.5459 15.7529V15.7859V15.8188L18.5138 15.8517L18.5137 15.8847V15.9177V15.9506V15.9835L18.4817 16.0164L18.4816 16.0494L18.4495 16.0823L18.4494 16.1153L18.4173 16.1481L18.4172 16.1812L18.3851 16.214L18.353 16.247L18.3208 16.2799L18.2886 16.3128L18.2564 16.3458L18.2243 16.3787H18.1921L18.1599 16.4117H18.1278L18.0956 16.4446H18.0634L18.0312 16.4776H17.9991H17.9669H17.9347H17.9026H17.8704H17.8382H17.806H17.7739H17.7417L17.7096 16.4447L17.6774 16.4446H17.6452L17.6131 16.4118L17.5808 16.4117L17.5488 16.3788L17.5165 16.3787L17.4844 16.3459L17.4522 16.313L17.4201 16.28L17.3879 16.2471L17.3557 16.2141L17.3236 16.1812L17.2914 16.1482V16.1153L17.2592 16.0824V16.0494L17.227 16.0165V15.9835V15.9506L17.1949 15.9177V15.8847V15.8518V15.8188V15.7859V15.7529L17.1627 15.72V15.6871V15.6541V15.6212V15.5882V15.5553V15.5224V15.4894V15.4565L17.1305 15.4235V15.3906V15.3576V15.3247V15.2918V15.2588V15.2259V15.1929V15.16L17.0984 15.1271V15.0941V15.0612V15.0282V14.9953V14.9623V14.9294V14.8965L17.0662 14.8635V14.8306V14.7976V14.7647V14.7318V14.6988V14.6659L17.034 14.6329V14.6V14.567V14.5341V14.5012V14.4682V14.4353L17.0018 14.4023V14.3694V14.3365V14.3035V14.2706V14.2376L16.9697 14.2047V14.1717L16.9375 14.1388L16.9053 14.1059L16.8731 14.0729L16.841 14.04L16.8088 14.007L16.7766 13.9741L16.7445 13.9412L16.7123 13.9082L16.6801 13.8753L16.6479 13.8423L16.6158 13.8094L16.5836 13.7764L16.5514 13.7435L16.5193 13.7106V13.6776L16.4871 13.6447L16.4549 13.6117L16.4227 13.5788L16.3906 13.5459L16.3584 13.5129L16.3262 13.48L16.294 13.447L16.2619 13.4141L16.2297 13.3811L16.1975 13.3482L16.1654 13.3153L16.1332 13.2823L16.101 13.2494V13.2164L16.0688 13.1835L16.0367 13.1506L16.0045 13.1176L15.9723 13.0847L15.9402 13.0517L15.908 13.0188L15.8758 12.9858L15.8436 12.9529L15.8115 12.92L15.7793 12.887L15.747 12.8869L15.715 12.8541L15.6827 12.854H15.6505H15.6183L15.5862 12.8869L15.5861 12.92L15.554 12.9528L15.5539 12.9858L15.5218 13.0187L15.5217 13.0517L15.4896 13.0846L15.4895 13.1176L15.4575 13.1504L15.4574 13.1835L15.4253 13.2163L15.4252 13.2494L15.3931 13.2822L15.393 13.3153L15.361 13.3481L15.3288 13.381L15.3287 13.4141L15.2966 13.4469L15.2965 13.48L15.2644 13.5128L15.2643 13.5459L15.2323 13.5787L15.2322 13.6117L15.2001 13.6446L15.2 13.6776L15.1679 13.7105L15.1678 13.7435L15.1358 13.7763L15.1357 13.8094L15.1036 13.8422L15.1035 13.8753L15.0714 13.9081L15.0713 13.9412L15.0392 13.974L15.0391 14.007L15.0071 14.0399L15.007 14.0729L14.9749 14.1058L14.9748 14.1388L14.9427 14.1716L14.9426 14.2047L14.9105 14.2375L14.9104 14.2706L14.8784 14.3034L14.8783 14.3365L14.8462 14.3693L14.8461 14.4023L14.814 14.4352L14.8139 14.4682L14.7819 14.5011L14.7818 14.5341L14.7497 14.5669L14.7496 14.6L14.7175 14.6328L14.7174 14.6659L14.6853 14.6987L14.6852 14.7318L14.6532 14.7646L14.6531 14.7976L14.621 14.8305L14.5888 14.8634L14.5887 14.8965V14.9294L14.5567 14.9622L14.5566 14.9953L14.5245 15.0281L14.5244 15.0612L14.4923 15.094L14.4922 15.1271L14.4601 15.1599L14.46 15.1929L14.428 15.2258L14.4279 15.2588L14.3958 15.2917L14.3957 15.3247L14.3636 15.3575L14.3635 15.3906L14.3315 15.4234L14.3314 15.4565L14.2993 15.4893L14.2992 15.5224L14.2671 15.5552L14.267 15.5882L14.2349 15.6211L14.2348 15.6541L14.2028 15.687L14.1706 15.7199L14.1705 15.7529L14.1384 15.7858L14.1383 15.8188L14.1062 15.8517L14.1061 15.8847L14.0741 15.9175L14.0419 15.9505L14.0418 15.9835L14.0097 16.0164L14.0096 16.0494L13.9776 16.0823L13.9775 16.1153L13.9454 16.1481L13.9132 16.1811L13.9131 16.2141L13.881 16.247L13.8489 16.2799L13.8167 16.3128L13.7845 16.3458L13.7524 16.3787L13.7202 16.4117L13.688 16.4446L13.6558 16.4776L13.6237 16.5105H13.5915L13.5593 16.5434L13.5271 16.5764L13.495 16.6093H13.4628L13.4306 16.6423L13.3985 16.6752H13.3663L13.3341 16.7081L13.3019 16.7411H13.2698L13.2376 16.774L13.2054 16.807H13.1733L13.1411 16.8399L13.1089 16.8729H13.0767L13.0446 16.9058L13.0124 16.9387H12.9802L12.948 16.9717L12.9159 17.0046H12.8837L12.8515 17.0376L12.8194 17.0705H12.7872L12.755 17.1034L12.7228 17.1364H12.6907L12.6585 17.1693H12.6263L12.5942 17.2023L12.562 17.2352H12.5298L12.4976 17.2682L12.4655 17.3011H12.4333L12.4011 17.334L12.369 17.367H12.3368L12.3046 17.3999L12.2724 17.4329H12.2403L12.2081 17.4658L12.1759 17.4987H12.1437L12.1116 17.5317L12.0794 17.5646H12.0472L12.0151 17.5976L11.9829 17.6305H11.9507L11.9185 17.6635L11.8864 17.6964H11.8542L11.822 17.7293L11.7899 17.7623H11.7577L11.7255 17.7952L11.6933 17.8282H11.6612L11.629 17.8611L11.5968 17.894H11.5646L11.5325 17.927L11.5003 17.9599H11.4681L11.436 17.9929L11.4038 18.0258H11.3716L11.3394 18.0588L11.3073 18.0917L11.3072 18.1247L11.2751 18.1576L11.275 18.1906V18.2236L11.2429 18.2564L11.2428 18.2895V18.3224V18.3553L11.2108 18.3882L11.2107 18.4212V18.4542L11.1786 18.487L11.1785 18.52V18.553V18.5859L11.1464 18.6188L11.1463 18.6518V18.6848L11.1142 18.7176L11.1141 18.7506V18.7836L11.0821 18.8164L11.082 18.8495V18.8824V18.9153L11.0499 18.9482L11.0498 18.9812V19.0142L11.0177 19.047L11.0176 19.0801V19.113L10.9856 19.1458L10.9855 19.1789V19.2118L10.9534 19.2447L10.9533 19.2777V19.3106V19.3436L10.9212 19.3764L10.9211 19.4095V19.4424L10.889 19.4752L10.8889 19.5083V19.5412L10.8569 19.5741L10.8568 19.6071L10.8247 19.64L10.8246 19.673V19.7059V19.7389L10.7925 19.7717L10.7924 19.8048V19.8377L10.7603 19.8705L10.7602 19.9036V19.9365L10.7282 19.9694L10.7281 20.0024V20.0354V20.0683L10.696 20.1011L10.6959 20.1342V20.1671L10.6638 20.2L10.6637 20.233V20.266L10.6317 20.2988L10.6316 20.3318V20.3648L10.5995 20.3976L10.5994 20.4307V20.4636V20.4965L10.5673 20.5294L10.5672 20.5624V20.5954L10.5351 20.6282L10.535 20.6613L10.503 20.6941L10.5029 20.7271V20.7601L10.4708 20.7929L10.4707 20.826V20.8589L10.4386 20.8917L10.4385 20.9248V20.9577L10.4065 20.9906L10.3743 21.0235L10.3742 21.0566L10.3421 21.0894L10.3099 21.1223L10.2778 21.1553L10.2456 21.1882L10.2134 21.2212H10.1812L10.1491 21.2541L10.1169 21.287H10.0847L10.0526 21.32H10.0204H9.98821L9.95604 21.3529H9.92387H9.8917H9.85953L9.82735 21.3859Z" fill="black"/>
<path d="M12.6792 20.3859H12.6459H12.6126H12.5792H12.5459H12.5126H12.4792H12.4459L12.4127 20.3565L12.4126 20.3564H12.3792H12.3459L12.3126 20.3271L12.3125 20.327H12.2792L12.246 20.2977L12.2459 20.2976H12.2125L12.1793 20.2683L12.1792 20.2682H12.1459H12.1125L12.0793 20.2389L12.0792 20.2388H12.0458L12.0126 20.2095L12.0125 20.2094H11.9792L11.9459 20.1801L11.9458 20.18L11.9126 20.1506L11.9125 20.1505L11.8793 20.1212L11.8792 20.1211L11.8459 20.0918L11.8458 20.0917L11.8126 20.0624L11.8125 20.0623L11.7793 20.033V20.0036L11.7792 20.0035L11.7459 19.9742V19.9447L11.7458 19.9446L11.7126 19.9153V19.8859V19.8565L11.7125 19.8564L11.6792 19.8271V19.7977V19.7683L11.6791 19.7682L11.6459 19.7388V19.7094V19.68L11.6458 19.6799L11.6126 19.6506V19.6212V19.5918L11.6125 19.5917L11.5792 19.5624V19.5329V19.5035V19.4741V19.4447V19.4153L11.5791 19.4152L11.5459 19.3859V19.3564V19.327V19.2976V19.2682L11.5791 19.2389L11.5792 19.2388V19.2094L11.6125 19.1801L11.6126 19.18V19.1505V19.1211L11.6458 19.0918L11.6459 19.0917L11.6791 19.0624L11.6792 19.0623V19.0329L11.7125 19.0036L11.7126 19.0035L11.7458 18.9742L11.7459 18.9741L11.7792 18.9447L11.7793 18.9446L11.8125 18.9153L11.8126 18.9152L11.8458 18.8859L11.8459 18.8858L11.8792 18.8565L11.8793 18.8564L11.9125 18.8271L11.9126 18.827L11.9458 18.7977L11.9459 18.7976L11.9792 18.7683H12.0125L12.0126 18.7682L12.0458 18.7388L12.046 18.7387L12.0792 18.7094L12.0793 18.7093L12.1125 18.68L12.1126 18.6799L12.1459 18.6506L12.146 18.6505L12.1792 18.6212L12.1793 18.6211L12.2125 18.5918L12.2126 18.5917L12.2459 18.5624H12.2792L12.2793 18.5623L12.3125 18.5329L12.3126 18.5328L12.3459 18.5035L12.346 18.5034L12.3792 18.4741L12.3793 18.474L12.4126 18.4447H12.4459L12.446 18.4446L12.4792 18.4153L12.4793 18.4152L12.5126 18.3859H12.5459H12.5792H12.6126L12.6458 18.4152L12.6459 18.4153L12.6791 18.4446L12.6792 18.4447H12.7126L12.7458 18.474L12.7459 18.4741L12.7792 18.5034L12.7793 18.5035H12.8126L12.8458 18.5328L12.8459 18.5329H12.8793L12.9125 18.5623L12.9126 18.5624H12.9459L12.9792 18.5917L12.9793 18.5918L13.0125 18.6211L13.0126 18.6212H13.046L13.0792 18.6505L13.0793 18.6506H13.1126L13.1459 18.6799L13.146 18.68L13.1792 18.7093L13.1793 18.7094H13.2126L13.2459 18.7387L13.246 18.7388L13.2792 18.7682L13.2793 18.7683L13.3125 18.7976L13.3126 18.7977H13.346L13.3792 18.827L13.3793 18.8271L13.4126 18.8564L13.4127 18.8565L13.4459 18.8858L13.446 18.8859H13.4793L13.5126 18.9152V18.9446L13.5127 18.9447L13.5459 18.9741V19.0035V19.0329V19.0623V19.0917V19.1211V19.1505V19.18V19.2094V19.2388V19.2682V19.2976V19.327V19.3564V19.3859L13.5127 19.4152L13.5126 19.4153V19.4447V19.4741V19.5035L13.4793 19.5328L13.4792 19.5329V19.5624L13.446 19.5917L13.4459 19.5918V19.6212L13.4127 19.6505L13.4126 19.6506V19.68V19.7094L13.3793 19.7387L13.3792 19.7388V19.7683V19.7977L13.346 19.827L13.3459 19.8271V19.8565L13.3126 19.8858L13.3125 19.8859V19.9153V19.9447L13.2793 19.9741L13.2792 19.9742V20.0036L13.246 20.0329L13.2459 20.033V20.0624L13.2126 20.0917L13.2125 20.0918L13.1793 20.1211L13.1792 20.1212L13.146 20.1505L13.1459 20.1506V20.1801L13.1126 20.2094H13.0793L13.0792 20.2095L13.046 20.2388L13.0458 20.2389L13.0126 20.2682L13.0125 20.2683L12.9793 20.2976H12.9459L12.9458 20.2977L12.9126 20.327H12.8793H12.8459L12.8458 20.3271L12.8126 20.3564H12.7793H12.7459H12.7126L12.7125 20.3565L12.6792 20.3859Z" fill="black"/>
<path d="M14.6221 19.4444H14.5967H14.5713H14.5459H14.5205H14.4951H14.4697H14.4443H14.4189L14.3936 19.4191L14.3935 19.419H14.3681L14.3428 19.3937L14.3428 19.3936H14.3174L14.2921 19.3683L14.292 19.3682L14.2667 19.3429L14.2666 19.3428H14.2412L14.2159 19.3175L14.2158 19.3174H14.1904L14.1651 19.2921L14.165 19.292H14.1396L14.1143 19.2667L14.1142 19.2666H14.0888L14.0635 19.2413L14.0635 19.2413H14.0381L14.0128 19.2159L14.0127 19.2159L13.9874 19.1905V19.1652L13.9873 19.1651L13.962 19.1398L13.9619 19.1397L13.9366 19.1144V19.089V19.0636L13.9365 19.0635L13.9112 19.0382V19.0128V18.9874L13.9111 18.9873L13.8858 18.962V18.9366V18.9113V18.8859V18.8605V18.8351L13.9111 18.8098L13.9112 18.8097V18.7843V18.7589V18.7335L13.9365 18.7082L13.9366 18.7081V18.6827L13.9619 18.6574L13.962 18.6573V18.632L13.9873 18.6066L13.9874 18.6066L14.0127 18.5813L14.0128 18.5812L14.0381 18.5559H14.0635L14.0635 18.5558L14.0888 18.5305L14.0889 18.5304L14.1142 18.5051H14.1396H14.165L14.1651 18.505L14.1904 18.4797H14.2158H14.2412L14.2413 18.4796L14.2666 18.4543H14.292H14.3174L14.3174 18.4542L14.3428 18.4289H14.3681H14.3935L14.3936 18.4288L14.4189 18.4035H14.4443H14.4697L14.495 18.4288L14.4951 18.4289H14.5205L14.5458 18.4542L14.5459 18.4543L14.5712 18.4796L14.5713 18.4797L14.5966 18.505L14.5967 18.5051H14.6221L14.6474 18.5304L14.6474 18.5305L14.6728 18.5558L14.6728 18.5559L14.6981 18.5812L14.6982 18.5813L14.7235 18.6066L14.7236 18.6066H14.749L14.7743 18.632L14.7744 18.632L14.7997 18.6573L14.7998 18.6574L14.8251 18.6827L14.8252 18.6828L14.8505 18.7081L14.8506 18.7082L14.8759 18.7335L14.876 18.7336L14.9013 18.7589L14.9013 18.759L14.9267 18.7843L14.9267 18.7844L14.9521 18.8097L14.9521 18.8098L14.9774 18.8351V18.8605V18.8859V18.9113V18.9366V18.962V18.9874L14.9521 19.0127L14.9521 19.0128V19.0382L14.9267 19.0635L14.9267 19.0636L14.9013 19.0889L14.9013 19.089L14.876 19.1143L14.8759 19.1144V19.1398L14.8506 19.1651L14.8505 19.1652L14.8252 19.1905L14.8251 19.1905L14.7998 19.2159L14.7997 19.2159V19.2413L14.7744 19.2666L14.7743 19.2667L14.749 19.292L14.7489 19.2921L14.7236 19.3174L14.7235 19.3175V19.3429L14.6982 19.3682L14.6981 19.3683L14.6728 19.3936L14.6728 19.3937L14.6474 19.419L14.6474 19.4191L14.6221 19.4444Z" fill="black"/>
<path d="M11.2821 22.4267H11.2568H11.2314H11.206H11.1806H11.1552H11.1298H11.1044H11.079L11.0537 22.4014L11.0536 22.4013H11.0282L11.0029 22.376L11.0029 22.3759H10.9775L10.9521 22.3506L10.9521 22.3505L10.9268 22.3252L10.9267 22.3252H10.9013L10.876 22.2998L10.8759 22.2998H10.8505L10.8252 22.2745L10.8251 22.2744H10.7997L10.7744 22.2491L10.7743 22.249H10.7489L10.7236 22.2237L10.7236 22.2236H10.6982L10.6729 22.1983L10.6728 22.1982L10.6475 22.1729V22.1475L10.6474 22.1474L10.6221 22.1221L10.622 22.122L10.5967 22.0967V22.0713V22.0459L10.5966 22.0459L10.5713 22.0206V21.9952V21.9698L10.5712 21.9697L10.5459 21.9444V21.919V21.8936V21.8682V21.8428V21.8174L10.5712 21.7921L10.5713 21.792V21.7666V21.7413V21.7159L10.5966 21.6906L10.5967 21.6905V21.6651L10.622 21.6398L10.6221 21.6397V21.6143L10.6474 21.589L10.6475 21.5889L10.6728 21.5636L10.6729 21.5635L10.6982 21.5382H10.7236L10.7236 21.5381L10.7489 21.5128L10.749 21.5127L10.7743 21.4874H10.7997H10.8251L10.8252 21.4873L10.8505 21.462H10.8759H10.9013L10.9014 21.462L10.9267 21.4366H10.9521H10.9775L10.9775 21.4366L11.0029 21.4113H11.0282H11.0536L11.0537 21.4112L11.079 21.3859H11.1044H11.1298L11.1551 21.4112L11.1552 21.4113H11.1806L11.2059 21.4366L11.206 21.4366L11.2313 21.462L11.2314 21.462L11.2567 21.4873L11.2568 21.4874H11.2821L11.3075 21.5127L11.3075 21.5128L11.3328 21.5381L11.3329 21.5382L11.3582 21.5635L11.3583 21.5636L11.3836 21.5889L11.3837 21.589H11.4091L11.4344 21.6143L11.4345 21.6144L11.4598 21.6397L11.4599 21.6398L11.4852 21.6651L11.4853 21.6652L11.5106 21.6905L11.5107 21.6906L11.536 21.7159L11.5361 21.7159L11.5614 21.7413L11.5614 21.7413L11.5868 21.7666L11.5868 21.7667L11.6121 21.792L11.6122 21.7921L11.6375 21.8174V21.8428V21.8682V21.8936V21.919V21.9444V21.9698L11.6122 21.9951L11.6121 21.9952V22.0206L11.5868 22.0459L11.5868 22.0459L11.5614 22.0713L11.5614 22.0713L11.5361 22.0966L11.536 22.0967V22.1221L11.5107 22.1474L11.5106 22.1475L11.4853 22.1728L11.4852 22.1729L11.4599 22.1982L11.4598 22.1983V22.2237L11.4345 22.249L11.4344 22.2491L11.4091 22.2744L11.409 22.2745L11.3837 22.2998L11.3836 22.2998V22.3252L11.3583 22.3505L11.3582 22.3506L11.3329 22.3759L11.3328 22.376L11.3075 22.4013L11.3075 22.4014L11.2821 22.4267Z" fill="black"/>
<path d="M8.4091 22.7314H8.38371H8.35832H8.33293H8.30754H8.28215H8.25676H8.23137H8.20598L8.18066 22.7061L8.18059 22.706H8.15519L8.12988 22.6807L8.1298 22.6806H8.10441L8.0791 22.6553L8.07902 22.6552H8.05363H8.02824L8.00293 22.6299L8.00285 22.6298H7.97746L7.95215 22.6045L7.95207 22.6045H7.92668L7.90137 22.5791L7.90129 22.5791H7.8759L7.85059 22.5538L7.85051 22.5537H7.82512L7.7998 22.5284L7.79973 22.5283H7.77434L7.74902 22.503L7.74894 22.5029H7.72355L7.69824 22.4776L7.69816 22.4775L7.67285 22.4522L7.67277 22.4521L7.64746 22.4268V22.4014L7.64738 22.4013L7.62207 22.376V22.3506L7.62199 22.3505L7.59668 22.3252V22.2998L7.5966 22.2998L7.57129 22.2745V22.2491V22.2237V22.1983L7.57121 22.1982L7.5459 22.1729V22.1475V22.1221V22.0967V22.0713V22.0459V22.0206V21.9952V21.9698V21.9444V21.919L7.57121 21.8937L7.57129 21.8936V21.8682V21.8428V21.8174L7.5966 21.7921L7.59668 21.792V21.7666L7.62199 21.7413L7.62207 21.7413V21.7159L7.64738 21.6906L7.64746 21.6905L7.67277 21.6652L7.67285 21.6651L7.69816 21.6398H7.72355L7.72363 21.6397L7.74894 21.6144H7.77434L7.77441 21.6143L7.79973 21.589H7.82512H7.85051L7.85059 21.5889L7.8759 21.5636H7.90129H7.92668L7.92676 21.5635L7.95207 21.5382H7.97746H8.00285L8.00293 21.5381L8.02824 21.5128H8.05363L8.05371 21.5127L8.07902 21.4874H8.10441H8.1298L8.12988 21.4873L8.15519 21.462H8.18059L8.18066 21.462L8.20598 21.4366H8.23137L8.23145 21.4366L8.25676 21.4113H8.28215H8.30754L8.30762 21.4112L8.33293 21.3859H8.35832L8.38363 21.4112L8.38371 21.4113H8.4091L8.43441 21.4366L8.43449 21.4366L8.4598 21.462L8.45988 21.462H8.48527L8.51058 21.4873L8.51066 21.4874L8.53597 21.5127V21.5381L8.53605 21.5382L8.56137 21.5635L8.56144 21.5636L8.58676 21.5889V21.6143L8.58684 21.6144L8.61215 21.6397V21.6651L8.61223 21.6652L8.63754 21.6905V21.7159V21.7413L8.63762 21.7413L8.66293 21.7666V21.792L8.66301 21.7921L8.68832 21.8174V21.8428V21.8682L8.6884 21.8683L8.71371 21.8936V21.919L8.71379 21.9191L8.7391 21.9444V21.9698V21.9952L8.73918 21.9952L8.76449 22.0206V22.0459L8.76457 22.046L8.78988 22.0713V22.0967V22.1221L8.78996 22.1222L8.81527 22.1475V22.1729L8.81535 22.173L8.84066 22.1983V22.2237V22.2491V22.2745V22.2998L8.81535 22.3252L8.81527 22.3252V22.3506V22.376L8.78996 22.4013L8.78988 22.4014V22.4268L8.76457 22.4521L8.76449 22.4522V22.4776L8.73918 22.5029L8.7391 22.503L8.71379 22.5283L8.71371 22.5284L8.6884 22.5537L8.68832 22.5538L8.66301 22.5791L8.66293 22.5791L8.63762 22.6045L8.63754 22.6045L8.61223 22.6298L8.61215 22.6299L8.58684 22.6552H8.56144L8.56137 22.6553L8.53605 22.6806H8.51066L8.51058 22.6807L8.48527 22.706H8.45988H8.43449L8.43441 22.7061L8.4091 22.7314Z" fill="black"/>
<path d="M24.5459 16.3859H17.0459L11.5459 23.8859H24.5459L26.5459 22.3859L27.0459 20.8859L26.5459 19.3859L24.5459 16.3859Z" fill="black" stroke="black"/>
<circle cx="15.0459" cy="8.88586" r="1.5" fill="black"/>
</g>
<defs>
<clipPath id="clip0_1768_317">
<rect width="27" height="24" fill="white" transform="translate(0.848633 0.692936)"/>
</clipPath>
</defs>
</svg>
