<svg width="20" height="25" viewBox="0 0 20 25" fill="none" xmlns="http://www.w3.org/2000/svg">
<path d="M8.26346 2.33374V2.3038V2.27386V2.24392V2.21398V2.18404V2.1541V2.12416V2.09422V2.06428V2.03434V2.0044V1.97446V1.94452V1.91458V1.88464V1.85471V1.82477V1.79483V1.76489V1.73495V1.70501V1.67507V1.64513V1.61519V1.58525V1.55531V1.52537V1.49543L8.26336 1.49533L8.23352 1.46549V1.43555V1.40561V1.37567L8.23342 1.37557L8.20358 1.34573V1.31579L8.20348 1.3157L8.17364 1.28585V1.25591L8.17354 1.25582L8.1437 1.22597V1.19603L8.1436 1.19594L8.11376 1.16609L8.11366 1.166L8.08382 1.13615L8.08372 1.13606L8.05388 1.10621L8.05378 1.10612H8.02384L7.994 1.07627L7.9939 1.07618L7.96406 1.04633L7.96396 1.04624H7.93402L7.90418 1.01639L7.90408 1.0163H7.87414L7.8443 0.98645L7.8442 0.986357H7.81427H7.78433H7.75439L7.72454 0.95651L7.72445 0.956417H7.69451H7.66457H7.63463H7.60469H7.57475H7.54481H7.51487H7.48493H7.45499H7.42505H7.39511H7.36517H7.33523H7.30529H7.27535H7.24541H7.21547H7.18553H7.15559H7.12565H7.09571H7.06577H7.03583H7.00589H6.97595H6.94601H6.91607H6.88613H6.85619H6.82625H6.79631H6.76637H6.73643H6.70649H6.67655L6.67646 0.95651L6.64661 0.986357H6.61667H6.58673H6.55679L6.5567 0.98645L6.52685 1.0163H6.49691L6.49682 1.01639L6.46697 1.04624L6.46688 1.04633L6.43703 1.07618H6.40709L6.407 1.07627L6.37715 1.10612L6.37706 1.10621L6.34721 1.13606L6.34712 1.13615L6.31727 1.166L6.31718 1.16609L6.28733 1.19594L6.28724 1.19603L6.25739 1.22588L6.2573 1.22597V1.25591L6.22745 1.28576L6.22736 1.28585V1.31579L6.19751 1.34564L6.19742 1.34573V1.37567L6.16757 1.40551L6.16748 1.40561V1.43555V1.46549V1.49543V1.52537V1.55531V1.58525V1.61519V1.64513V1.67507V1.70501V1.73495V1.76489V1.79483V1.82477V1.85471V1.88464V1.91458V1.94452V1.97446V2.0044V2.03434V2.06428V2.09422V2.12416V2.1541V2.18404V2.21398V2.24392V2.27386V2.3038V2.33374L6.16757 2.33384H6.19751H6.22745H6.25739H6.28733H6.31727H6.34721H6.37715H6.40709H6.43703H6.46697H6.49691H6.52685H6.55679H6.58673H6.61667H6.64661H6.67655H6.70649H6.73643H6.76637H6.79631H6.82625H6.85619H6.88613H6.91607H6.94601H6.97595H7.00589H7.03583H7.06577H7.09571H7.12565H7.15559H7.18553H7.21547H7.24541H7.27535H7.30529H7.33523H7.36517H7.39511H7.42505H7.45499H7.48493H7.51487H7.54481H7.57475H7.60469H7.63463H7.66457H7.69451H7.72445H7.75439H7.78433H7.81427H7.8442H7.87414H7.90408H7.93402H7.96396H7.9939H8.02384H8.05378H8.08372H8.11366H8.1436H8.17354H8.20348H8.23342H8.26336L8.26346 2.33374Z" fill="black"/>
<path d="M12.3354 7.24388L12.3652 7.21403H12.3952L12.3953 7.21394L12.4251 7.18409H12.4551L12.4552 7.184L12.485 7.15415L12.4851 7.15406L12.5149 7.12421H12.5449L12.545 7.12412V7.09418L12.5748 7.06433L12.5749 7.06424L12.6048 7.03439L12.6049 7.0343V7.00436V6.97442L12.6347 6.94457L12.6348 6.94448V6.91454V6.8846V6.85466V6.82472V6.79478V6.76484V6.7349V6.70496V6.67502V6.64508V6.61514V6.5852V6.55526V6.52532V6.49538V6.46544V6.4355V6.40556V6.37562V6.34568V6.31574V6.2858V6.25586V6.22592V6.19598V6.16604V6.1361V6.10616V6.07622V6.04628V6.01634V5.9864V5.95646V5.92652V5.89658V5.86664V5.8367V5.80676V5.77682V5.74688V5.71694V5.687V5.65706V5.62712V5.59718V5.56724V5.5373V5.50736V5.47742V5.44749V5.41755V5.38761V5.35767V5.32773V5.29779V5.26785V5.23791V5.20797V5.17803V5.14809V5.11815V5.08821V5.05827V5.02833V4.99839V4.96845V4.93851V4.90857V4.87863V4.84869V4.81875V4.78881V4.75887V4.72893V4.69899V4.66905V4.63911V4.60917V4.57923V4.54929V4.51935V4.48941V4.45947V4.42953V4.39959V4.36965V4.33971V4.30977V4.27983V4.24989V4.21995V4.19001V4.16007V4.13013V4.10019V4.07025V4.04031V4.01037V3.98043V3.95049V3.92055V3.89061V3.86067V3.83073V3.80079V3.77085V3.74091V3.71097V3.68103V3.65109V3.62115V3.59122V3.56128V3.53134V3.5014V3.47146V3.44152V3.41158V3.38164V3.3517V3.32176V3.29182V3.26188V3.23194V3.202V3.17206L12.6347 3.17196L12.6049 3.14212V3.11218L12.6048 3.11208L12.5749 3.08224L12.5748 3.08215L12.545 3.0523V3.02236L12.5449 3.02227L12.515 2.99242L12.5149 2.99233L12.4851 2.96248L12.485 2.96239H12.4551L12.4252 2.93254L12.4251 2.93245H12.3952L12.3653 2.9026L12.3652 2.90251H12.3353H12.3054L12.2755 2.87266L12.2754 2.87257H12.2455H12.2155H12.1856H12.1557H12.1257H12.0958H12.0659H12.0359H12.006H11.976H11.9461H11.9162H11.8862H11.8563H11.8263H11.7964H11.7665H11.7365H11.7066H11.6766H11.6467H11.6168H11.5868H11.5569H11.5269H11.497H11.4671H11.4371H11.4072H11.3772H11.3473H11.3174H11.2874H11.2575H11.2275H11.1976H11.1677H11.1377H11.1078H11.0778H11.0479H11.018H10.988H10.9581H10.9281H10.8982H10.8683H10.8383H10.8084H10.7784H10.7485H10.7186H10.6886H10.6587H10.6287H10.5988H10.5689H10.5389H10.509H10.479H10.4491H10.4192H10.3892H10.3593H10.3293H10.2994H10.2695H10.2395H10.2096H10.1796H10.1497H10.1198H10.0898H10.0599H10.0299H10H9.97006H9.94012H9.91018H9.88024H9.8503H9.82036H9.79042H9.76048H9.73054H9.7006H9.67066H9.64072H9.61078H9.58084H9.5509H9.52096H9.49102H9.46108H9.43114H9.4012H9.37126H9.34132H9.31138H9.28144H9.2515H9.22156H9.19163H9.16169H9.13175H9.10181H9.07187H9.04193H9.01199H8.98205H8.95211H8.92217H8.89223H8.86229H8.83235H8.80241H8.77247H8.74253H8.71259H8.68265H8.65271H8.62277H8.59283H8.56289H8.53295H8.50301H8.47307H8.44313H8.41319H8.38325H8.35331H8.32337H8.29343H8.26349H8.23355H8.20361H8.17367H8.14373H8.11379H8.08385H8.05391H8.02397H7.99403H7.96409H7.93415H7.90421H7.87427H7.84433H7.81439H7.78445H7.75451H7.72457H7.69463H7.66469H7.63475H7.60481H7.57487H7.54493H7.51499H7.48505H7.45511H7.42517H7.39523H7.36529H7.33535H7.30541H7.27547H7.24553H7.21559H7.18566H7.15572H7.12578H7.09584H7.0659H7.03596H7.00602H6.97608H6.94614H6.9162H6.88626H6.85632H6.82638H6.79644H6.7665H6.73656H6.70662H6.67668H6.64674H6.6168H6.58686H6.55692H6.52698H6.49704H6.4671H6.43716H6.40722H6.37728H6.34734H6.3174H6.28746H6.25752H6.22758H6.19764H6.1677H6.13776H6.10782H6.07788H6.04794H6.018H5.98806H5.95812H5.92818H5.89824H5.8683H5.83836H5.80842H5.77848H5.74854H5.7186H5.68866H5.65872H5.62878H5.59884H5.5689H5.53896H5.50902H5.47908H5.44914H5.4192H5.38926H5.35932H5.32938H5.29945H5.26951H5.23957H5.20963H5.17969H5.14975H5.11981H5.08987H5.05993H5.02999H5.00005H4.97011H4.94017H4.91023H4.88029H4.85035H4.82041H4.79047H4.76053H4.73059H4.70065H4.67071H4.64077H4.61083H4.58089H4.55095H4.52101H4.49107H4.46113H4.43119H4.40125H4.37131H4.34137H4.31143H4.28149H4.25155H4.22161H4.19167H4.16173H4.13179H4.10185H4.07191H4.04197H4.01203H3.98209H3.95215H3.92221H3.89227H3.86233H3.83239H3.80245H3.77251H3.74257H3.71263H3.68269H3.65275H3.62281H3.59287H3.56293H3.53299H3.50305H3.47311H3.44317H3.41323H3.3833H3.35336H3.32342H3.29348H3.26354H3.2336H3.20366H3.17372H3.14378H3.11384H3.0839H3.05396H3.02402H2.99408H2.96414H2.9342H2.90426H2.87432H2.84438H2.81444H2.7845H2.75456H2.72462H2.69468H2.66474H2.6348H2.60486H2.57492H2.54498H2.51504H2.4851H2.45516H2.42522H2.39528H2.36534H2.3354H2.30546H2.27552H2.24558H2.21564H2.1857L2.18561 2.87266L2.15576 2.90251H2.12582H2.09588H2.06594L2.06585 2.9026L2.036 2.93245H2.00606L2.00597 2.93254L1.97612 2.96239H1.94618L1.94609 2.96248L1.91624 2.99233L1.91615 2.99242L1.8863 3.02227L1.88621 3.02236L1.85636 3.05221L1.85627 3.0523L1.82642 3.08215L1.82633 3.08224L1.79648 3.11208L1.79639 3.11218L1.76654 3.14202L1.76645 3.14212L1.7366 3.17196L1.73651 3.17206L1.70666 3.2019L1.70657 3.202L1.67672 3.23184L1.67663 3.23194L1.64678 3.26178L1.64669 3.26188L1.61684 3.29172L1.61675 3.29182L1.5869 3.32166L1.58681 3.32176L1.55696 3.3516L1.55687 3.3517L1.52702 3.38154L1.52693 3.38164L1.49708 3.41148L1.49699 3.41158L1.46715 3.44142L1.46705 3.44152L1.43721 3.47136L1.43711 3.47146L1.40727 3.5013L1.40717 3.5014L1.37733 3.53124L1.37723 3.53134L1.34739 3.56118L1.34729 3.56128L1.31745 3.59112L1.31735 3.59122L1.28751 3.62106L1.28741 3.62115L1.25757 3.651L1.25747 3.65109L1.22763 3.68094L1.22753 3.68103L1.19769 3.71088L1.19759 3.71097L1.16775 3.74082L1.16765 3.74091L1.13781 3.77076L1.13771 3.77085L1.10787 3.8007L1.10777 3.80079L1.07793 3.83064L1.07783 3.83073L1.04799 3.86058L1.04789 3.86067L1.01805 3.89052L1.01795 3.89061L0.988108 3.92046L0.988015 3.92055L0.958168 3.9504L0.958075 3.95049L0.928228 3.98034L0.928135 3.98043L0.898288 4.01028L0.898195 4.01037L0.868348 4.04022L0.868255 4.04031L0.838408 4.07016L0.838316 4.07025L0.808469 4.1001L0.808376 4.10019L0.778529 4.13004L0.778436 4.13013L0.748589 4.15998L0.748496 4.16007L0.718649 4.18992L0.718556 4.19001L0.688709 4.21986L0.688616 4.21995L0.658769 4.2498L0.658677 4.24989L0.628829 4.27974L0.628737 4.27983L0.59889 4.30968L0.598797 4.30977L0.56895 4.33962L0.568857 4.33971L0.53901 4.36956L0.538917 4.36965L0.50907 4.3995L0.508977 4.39959L0.47913 4.42944L0.479037 4.42953L0.44919 4.45938L0.449098 4.45947L0.419251 4.48932L0.419158 4.48941L0.389311 4.51926L0.389218 4.51935L0.359371 4.5492L0.359278 4.54929L0.329431 4.57914L0.329338 4.57923L0.299491 4.60908L0.299398 4.60917L0.269551 4.63902L0.269459 4.63911L0.239611 4.66896L0.239519 4.66905L0.209672 4.6989L0.209579 4.69899L0.179732 4.72884L0.179639 4.72893L0.149792 4.75878L0.149699 4.75887L0.119852 4.78872L0.119759 4.78881L0.0899123 4.81866L0.0898195 4.81875L0.0599724 4.8486L0.0598797 4.84869L0.0300326 4.87854L0.0299398 4.87863V4.90857L9.27397e-05 4.93842L0 4.93851V4.96845V4.99839V5.02833V5.05827V5.08821V5.11815V5.14809V5.17803L9.27397e-05 5.17812L0.0299398 5.20797V5.23791V5.26785L0.0300326 5.26794L0.0598797 5.29779L0.0599724 5.29788L0.0898195 5.32773L0.0899123 5.32782L0.119759 5.35767L0.119852 5.35776L0.149699 5.38761L0.149792 5.3877L0.179639 5.41755L0.179732 5.41764L0.209579 5.44749L0.209672 5.44758L0.239519 5.47742L0.239611 5.47752L0.269459 5.50736L0.269551 5.50746L0.299398 5.5373L0.299491 5.5374L0.329338 5.56724L0.329431 5.56734L0.359278 5.59718L0.359371 5.59728L0.389218 5.62712L0.389311 5.62722L0.419158 5.65706L0.419251 5.65716L0.449098 5.687L0.44919 5.6871L0.479037 5.71694L0.47913 5.71704L0.508977 5.74688L0.50907 5.74698L0.538917 5.77682L0.53901 5.77692L0.568857 5.80676L0.56895 5.80686L0.598797 5.8367L0.59889 5.8368L0.628737 5.86664L0.628829 5.86674L0.658677 5.89658L0.658769 5.89668L0.688616 5.92652L0.688709 5.92662L0.718556 5.95646L0.718649 5.95656L0.748496 5.9864L0.748589 5.9865L0.778436 6.01634L0.778529 6.01644L0.808376 6.04628L0.808469 6.04637L0.838316 6.07622L0.838408 6.07631L0.868255 6.10616L0.868348 6.10625L0.898195 6.1361L0.898288 6.13619L0.928135 6.16604L0.928228 6.16613L0.958075 6.19598L0.958168 6.19607L0.988015 6.22592L0.988108 6.22601L1.01795 6.25586L1.01805 6.25595L1.04789 6.2858L1.04799 6.28589L1.07783 6.31574L1.07793 6.31583L1.10777 6.34568L1.10787 6.34577L1.13771 6.37562L1.13781 6.37571L1.16765 6.40556L1.16775 6.40565L1.19759 6.4355L1.19769 6.43559L1.22753 6.46544L1.22763 6.46553L1.25747 6.49538L1.25757 6.49547L1.28741 6.52532L1.28751 6.52541L1.31735 6.55526L1.31745 6.55535L1.34729 6.5852L1.34739 6.58529L1.37723 6.61514L1.37733 6.61523L1.40717 6.64508L1.40727 6.64517L1.43711 6.67502L1.43721 6.67511L1.46705 6.70496L1.46715 6.70505L1.49699 6.7349L1.49708 6.73499L1.52693 6.76484L1.52702 6.76493L1.55687 6.79478L1.55696 6.79487L1.58681 6.82472L1.5869 6.82481L1.61675 6.85466L1.61684 6.85475L1.64669 6.8846L1.64678 6.88469L1.67663 6.91454L1.67672 6.91463L1.70657 6.94448L1.70666 6.94457L1.73651 6.97442L1.7366 6.97451L1.76645 7.00436L1.76654 7.00445L1.79639 7.0343L1.79648 7.03439L1.82633 7.06424L1.82642 7.06433L1.85627 7.09418L1.85636 7.09427L1.88621 7.12412L1.8863 7.12421H1.91624L1.94609 7.15406L1.94618 7.15415L1.97603 7.184L1.97612 7.18409H2.00606L2.03591 7.21394L2.036 7.21403H2.06594H2.09588L2.12573 7.24388L2.12582 7.24397H2.15576H2.1857H2.21564H2.24558H2.27552H2.30546H2.3354H2.36534H2.39528H2.42522H2.45516H2.4851H2.51504H2.54498H2.57492H2.60486H2.6348H2.66474H2.69468H2.72462H2.75456H2.7845H2.81444H2.84438H2.87432H2.90426H2.9342H2.96414H2.99408H3.02402H3.05396H3.0839H3.11384H3.14378H3.17372H3.20366H3.2336H3.26354H3.29348H3.32342H3.35336H3.3833H3.41323H3.44317H3.47311H3.50305H3.53299H3.56293H3.59287H3.62281H3.65275H3.68269H3.71263H3.74257H3.77251H3.80245H3.83239H3.86233H3.89227H3.92221H3.95215H3.98209H4.01203H4.04197H4.07191H4.10185H4.13179H4.16173H4.19167H4.22161H4.25155H4.28149H4.31143H4.34137H4.37131H4.40125H4.43119H4.46113H4.49107H4.52101H4.55095H4.58089H4.61083H4.64077H4.67071H4.70065H4.73059H4.76053H4.79047H4.82041H4.85035H4.88029H4.91023H4.94017H4.97011H5.00005H5.02999H5.05993H5.08987H5.11981H5.14975H5.17969H5.20963H5.23957H5.26951H5.29945H5.32938H5.35932H5.38926H5.4192H5.44914H5.47908H5.50902H5.53896H5.5689H5.59884H5.62878H5.65872H5.68866H5.7186H5.74854H5.77848H5.80842H5.83836H5.8683H5.89824H5.92818H5.95812H5.98806H6.018H6.04794H6.07788H6.10782H6.13776H6.1677H6.19764H6.22758H6.25752H6.28746H6.3174H6.34734H6.37728H6.40722H6.43716H6.4671H6.49704H6.52698H6.55692H6.58686H6.6168H6.64674H6.67668H6.70662H6.73656H6.7665H6.79644H6.82638H6.85632H6.88626H6.9162H6.94614H6.97608H7.00602H7.03596H7.0659H7.09584H7.12578H7.15572H7.18566H7.21559H7.24553H7.27547H7.30541H7.33535H7.36529H7.39523H7.42517H7.45511H7.48505H7.51499H7.54493H7.57487H7.60481H7.63475H7.66469H7.69463H7.72457H7.75451H7.78445H7.81439H7.84433H7.87427H7.90421H7.93415H7.96409H7.99403H8.02397H8.05391H8.08385H8.11379H8.14373H8.17367H8.20361H8.23355H8.26349H8.29343H8.32337H8.35331H8.38325H8.41319H8.44313H8.47307H8.50301H8.53295H8.56289H8.59283H8.62277H8.65271H8.68265H8.71259H8.74253H8.77247H8.80241H8.83235H8.86229H8.89223H8.92217H8.95211H8.98205H9.01199H9.04193H9.07187H9.10181H9.13175H9.16169H9.19163H9.22156H9.2515H9.28144H9.31138H9.34132H9.37126H9.4012H9.43114H9.46108H9.49102H9.52096H9.5509H9.58084H9.61078H9.64072H9.67066H9.7006H9.73054H9.76048H9.79042H9.82036H9.8503H9.88024H9.91018H9.94012H9.97006H10H10.0299H10.0599H10.0898H10.1198H10.1497H10.1796H10.2096H10.2395H10.2695H10.2994H10.3293H10.3593H10.3892H10.4192H10.4491H10.479H10.509H10.5389H10.5689H10.5988H10.6287H10.6587H10.6886H10.7186H10.7485H10.7784H10.8084H10.8383H10.8683H10.8982H10.9281H10.9581H10.988H11.018H11.0479H11.0778H11.1078H11.1377H11.1677H11.1976H11.2275H11.2575H11.2874H11.3174H11.3473H11.3772H11.4072H11.4371H11.4671H11.497H11.5269H11.5569H11.5868H11.6168H11.6467H11.6766H11.7066H11.7365H11.7665H11.7964H11.8263H11.8563H11.8862H11.9162H11.9461H11.976H12.006H12.0359H12.0659H12.0958H12.1257H12.1557H12.1856H12.2155H12.2455H12.2754H12.3054H12.3353L12.3354 7.24388Z" fill="black"/>
<path d="M8.23352 8.62112L8.26336 8.59127L8.26346 8.59118V8.56124V8.5313V8.50136V8.47142V8.44148V8.41154V8.3816V8.35166V8.32172V8.29178V8.26184V8.2319V8.20196V8.17202V8.14208V8.11214V8.0822V8.05226V8.02232V7.99238V7.96244V7.9325V7.90256L8.26336 7.90247H8.23342H8.20348H8.17354H8.1436H8.11366H8.08372H8.05378H8.02384H7.9939H7.96396H7.93402H7.90408H7.87414H7.8442H7.81427H7.78433H7.75439H7.72445H7.69451H7.66457H7.63463H7.60469H7.57475H7.54481H7.51487H7.48493H7.45499H7.42505H7.39511H7.36517H7.33523H7.30529H7.27535H7.24541H7.21547H7.18553H7.15559H7.12565H7.09571H7.06577H7.03583H7.00589H6.97595H6.94601H6.91607H6.88613H6.85619H6.82625H6.79631H6.76637H6.73643H6.70649H6.67655H6.64661H6.61667H6.58673H6.55679H6.52685H6.49691H6.46697H6.43703H6.40709H6.37715H6.34721H6.31727H6.28733H6.25739H6.22745H6.19751H6.16757L6.16748 7.90256V7.9325V7.96244V7.99238V8.02232V8.05226V8.0822V8.11214V8.14208V8.17202V8.20196V8.2319V8.26184V8.29178V8.32172V8.35166V8.3816V8.41154V8.44148V8.47142V8.50136V8.5313V8.56124V8.59118V8.62112L6.16757 8.62121H6.19751H6.22745H6.25739H6.28733H6.31727H6.34721H6.37715H6.40709H6.43703H6.46697H6.49691H6.52685H6.55679H6.58673H6.61667H6.64661H6.67655H6.70649H6.73643H6.76637H6.79631H6.82625H6.85619H6.88613H6.91607H6.94601H6.97595H7.00589H7.03583H7.06577H7.09571H7.12565H7.15559H7.18553H7.21547H7.24541H7.27535H7.30529H7.33523H7.36517H7.39511H7.42505H7.45499H7.48493H7.51487H7.54481H7.57475H7.60469H7.63463H7.66457H7.69451H7.72445H7.75439H7.78433H7.81427H7.8442H7.87414H7.90408H7.93402H7.96396H7.9939H8.02384H8.05378H8.08372H8.11366H8.1436H8.17354H8.20348H8.23342L8.23352 8.62112Z" fill="black"/>
<path d="M11.3474 13.4714L11.3773 13.4415H11.4072H11.4371L11.4372 13.4414L11.4671 13.4116H11.497H11.527L11.5271 13.4115L11.5569 13.3816H11.5868L11.5869 13.3816L11.6168 13.3517L11.6169 13.3516L11.6467 13.3218L11.6468 13.3217L11.6767 13.2918L11.6768 13.2917L11.7066 13.2619L11.7067 13.2618L11.7365 13.2319L11.7366 13.2319L11.7665 13.202L11.7666 13.2019L11.7964 13.1721L11.7965 13.172L11.8264 13.1421L11.8265 13.142L11.8563 13.1122L11.8564 13.1121L11.8862 13.0823L11.8863 13.0822L11.9162 13.0523L11.9163 13.0522L11.9461 13.0224L11.9462 13.0223L11.9761 12.9924L11.9762 12.9923L12.006 12.9625L12.0061 12.9624L12.0359 12.9326L12.036 12.9325L12.0659 12.9026L12.066 12.9025L12.0958 12.8727L12.0959 12.8726L12.1258 12.8427L12.1259 12.8426L12.1557 12.8128L12.1558 12.8127L12.1856 12.7829L12.1857 12.7828L12.2156 12.7529L12.2157 12.7528L12.2455 12.723L12.2456 12.7229L12.2755 12.693L12.2756 12.6929L12.3054 12.6631L12.3055 12.663L12.3353 12.6332L12.3354 12.6331V12.6031L12.3653 12.5733H12.3952L12.3953 12.5732V12.5432L12.4252 12.5134L12.4253 12.5133L12.4551 12.4835L12.4552 12.4834L12.485 12.4535L12.4851 12.4534L12.515 12.4236L12.5151 12.4235L12.5449 12.3936L12.545 12.3935L12.5749 12.3637L12.575 12.3636L12.6048 12.3338L12.6049 12.3337L12.6347 12.3038L12.6348 12.3037L12.6647 12.2739H12.6946L12.6947 12.2738V12.2438L12.7246 12.214H12.7545L12.7546 12.2139V12.184L12.7844 12.1541L12.7845 12.154L12.8144 12.1242L12.8145 12.1241L12.8443 12.0942L12.8444 12.0941L12.8743 12.0643L12.8743 12.0642L12.9042 12.0344L12.9043 12.0343L12.9341 12.0044L12.9342 12.0043L12.9641 11.9745L12.9642 11.9744L12.994 11.9445L12.9941 11.9444L13.024 11.9146L13.024 11.9145L13.0539 11.8847L13.054 11.8846L13.0838 11.8547L13.0839 11.8546L13.1138 11.8248L13.1139 11.8247L13.1437 11.7948L13.1438 11.7947L13.1737 11.7649L13.1737 11.7648L13.2036 11.735L13.2037 11.7349L13.2335 11.705L13.2336 11.7049L13.2635 11.6751L13.2636 11.675L13.2934 11.6451L13.2935 11.645L13.3234 11.6152L13.3234 11.6151L13.3533 11.5853L13.3534 11.5852L13.3832 11.5553L13.3833 11.5552L13.4132 11.5254L13.4133 11.5253L13.4431 11.4954L13.4432 11.4953V11.4654L13.4731 11.4356L13.4731 11.4355V11.4055L13.503 11.3757L13.5031 11.3756V11.3456V11.3157V11.2858V11.2558V11.2259V11.1959L13.503 11.1959L13.4731 11.166V11.1361V11.1061L13.4731 11.106L13.4432 11.0762L13.4431 11.0761L13.4133 11.0462L13.4132 11.0462L13.3833 11.0163V10.9864L13.3832 10.9863L13.3534 10.9564L13.3533 10.9563L13.3234 10.9265L13.3234 10.9264H13.2934L13.2636 10.8965L13.2635 10.8965L13.2336 10.8666L13.2335 10.8665L13.2037 10.8367L13.2036 10.8366L13.1737 10.8067L13.1737 10.8066L13.1438 10.7768L13.1437 10.7767L13.1139 10.7468L13.1138 10.7468L13.0839 10.7169L13.0838 10.7168L13.054 10.687L13.0539 10.6869L13.024 10.657L13.024 10.6569L12.9941 10.6271L12.994 10.627L12.9642 10.5972L12.9641 10.5971L12.9342 10.5672L12.9341 10.5671L12.9043 10.5373L12.9042 10.5372L12.8743 10.5073L12.8743 10.5072L12.8444 10.4774L12.8443 10.4773L12.8145 10.4475L12.8144 10.4474L12.7845 10.4175L12.7844 10.4174L12.7546 10.3876L12.7545 10.3875L12.7247 10.3576L12.7246 10.3575L12.6947 10.3277L12.6946 10.3276L12.6648 10.2978L12.6647 10.2977L12.6348 10.2678L12.6347 10.2677L12.6049 10.2379L12.6048 10.2378L12.575 10.2079L12.5749 10.2078L12.545 10.178L12.5449 10.1779L12.5151 10.1481L12.515 10.148L12.4851 10.1181L12.485 10.118L12.4552 10.0882L12.4551 10.0881L12.4253 10.0582L12.4252 10.0581L12.3953 10.0283L12.3952 10.0282L12.3654 9.99835L12.3653 9.99826L12.3354 9.96841L12.3353 9.96832L12.3055 9.93847L12.3054 9.93838L12.2756 9.90853L12.2755 9.90844L12.2456 9.87859L12.2455 9.8785L12.2157 9.84865L12.2156 9.84856L12.1857 9.81871L12.1856 9.81862L12.1558 9.78877L12.1557 9.78868L12.1259 9.75883L12.1258 9.75874L12.0959 9.72889L12.0958 9.7288L12.066 9.69896L12.0659 9.69886L12.036 9.66902L12.0359 9.66892L12.0061 9.63908L12.006 9.63898L11.9762 9.60914L11.9761 9.60904L11.9462 9.5792L11.9461 9.5791L11.9163 9.54926L11.9162 9.54916L11.8863 9.51932L11.8862 9.51922L11.8564 9.48938L11.8563 9.48928L11.8265 9.45944L11.8264 9.45934L11.7965 9.4295L11.7964 9.4294L11.7666 9.39956L11.7665 9.39946L11.7366 9.36962L11.7365 9.36952L11.7067 9.33968L11.7066 9.33958L11.6768 9.30974L11.6767 9.30964L11.6468 9.2798L11.6467 9.2797L11.6169 9.24986L11.6168 9.24976L11.5869 9.21992L11.5868 9.21982H11.5569L11.5271 9.18998L11.527 9.18988H11.497L11.4672 9.16004L11.4671 9.15994H11.4371H11.4072L11.3774 9.1301L11.3773 9.13H11.3473H11.3174H11.2874H11.2575H11.2276H11.1976H11.1677H11.1377H11.1078H11.0779H11.0479H11.018H10.988H10.9581H10.9282H10.8982H10.8683H10.8383H10.8084H10.7785H10.7485H10.7186H10.6886H10.6587H10.6288H10.5988H10.5689H10.5389H10.509H10.4791H10.4491H10.4192H10.3892H10.3593H10.3294H10.2994H10.2695H10.2395H10.2096H10.1797H10.1497H10.1198H10.0899H10.0599H10.03H10H9.97009H9.94015H9.91021H9.88027H9.85033H9.82039H9.79045H9.76051H9.73057H9.70063H9.67069H9.64075H9.61081H9.58087H9.55093H9.52099H9.49105H9.46111H9.43117H9.40123H9.37129H9.34135H9.31141H9.28147H9.25153H9.2216H9.19166H9.16172H9.13178H9.10184H9.0719H9.04196H9.01202H8.98208H8.95214H8.9222H8.89226H8.86232H8.83238H8.80244H8.7725H8.74256H8.71262H8.68268H8.65274H8.6228H8.59286H8.56292H8.53298H8.50304H8.4731H8.44316H8.41322H8.38328H8.35334H8.3234H8.29346H8.26352H8.23358H8.20364H8.1737H8.14376H8.11382H8.08388H8.05394H8.024H7.99406H7.96412H7.93418H7.90424H7.8743H7.84436H7.81442H7.78448H7.75454H7.7246H7.69466H7.66472H7.63478H7.60484H7.5749H7.54496H7.51502H7.48508H7.45514H7.4252H7.39526H7.36532H7.33538H7.30544H7.2755H7.24556H7.21563H7.18569H7.15575H7.12581H7.09587H7.06593H7.03599H7.00605H6.97611H6.94617H6.91623H6.88629H6.85635H6.82641H6.79647H6.76653H6.73659H6.70665H6.67671H6.64677H6.61683H6.58689H6.55695H6.52701H6.49707H6.46713H6.43719H6.40725H6.37731H6.34737H6.31743H6.28749H6.25755H6.22761H6.19767H6.16773H6.13779H6.10785H6.07791H6.04797H6.01803H5.98809H5.95815H5.92821H5.89827H5.86833H5.83839H5.80845H5.77851H5.74857H5.71863H5.68869H5.65875H5.62881H5.59887H5.56893H5.53899H5.50905H5.47911H5.44917H5.41923H5.38929H5.35935H5.32941H5.29947H5.26954H5.2396H5.20966H5.17972H5.14978H5.11984H5.0899H5.05996H5.03002H5.00008H4.97014H4.9402H4.91026H4.88032H4.85038H4.82044H4.7905H4.76056H4.73062H4.70068H4.67074H4.6408H4.61086H4.58092H4.55098H4.52104H4.4911H4.46116H4.43122H4.40128H4.37134H4.3414H4.31146H4.28152H4.25158H4.22164H4.1917H4.16176H4.13182H4.10188H4.07194H4.042H4.01206H3.98212H3.95218H3.92224H3.8923H3.86236H3.83242H3.80248H3.77254H3.7426H3.71266H3.68272H3.65278H3.62284H3.5929H3.56296H3.53302H3.50308H3.47314H3.4432H3.41326H3.38332H3.35339H3.32345H3.29351H3.26357H3.23363H3.20369H3.17375H3.14381H3.11387H3.08393H3.05399H3.02405H2.99411H2.96417H2.93423H2.90429H2.87435H2.84441H2.81447H2.78453H2.75459H2.72465H2.69471H2.66477H2.63483H2.60489H2.57495H2.54501H2.51507H2.48513H2.45519H2.42525H2.39531H2.36537H2.33543H2.30549H2.27555H2.24561H2.21567H2.18573H2.15579H2.12585H2.09591H2.06597H2.03603H2.00609H1.97615H1.94621H1.91627H1.88633H1.85639H1.82645H1.79651H1.76657H1.73663H1.70669H1.67675H1.64681H1.61687L1.61678 9.1301L1.58693 9.15994H1.55699H1.52705L1.52696 9.16004L1.49711 9.18988L1.49702 9.18998L1.46717 9.21982H1.43723L1.43714 9.21992L1.4073 9.24976L1.4072 9.24986L1.37736 9.2797L1.37726 9.2798V9.30974L1.34742 9.33958L1.34732 9.33968V9.36962L1.31748 9.39946L1.31738 9.39956V9.4295V9.45944V9.48938V9.51932V9.54926V9.5792V9.60914V9.63908V9.66902V9.69896V9.72889V9.75883V9.78877V9.81871V9.84865V9.87859V9.90853V9.93847V9.96841V9.99835V10.0283V10.0582V10.0882V10.1181V10.1481V10.178V10.2079V10.2379V10.2678V10.2978V10.3277V10.3576V10.3876V10.4175V10.4475V10.4774V10.5073V10.5373V10.5672V10.5972V10.6271V10.657V10.687V10.7169V10.7468V10.7768V10.8067V10.8367V10.8666V10.8965V10.9265V10.9564V10.9864V11.0163V11.0462V11.0762V11.1061V11.1361V11.166V11.1959V11.2259V11.2558V11.2858V11.3157V11.3456V11.3756V11.4055V11.4355V11.4654V11.4953V11.5253V11.5552V11.5852V11.6151V11.645V11.675V11.7049V11.7349V11.7648V11.7947V11.8247V11.8546V11.8846V11.9145V11.9444V11.9744V12.0043V12.0343V12.0642V12.0941V12.1241V12.154V12.184V12.2139V12.2438V12.2738V12.3037V12.3337V12.3636V12.3935V12.4235V12.4534V12.4834V12.5133V12.5432V12.5732V12.6031V12.6331V12.663V12.6929V12.7229V12.7528V12.7828V12.8127V12.8426V12.8726V12.9025V12.9325V12.9624V12.9923V13.0223V13.0522V13.0822V13.1121V13.142V13.172L1.31748 13.1721L1.34732 13.2019V13.2319V13.2618L1.34742 13.2619L1.37726 13.2917L1.37736 13.2918L1.4072 13.3217L1.4073 13.3218L1.43714 13.3516L1.43723 13.3517L1.46708 13.3816L1.46717 13.3816L1.49702 13.4115L1.49711 13.4116H1.52705L1.5569 13.4414L1.55699 13.4415H1.58693H1.61687L1.64672 13.4714L1.64681 13.4715H1.67675H1.70669H1.73663H1.76657H1.79651H1.82645H1.85639H1.88633H1.91627H1.94621H1.97615H2.00609H2.03603H2.06597H2.09591H2.12585H2.15579H2.18573H2.21567H2.24561H2.27555H2.30549H2.33543H2.36537H2.39531H2.42525H2.45519H2.48513H2.51507H2.54501H2.57495H2.60489H2.63483H2.66477H2.69471H2.72465H2.75459H2.78453H2.81447H2.84441H2.87435H2.90429H2.93423H2.96417H2.99411H3.02405H3.05399H3.08393H3.11387H3.14381H3.17375H3.20369H3.23363H3.26357H3.29351H3.32345H3.35339H3.38332H3.41326H3.4432H3.47314H3.50308H3.53302H3.56296H3.5929H3.62284H3.65278H3.68272H3.71266H3.7426H3.77254H3.80248H3.83242H3.86236H3.8923H3.92224H3.95218H3.98212H4.01206H4.042H4.07194H4.10188H4.13182H4.16176H4.1917H4.22164H4.25158H4.28152H4.31146H4.3414H4.37134H4.40128H4.43122H4.46116H4.4911H4.52104H4.55098H4.58092H4.61086H4.6408H4.67074H4.70068H4.73062H4.76056H4.7905H4.82044H4.85038H4.88032H4.91026H4.9402H4.97014H5.00008H5.03002H5.05996H5.0899H5.11984H5.14978H5.17972H5.20966H5.2396H5.26954H5.29947H5.32941H5.35935H5.38929H5.41923H5.44917H5.47911H5.50905H5.53899H5.56893H5.59887H5.62881H5.65875H5.68869H5.71863H5.74857H5.77851H5.80845H5.83839H5.86833H5.89827H5.92821H5.95815H5.98809H6.01803H6.04797H6.07791H6.10785H6.13779H6.16773H6.19767H6.22761H6.25755H6.28749H6.31743H6.34737H6.37731H6.40725H6.43719H6.46713H6.49707H6.52701H6.55695H6.58689H6.61683H6.64677H6.67671H6.70665H6.73659H6.76653H6.79647H6.82641H6.85635H6.88629H6.91623H6.94617H6.97611H7.00605H7.03599H7.06593H7.09587H7.12581H7.15575H7.18569H7.21563H7.24556H7.2755H7.30544H7.33538H7.36532H7.39526H7.4252H7.45514H7.48508H7.51502H7.54496H7.5749H7.60484H7.63478H7.66472H7.69466H7.7246H7.75454H7.78448H7.81442H7.84436H7.8743H7.90424H7.93418H7.96412H7.99406H8.024H8.05394H8.08388H8.11382H8.14376H8.1737H8.20364H8.23358H8.26352H8.29346H8.3234H8.35334H8.38328H8.41322H8.44316H8.4731H8.50304H8.53298H8.56292H8.59286H8.6228H8.65274H8.68268H8.71262H8.74256H8.7725H8.80244H8.83238H8.86232H8.89226H8.9222H8.95214H8.98208H9.01202H9.04196H9.0719H9.10184H9.13178H9.16172H9.19166H9.2216H9.25153H9.28147H9.31141H9.34135H9.37129H9.40123H9.43117H9.46111H9.49105H9.52099H9.55093H9.58087H9.61081H9.64075H9.67069H9.70063H9.73057H9.76051H9.79045H9.82039H9.85033H9.88027H9.91021H9.94015H9.97009H10H10.03H10.0599H10.0899H10.1198H10.1497H10.1797H10.2096H10.2395H10.2695H10.2994H10.3294H10.3593H10.3892H10.4192H10.4491H10.4791H10.509H10.5389H10.5689H10.5988H10.6288H10.6587H10.6886H10.7186H10.7485H10.7785H10.8084H10.8383H10.8683H10.8982H10.9282H10.9581H10.988H11.018H11.0479H11.0779H11.1078H11.1377H11.1677H11.1976H11.2276H11.2575H11.2874H11.3174H11.3473L11.3474 13.4714Z" fill="black"/>
<path d="M19.8204 21.7946L19.8502 21.7648H19.8801H19.9101L19.9102 21.7647L19.94 21.7349L19.9401 21.7348L19.97 21.7049L19.9701 21.7048V21.6749L19.9999 21.645L20 21.6449V21.615V21.5851V21.5551V21.5252V21.4952V21.4653V21.4354L19.9999 21.4353L19.9701 21.4054L19.97 21.4053L19.9401 21.3755L19.94 21.3754L19.9102 21.3455V21.3156L19.9101 21.3155L19.8802 21.2857L19.8801 21.2856L19.8503 21.2557L19.8502 21.2556L19.8204 21.2258L19.8203 21.2257L19.7904 21.1958V21.1659L19.7903 21.1658L19.7605 21.136L19.7604 21.1359L19.7305 21.106L19.7304 21.1059L19.7006 21.0761V21.0461L19.7005 21.0461L19.6707 21.0162L19.6706 21.0161L19.6407 20.9863V20.9563L19.6406 20.9562L19.6108 20.9264L19.6107 20.9263L19.5808 20.8964L19.5807 20.8964L19.5509 20.8665V20.8366L19.5508 20.8365L19.521 20.8066L19.5209 20.8065L19.491 20.7767L19.4909 20.7766L19.4611 20.7467V20.7168L19.461 20.7167L19.4311 20.6869L19.4311 20.6868L19.4012 20.6569V20.627L19.4011 20.6269L19.3713 20.597L19.3712 20.597L19.3413 20.5671L19.3412 20.567L19.3114 20.5372V20.5072L19.3113 20.5071L19.2814 20.4773L19.2814 20.4772L19.2515 20.4473L19.2514 20.4473L19.2216 20.4174V20.3875L19.2215 20.3874L19.1916 20.3575L19.1915 20.3574L19.1617 20.3276V20.2976L19.1616 20.2976L19.1317 20.2677L19.1317 20.2676L19.1018 20.2378L19.1017 20.2377L19.0719 20.2078V20.1779L19.0718 20.1778L19.0419 20.1479L19.0418 20.1479L19.012 20.118L19.0119 20.1179L18.982 20.0881V20.0581L18.982 20.058L18.9521 20.0282L18.952 20.0281L18.9222 19.9982L18.9221 19.9982L18.8922 19.9683V19.9384L18.8921 19.9383L18.8623 19.9084L18.8622 19.9083L18.8323 19.8785V19.8485L18.8323 19.8485L18.8024 19.8186L18.8023 19.8185L18.7725 19.7887L18.7724 19.7886L18.7425 19.7587V19.7288L18.7424 19.7287L18.7126 19.6989L18.7125 19.6988L18.6826 19.6689V19.639L18.6826 19.6389L18.6527 19.609L18.6526 19.6089L18.6228 19.5791L18.6227 19.579L18.5928 19.5492V19.5192L18.5927 19.5191L18.5629 19.4893L18.5628 19.4892L18.5329 19.4593L18.5329 19.4592L18.503 19.4294V19.3995L18.5029 19.3994L18.4731 19.3695L18.473 19.3694L18.4431 19.3396L18.443 19.3395L18.4132 19.3096V19.2797L18.4131 19.2796L18.3832 19.2498L18.3832 19.2497L18.3533 19.2198V19.1899L18.3532 19.1898L18.3234 19.1599L18.3233 19.1598L18.2934 19.13L18.2933 19.1299L18.2635 19.1001V19.0701L18.2634 19.07L18.2335 19.0402L18.2335 19.0401L18.2036 19.0102L18.2035 19.0101L18.1737 18.9803V18.9504L18.1736 18.9503L18.1437 18.9204L18.1436 18.9203L18.1138 18.8905V18.8605L18.1137 18.8604L18.0839 18.8306L18.0838 18.8305L18.0539 18.8007V18.7707L18.0838 18.7409L18.0839 18.7408L18.1137 18.7109H18.1436H18.1736L18.2034 18.7408L18.2035 18.7409L18.2036 18.7408L18.2335 18.7109H18.2634H18.2933H18.3233H18.3532H18.3832H18.4131H18.443H18.473H18.5029H18.5329H18.5628H18.5927H18.6227H18.6526H18.6826H18.7125H18.7424H18.7724H18.8023H18.8323H18.8622H18.8921H18.9221H18.952H18.982H19.0119H19.0418H19.0718H19.1017H19.1317H19.1616H19.1915H19.2215H19.2514H19.2814L19.2814 18.7108L19.3113 18.681H19.3412H19.3712H19.4011H19.4311L19.4311 18.6809L19.461 18.651L19.4611 18.651L19.4909 18.6211L19.491 18.621V18.5911L19.5209 18.5612L19.521 18.5611V18.5312L19.5508 18.5014L19.5509 18.5013V18.4713V18.4414V18.4114L19.5508 18.4113L19.521 18.3815L19.5209 18.3814L19.491 18.3516V18.3216L19.4909 18.3215L19.4611 18.2917L19.461 18.2916L19.4311 18.2617V18.2318L19.4311 18.2317L19.4012 18.2019L19.4011 18.2018L19.3713 18.1719V18.142L19.3712 18.1419L19.3413 18.112L19.3412 18.1119L19.3114 18.0821L19.3113 18.082L19.2814 18.0522V18.0222L19.2814 18.0221L19.2515 17.9923L19.2514 17.9922L19.2216 17.9623V17.9324L19.2215 17.9323L19.1916 17.9025L19.1915 17.9024L19.1617 17.8725V17.8426L19.1616 17.8425L19.1317 17.8126L19.1317 17.8125L19.1018 17.7827V17.7528L19.1017 17.7527L19.0719 17.7228L19.0718 17.7227L19.0419 17.6929L19.0418 17.6928L19.012 17.6629V17.633L19.0119 17.6329L18.982 17.6031L18.982 17.603L18.9521 17.5731V17.5432L18.952 17.5431L18.9222 17.5132L18.9221 17.5131L18.8922 17.4833V17.4534L18.8921 17.4533L18.8623 17.4234L18.8622 17.4233L18.8323 17.3935L18.8323 17.3934L18.8024 17.3635V17.3336L18.8023 17.3335L18.7725 17.3037L18.7724 17.3036L18.7425 17.2737V17.2438L18.7424 17.2437L18.7126 17.2138L18.7125 17.2138L18.6826 17.1839V17.154L18.6826 17.1539L18.6527 17.124L18.6526 17.1239L18.6228 17.0941V17.0641L18.6227 17.0641L18.5928 17.0342L18.5927 17.0341L18.5629 17.0043V16.9743L18.5628 16.9742L18.5329 16.9444L18.5329 16.9443L18.503 16.9144L18.5029 16.9144L18.4731 16.8845V16.8546L18.473 16.8545L18.4431 16.8246L18.443 16.8245L18.4132 16.7947V16.7647L18.4131 16.7647L18.3832 16.7348L18.3832 16.7347L18.3533 16.7049V16.6749L18.3532 16.6748L18.3234 16.645L18.3233 16.6449L18.2934 16.615V16.5851L18.2933 16.585L18.2635 16.5552L18.2634 16.5551L18.2335 16.5252V16.4953L18.2335 16.4952L18.2036 16.4653L18.2035 16.4653L18.1737 16.4354L18.1736 16.4353L18.1437 16.4055V16.3755L18.1436 16.3754L18.1138 16.3456L18.1137 16.3455L18.0839 16.3156V16.2857L18.0838 16.2856L18.0539 16.2558L18.0538 16.2557L18.024 16.2258V16.1959L18.0239 16.1958L17.994 16.1659L17.9939 16.1659L17.9641 16.136L17.964 16.1359L17.9342 16.1061V16.0761L17.9341 16.076L17.9042 16.0462L17.9041 16.0461L17.8743 16.0163V15.9863L17.8742 15.9862L17.8443 15.9564L17.8442 15.9563L17.8144 15.9264V15.8965L17.8143 15.8964L17.7845 15.8666L17.7844 15.8665L17.7545 15.8366L17.7544 15.8365L17.7246 15.8067V15.7767L17.7245 15.7766L17.6946 15.7468L17.6945 15.7467L17.6647 15.7169V15.6869L17.6646 15.6868L17.6348 15.657L17.6347 15.6569L17.6048 15.627V15.5971L17.6047 15.597L17.5749 15.5672L17.5748 15.5671L17.5449 15.5372V15.5073L17.5448 15.5072L17.515 15.4773L17.5149 15.4772L17.4851 15.4474L17.485 15.4473L17.4551 15.4175V15.3875L17.455 15.3874L17.4252 15.3576L17.4251 15.3575L17.3952 15.3276V15.2977L17.3951 15.2976L17.3653 15.2678L17.3652 15.2677L17.3354 15.2378L17.3353 15.2377L17.3054 15.2079L17.3353 15.178L17.3354 15.1779L17.3652 15.1481H17.3951H17.4251H17.455H17.485H17.5149H17.5448H17.5748H17.6047H17.6347H17.6646H17.6945H17.7245H17.7544H17.7844H17.8143H17.8442H17.8742L17.8743 15.148L17.9041 15.1181H17.9341H17.964H17.9939H18.0239H18.0538H18.0838H18.1137H18.1436H18.1736H18.2035H18.2335H18.2634H18.2933H18.3233H18.3532H18.3832L18.3832 15.1181L18.4131 15.0882H18.443H18.473H18.5029L18.503 15.0881L18.5329 15.0583H18.5628L18.5629 15.0582V15.0282L18.5927 14.9984L18.5928 14.9983V14.9684V14.9384V14.9085V14.8785V14.8486V14.8187V14.7887L18.5927 14.7886L18.5629 14.7588V14.7288L18.5628 14.7287L18.5329 14.6989L18.5329 14.6988L18.503 14.669L18.5029 14.6689L18.4731 14.639V14.6091L18.473 14.609L18.4431 14.5791L18.443 14.579L18.4132 14.5492V14.5193L18.4131 14.5192L18.3832 14.4893L18.3832 14.4892L18.3533 14.4594V14.4294L18.3532 14.4293L18.3234 14.3995L18.3233 14.3994L18.2934 14.3696L18.2933 14.3695L18.2635 14.3396V14.3097L18.2634 14.3096L18.2335 14.2797L18.2335 14.2796L18.2036 14.2498V14.2199L18.2035 14.2198L18.1737 14.1899L18.1736 14.1898L18.1437 14.16V14.13L18.1436 14.1299L18.1138 14.1001L18.1137 14.1L18.0839 14.0702V14.0402L18.0838 14.0401L18.0539 14.0103L18.0538 14.0102L18.024 13.9803L18.0239 13.9802L17.994 13.9504V13.9205L17.9939 13.9204L17.9641 13.8905L17.964 13.8904L17.9342 13.8606V13.8306L17.9341 13.8305L17.9042 13.8007L17.9041 13.8006L17.8743 13.7708V13.7408L17.8742 13.7407L17.8443 13.7109L17.8442 13.7108L17.8144 13.6809L17.8143 13.6808L17.7845 13.651V13.6211L17.7844 13.621L17.7545 13.5911L17.7544 13.591L17.7246 13.5612V13.5312L17.7245 13.5312L17.6946 13.5013L17.6945 13.5012L17.6647 13.4714V13.4414L17.6646 13.4413L17.6348 13.4115L17.6347 13.4114L17.6048 13.3815L17.6047 13.3815L17.5749 13.3516V13.3217L17.5748 13.3216L17.5449 13.2917L17.5448 13.2916L17.515 13.2618V13.2318L17.5149 13.2318L17.4851 13.2019L17.485 13.2018L17.4551 13.172V13.142L17.455 13.1419L17.4252 13.1121L17.4251 13.112L17.3952 13.0821V13.0522L17.3951 13.0521L17.3653 13.0223L17.3652 13.0222L17.3354 12.9923V12.9624L17.3353 12.9623L17.3054 12.9324L17.3053 12.9324L17.2755 12.9025L17.2754 12.9024L17.2455 12.8726V12.8426L17.2454 12.8425L17.2156 12.8127L17.2155 12.8126L17.1857 12.7827V12.7528L17.1856 12.7527L17.1557 12.7229L17.1556 12.7228L17.1258 12.6929V12.663L17.1257 12.6629L17.0958 12.633L17.0957 12.633L17.0659 12.6031V12.5732L17.0658 12.5731L17.036 12.5432L17.0359 12.5431L17.006 12.5133L17.0059 12.5132L16.9761 12.4833V12.4534L16.976 12.4533L16.9461 12.4235L16.946 12.4234L16.9162 12.3935V12.3636L16.9161 12.3635L16.8863 12.3337L16.8862 12.3336L16.8563 12.3037V12.2738L16.8562 12.2737L16.8264 12.2438L16.8263 12.2437L16.7964 12.2139L16.7963 12.2138L16.7665 12.184V12.154L16.7664 12.1539L16.7366 12.1241L16.7365 12.124L16.7066 12.0941V12.0642L16.7065 12.0641L16.6767 12.0343L16.6766 12.0342L16.6467 12.0043V11.9744L16.6466 11.9743L16.6168 11.9444L16.6167 11.9443L16.5869 11.9145V11.8846L16.5868 11.8845L16.5569 11.8546L16.5568 11.8545L16.527 11.8247L16.5269 11.8246L16.497 11.7947V11.7648L16.4969 11.7647L16.4671 11.7349L16.467 11.7348L16.4372 11.7049V11.675L16.4371 11.6749L16.4072 11.645L16.4071 11.6449L16.3773 11.6151L16.3772 11.615L16.3473 11.5852V11.5552L16.3472 11.5551L16.3174 11.5253L16.3173 11.5252L16.2875 11.4953V11.4654L16.2874 11.4653L16.2575 11.4355L16.2574 11.4354L16.2276 11.4055V11.3756L16.2275 11.3755L16.1976 11.3456L16.1975 11.3455L16.1677 11.3157L16.1676 11.3156L16.1378 11.2858V11.2558L16.1377 11.2557L16.1078 11.2259L16.1077 11.2258L16.0779 11.1959L16.0778 11.1958L16.0479 11.166L16.0478 11.1659H16.0179L15.9881 11.1361L15.988 11.136H15.958H15.9281H15.8981H15.8682H15.8383H15.8083H15.7784L15.7783 11.1361L15.7484 11.1659H15.7185L15.7184 11.166L15.6886 11.1958L15.6885 11.1959L15.6586 11.2258L15.6585 11.2259V11.2558L15.6287 11.2857L15.6286 11.2858L15.5988 11.3156L15.5987 11.3157V11.3456L15.5688 11.3755L15.5687 11.3756L15.5389 11.4054L15.5388 11.4055V11.4355L15.5089 11.4653L15.5088 11.4654L15.479 11.4952L15.4789 11.4953L15.4491 11.5252L15.449 11.5253V11.5552L15.4191 11.5851L15.419 11.5852L15.3892 11.615L15.3891 11.6151V11.645L15.3592 11.6749L15.3591 11.675L15.3293 11.7048L15.3292 11.7049V11.7349L15.2994 11.7647L15.2993 11.7648L15.2694 11.7946L15.2693 11.7947V11.8247L15.2395 11.8545L15.2394 11.8546L15.2095 11.8845L15.2094 11.8846V11.9145L15.1796 11.9443L15.1795 11.9444L15.1497 11.9743L15.1496 11.9744L15.1197 12.0042L15.1196 12.0043V12.0343L15.0898 12.0641L15.0897 12.0642L15.0598 12.094L15.0597 12.0941V12.1241L15.0299 12.1539L15.0298 12.154L15 12.1839L14.9999 12.184V12.2139L14.97 12.2437L14.9699 12.2438L14.9401 12.2737L14.94 12.2738L14.9101 12.3036L14.91 12.3037V12.3337L14.8802 12.3635L14.8801 12.3636L14.8503 12.3934L14.8502 12.3935V12.4235L14.8203 12.4533L14.8202 12.4534L14.7904 12.4833L14.7903 12.4833V12.5133L14.7604 12.5431L14.7603 12.5432L14.7305 12.5731L14.7304 12.5732L14.7006 12.603L14.7005 12.6031V12.633L14.6706 12.6629L14.6705 12.663V12.6929L14.6407 12.7228L14.6406 12.7229L14.6107 12.7527L14.6106 12.7528L14.5808 12.7827L14.5807 12.7827V12.8127L14.5509 12.8425L14.5508 12.8426L14.5209 12.8725L14.5208 12.8726V12.9025L14.491 12.9324L14.4909 12.9324L14.461 12.9623L14.4609 12.9624V12.9923L14.4311 13.0222L14.431 13.0223L14.4012 13.0521L14.4011 13.0522L14.3712 13.0821L14.3711 13.0821V13.1121L14.3413 13.1419L14.3412 13.142L14.3113 13.1719L14.3112 13.172V13.2019L14.2814 13.2318L14.2813 13.2318L14.2515 13.2617L14.2514 13.2618V13.2917L14.2215 13.3216L14.2214 13.3217L14.1916 13.3515L14.1915 13.3516V13.3815L14.1616 13.4114L14.1615 13.4115L14.1317 13.4413L14.1316 13.4414L14.1018 13.4713L14.1017 13.4714V13.5013L14.0718 13.5312L14.0717 13.5312L14.0419 13.5611L14.0418 13.5612V13.5911L14.0119 13.621L14.0118 13.6211L13.982 13.6509L13.9819 13.651V13.6809L13.9521 13.7108L13.952 13.7109L13.9221 13.7407L13.922 13.7408V13.7708L13.8922 13.8006L13.8921 13.8007L13.8622 13.8305L13.8621 13.8306L13.8323 13.8605L13.8322 13.8606V13.8905L13.8024 13.9204L13.8023 13.9205L13.7724 13.9503L13.7723 13.9504V13.9803L13.7425 14.0102L13.7424 14.0103L13.7125 14.0401L13.7124 14.0402V14.0702L13.6826 14.1L13.6825 14.1001L13.6527 14.1299L13.6526 14.13V14.16L13.6227 14.1898L13.6226 14.1899L13.5928 14.2198L13.5927 14.2199L13.5628 14.2497L13.5627 14.2498V14.2797L13.5329 14.3096L13.5328 14.3097L13.503 14.3395L13.5029 14.3396V14.3696L13.473 14.3994L13.4729 14.3995L13.4431 14.4293L13.443 14.4294V14.4594L13.4131 14.4892L13.413 14.4893L13.3832 14.5192L13.3831 14.5193V14.5492L13.3533 14.579L13.3532 14.5791L13.3233 14.609L13.3232 14.6091L13.2934 14.6389L13.2933 14.639V14.669L13.2634 14.6988L13.2633 14.6989L13.2335 14.7287L13.2334 14.7288V14.7588L13.2036 14.7886L13.2035 14.7887V14.8187V14.8486V14.8785V14.9085V14.9384V14.9684V14.9983V15.0282L13.2036 15.0283L13.2334 15.0582L13.2335 15.0583L13.2633 15.0881L13.2634 15.0882H13.2934H13.3233H13.3533L13.3831 15.1181L13.3832 15.1181H13.4131H13.4431H13.473H13.503H13.5329H13.5628H13.5928H13.6227H13.6527H13.6826H13.7125H13.7425H13.7724H13.8024H13.8323L13.8621 15.148L13.8622 15.1481H13.8922H13.9221H13.9521H13.982H14.0119H14.0419H14.0718H14.1018H14.1317H14.1616H14.1916H14.2215H14.2515H14.2814H14.3113H14.3413H14.3712H14.4012H14.4311L14.4609 15.1779V15.2079L14.4311 15.2377L14.431 15.2378V15.2678L14.4012 15.2976L14.4011 15.2977L14.3712 15.3275L14.3711 15.3276V15.3576L14.3413 15.3874L14.3412 15.3875L14.3113 15.4174L14.3112 15.4175L14.2814 15.4473L14.2813 15.4474V15.4773L14.2515 15.5072L14.2514 15.5073L14.2215 15.5371L14.2214 15.5372V15.5672L14.1916 15.597L14.1915 15.5971L14.1616 15.6269L14.1615 15.627V15.657L14.1317 15.6868L14.1316 15.6869L14.1018 15.7168L14.1017 15.7169V15.7468L14.0718 15.7766L14.0717 15.7767L14.0419 15.8066L14.0418 15.8067L14.0119 15.8365L14.0118 15.8366V15.8666L13.982 15.8964L13.9819 15.8965L13.9521 15.9263L13.952 15.9264V15.9564L13.9221 15.9862L13.922 15.9863L13.8922 16.0162L13.8921 16.0163V16.0462L13.8622 16.076L13.8621 16.0761L13.8323 16.106L13.8322 16.1061V16.136L13.8024 16.1659L13.8023 16.1659L13.7724 16.1958L13.7723 16.1959L13.7425 16.2257L13.7424 16.2258V16.2558L13.7125 16.2856L13.7124 16.2857L13.6826 16.3156L13.6825 16.3156V16.3456L13.6527 16.3754L13.6526 16.3755L13.6227 16.4054L13.6226 16.4055V16.4354L13.5928 16.4653L13.5927 16.4653L13.5628 16.4952L13.5627 16.4953V16.5252L13.5329 16.5551L13.5328 16.5552L13.503 16.585L13.5029 16.5851L13.473 16.615L13.4729 16.615V16.645L13.4431 16.6748L13.443 16.6749L13.4131 16.7048L13.413 16.7049V16.7348L13.3832 16.7647L13.3831 16.7647L13.3533 16.7946L13.3532 16.7947V16.8246L13.3233 16.8545L13.3232 16.8546L13.2934 16.8844L13.2933 16.8845L13.2634 16.9144L13.2633 16.9144V16.9444L13.2335 16.9742L13.2334 16.9743L13.2036 17.0042L13.2035 17.0043V17.0342L13.1736 17.0641L13.1735 17.0641L13.1437 17.094L13.1436 17.0941V17.124L13.1137 17.1539L13.1137 17.154L13.0838 17.1838L13.0837 17.1839V17.2138L13.0539 17.2437L13.0538 17.2438L13.0239 17.2736L13.0238 17.2737V17.3037L12.994 17.3335L12.9939 17.3336L12.964 17.3635L12.964 17.3635L12.9341 17.3934L12.934 17.3935V17.4234L12.9042 17.4533L12.9041 17.4534L12.8742 17.4832L12.8741 17.4833V17.5132L12.8443 17.5431L12.8442 17.5432L12.8143 17.573L12.8143 17.5731V17.6031L12.7844 17.6329L12.7843 17.633L12.7545 17.6628L12.7544 17.6629V17.6929L12.7245 17.7227L12.7244 17.7228L12.6946 17.7527L12.6945 17.7528V17.7827L12.6646 17.8125L12.6646 17.8126L12.6347 17.8425L12.6346 17.8426L12.6048 17.8724L12.6047 17.8725V17.9025L12.5748 17.9323L12.5747 17.9324L12.5449 17.9622L12.5448 17.9623V17.9923L12.5149 18.0221L12.5149 18.0222L12.485 18.0521L12.4849 18.0522V18.0821L12.4551 18.1119L12.455 18.112L12.4251 18.1419L12.425 18.142L12.3952 18.1718L12.3951 18.1719V18.2019L12.3652 18.2317L12.3652 18.2318L12.3353 18.2616L12.3352 18.2617L12.3054 18.2916L12.3053 18.2917V18.3216L12.2754 18.3515L12.2753 18.3516V18.3815L12.2455 18.4113L12.2454 18.4114V18.4414V18.4713V18.5013L12.2455 18.5014L12.2753 18.5312V18.5611V18.5911L12.2754 18.5912L12.3053 18.621L12.3054 18.6211L12.3352 18.651L12.3353 18.651L12.3652 18.6809L12.3652 18.681H12.3952L12.425 18.7108L12.4251 18.7109H12.4551H12.485H12.5149H12.5449H12.5748H12.6048H12.6347H12.6646H12.6946H12.7245H12.7545H12.7844H12.8143H12.8443H12.8742H12.9042H12.9341H12.964H12.994H13.0239H13.0539H13.0838H13.1137H13.1437H13.1736H13.2036H13.2335H13.2634H13.2934H13.3233H13.3533H13.3832H13.4131H13.4431H13.473H13.503H13.5329L13.5627 18.7408L13.5628 18.7409H13.5928H13.6227H13.6527H13.6826H13.7125L13.7424 18.7707V18.8007V18.8306L13.7125 18.8604L13.7124 18.8605L13.6826 18.8904L13.6825 18.8905L13.6527 18.9203L13.6526 18.9204V18.9504L13.6227 18.9802L13.6226 18.9803L13.5928 19.0101L13.5927 19.0102V19.0402L13.5628 19.07L13.5627 19.0701L13.5329 19.1L13.5328 19.1001L13.503 19.1299L13.5029 19.13V19.1599L13.473 19.1898L13.4729 19.1899L13.4431 19.2197L13.443 19.2198V19.2498L13.4131 19.2796L13.413 19.2797L13.3832 19.3095L13.3831 19.3096L13.3533 19.3395L13.3532 19.3396V19.3695L13.3233 19.3994L13.3232 19.3995L13.2934 19.4293L13.2933 19.4294L13.2634 19.4592L13.2633 19.4593V19.4893L13.2335 19.5191L13.2334 19.5192L13.2036 19.5491L13.2035 19.5492L13.1736 19.579L13.1735 19.5791V19.609L13.1437 19.6389L13.1436 19.639L13.1137 19.6688L13.1137 19.6689L13.0838 19.6988L13.0837 19.6989V19.7288L13.0539 19.7586L13.0538 19.7587L13.0239 19.7886L13.0238 19.7887L12.994 19.8185L12.9939 19.8186V19.8485L12.964 19.8784L12.964 19.8785L12.9341 19.9083L12.934 19.9084L12.9042 19.9383L12.9041 19.9384V19.9683L12.8742 19.9982L12.8741 19.9982L12.8443 20.0281L12.8442 20.0282L12.8143 20.058L12.8143 20.0581V20.0881L12.7844 20.1179L12.7843 20.118L12.7545 20.1479L12.7544 20.1479V20.1779L12.7245 20.2077L12.7244 20.2078L12.6946 20.2377L12.6945 20.2378L12.6646 20.2676L12.6646 20.2677V20.2976L12.6347 20.3275L12.6346 20.3276L12.6048 20.3574L12.6047 20.3575L12.5748 20.3874L12.5747 20.3875V20.4174L12.5449 20.4473L12.5448 20.4473L12.5149 20.4772L12.5149 20.4773L12.485 20.5071L12.4849 20.5072V20.5372L12.4551 20.567L12.455 20.5671L12.4251 20.597L12.425 20.597V20.627L12.3952 20.6568L12.3951 20.6569L12.3652 20.6868L12.3652 20.6869L12.3353 20.7167L12.3352 20.7168V20.7467L12.3054 20.7766L12.3053 20.7767L12.2754 20.8065L12.2753 20.8066V20.8366L12.2455 20.8664L12.2454 20.8665L12.2155 20.8964L12.2155 20.8964L12.1856 20.9263L12.1855 20.9264V20.9563L12.1557 20.9862L12.1556 20.9863L12.1257 21.0161L12.1256 21.0162L12.0958 21.0461L12.0957 21.0461V21.0761L12.0658 21.1059L12.0658 21.106L12.0359 21.1359L12.0358 21.136V21.1659L12.006 21.1957L12.0059 21.1958L11.976 21.2257L11.9759 21.2258L11.9461 21.2556L11.946 21.2557V21.2857L11.9161 21.3155L11.9161 21.3156L11.8862 21.3454L11.8861 21.3455L11.8563 21.3754L11.8562 21.3755L11.8263 21.4053L11.8262 21.4054L11.7964 21.4353L11.7963 21.4354V21.4653L11.7665 21.4951L11.7664 21.4952V21.5252V21.5551L11.7665 21.5552L11.7963 21.5851V21.615V21.6449V21.6749L11.7964 21.675L11.8262 21.7048V21.7348L11.8263 21.7349H11.8563L11.8861 21.7647L11.8862 21.7648H11.9161L11.946 21.7946L11.9461 21.7947H11.976H12.006H12.0359H12.0658H12.0958H12.1257H12.1557H12.1856H12.2155H12.2455H12.2754H12.3054H12.3353H12.3652H12.3952H12.4251H12.4551H12.485H12.5149H12.5449H12.5748H12.6048H12.6347H12.6646H12.6946H12.7245H12.7545H12.7844H12.8143H12.8443H12.8742H12.9042H12.9341H12.964H12.994H13.0239H13.0539H13.0838H13.1137H13.1437H13.1736H13.2036H13.2335H13.2634H13.2934H13.3233H13.3533H13.3832H13.4131H13.4431H13.473H13.503H13.5329H13.5628H13.5928H13.6227H13.6527H13.6826H13.7125H13.7425H13.7724H13.8024H13.8323H13.8622H13.8922H13.9221H13.9521H13.982H14.0119H14.0419H14.0718H14.1018H14.1317H14.1616H14.1916H14.2215H14.2515H14.2814H14.3113H14.3413H14.3712H14.4012H14.4311H14.461H14.491H14.5209H14.5509H14.5808H14.6107H14.6407H14.6706H14.7006H14.7305H14.7604H14.7904H14.8203H14.8503H14.8802H14.9101H14.9401H14.97H15H15.0299H15.0598H15.0898H15.1197H15.1497H15.1796H15.2095H15.2395H15.2694H15.2994H15.3293H15.3592H15.3892H15.4191H15.4491H15.479H15.5089H15.5389H15.5688H15.5988H15.6287H15.6586H15.6886H15.7185H15.7484H15.7784H15.8083H15.8383H15.8682H15.8981H15.9281H15.958H15.988H16.0179H16.0478H16.0778H16.1077H16.1377H16.1676H16.1975H16.2275H16.2574H16.2874H16.3173H16.3472H16.3772H16.4071H16.4371H16.467H16.4969H16.5269H16.5568H16.5868H16.6167H16.6466H16.6766H16.7065H16.7365H16.7664H16.7963H16.8263H16.8562H16.8862H16.9161H16.946H16.976H17.0059H17.0359H17.0658H17.0957H17.1257H17.1556H17.1856H17.2155H17.2454H17.2754H17.3053H17.3353H17.3652H17.3951H17.4251H17.455H17.485H17.5149H17.5448H17.5748H17.6047H17.6347H17.6646H17.6945H17.7245H17.7544H17.7844H17.8143H17.8442H17.8742H17.9041H17.9341H17.964H17.9939H18.0239H18.0538H18.0838H18.1137H18.1436H18.1736H18.2035H18.2335H18.2634H18.2933H18.3233H18.3532H18.3832H18.4131H18.443H18.473H18.5029H18.5329H18.5628H18.5927H18.6227H18.6526H18.6826H18.7125H18.7424H18.7724H18.8023H18.8323H18.8622H18.8921H18.9221H18.952H18.982H19.0119H19.0418H19.0718H19.1017H19.1317H19.1616H19.1915H19.2215H19.2514H19.2814H19.3113H19.3412H19.3712H19.4011H19.4311H19.461H19.4909H19.5209H19.5508H19.5807H19.6107H19.6406H19.6706H19.7005H19.7304H19.7604H19.7903H19.8203L19.8204 21.7946Z" fill="black"/>
<path d="M7.90418 24.4293L7.93402 24.3995H7.96396H7.9939L7.994 24.3994L8.02384 24.3696H8.05378L8.05388 24.3695L8.08372 24.3396H8.11366L8.11376 24.3395L8.1436 24.3097L8.1437 24.3096L8.17354 24.2797L8.17364 24.2796V24.2497L8.20348 24.2199L8.20358 24.2198V24.1898L8.23342 24.16L8.23352 24.1599V24.1299V24.1L8.26336 24.0702L8.26346 24.0701L8.26336 24.07L8.23352 24.0401V24.0102V23.9802V23.9503V23.9204V23.8904V23.8605V23.8305V23.8006L8.26336 23.7708L8.26346 23.7707L8.26336 23.7706L8.23352 23.7407V23.7108V23.6808V23.6509V23.621V23.591V23.5611L8.26336 23.5312L8.26346 23.5311V23.5012V23.4713V23.4413V23.4114V23.3815V23.3515V23.3216V23.2916V23.2617V23.2318V23.2018V23.1719V23.1419V23.112V23.0821V23.0521V23.0222V22.9922V22.9623V22.9324V22.9024V22.8725V22.8425V22.8126V22.7827V22.7527V22.7228V22.6928V22.6629V22.633V22.603V22.5731V22.5431V22.5132V22.4833V22.4533V22.4234V22.3934V22.3635V22.3336V22.3036V22.2737V22.2437V22.2138V22.1839V22.1539V22.124V22.094V22.0641V22.0342V22.0042V21.9743V21.9443V21.9144V21.8845V21.8545V21.8246V21.7946V21.7647V21.7348V21.7048V21.6749V21.6449V21.615V21.5851V21.5551V21.5252V21.4952V21.4653V21.4354V21.4054V21.3755V21.3455V21.3156V21.2857V21.2557V21.2258V21.1958V21.1659V21.136V21.106V21.0761V21.0461V21.0162V20.9863V20.9563V20.9264V20.8964V20.8665V20.8366V20.8066V20.7767V20.7467V20.7168V20.6869V20.6569V20.627V20.597V20.5671V20.5372V20.5072V20.4773V20.4473V20.4174V20.3875V20.3575V20.3276V20.2976V20.2677V20.2378V20.2078V20.1779V20.1479V20.118V20.0881V20.0581V20.0282V19.9982V19.9683V19.9384V19.9084V19.8785V19.8485V19.8186V19.7887V19.7587V19.7288V19.6989V19.6689V19.639V19.609V19.5791V19.5492V19.5192V19.4893V19.4593V19.4294V19.3995V19.3695V19.3396V19.3096V19.2797V19.2498V19.2198V19.1899V19.1599V19.13V19.1001V19.0701V19.0402V19.0102V18.9803V18.9504V18.9204V18.8905V18.8605V18.8306V18.8007V18.7707V18.7408V18.7108V18.6809V18.651V18.621V18.5911V18.5611V18.5312V18.5013V18.4713V18.4414V18.4114V18.3815V18.3516V18.3216V18.2917V18.2617V18.2318V18.2019V18.1719V18.142V18.112V18.0821V18.0522V18.0222V17.9923V17.9623V17.9324V17.9025V17.8725V17.8426V17.8126V17.7827V17.7528V17.7228V17.6929V17.6629V17.633V17.6031V17.5731V17.5432V17.5132V17.4833V17.4534V17.4234V17.3935V17.3635V17.3336V17.3037V17.2737V17.2438V17.2138V17.1839V17.154V17.124V17.0941V17.0641V17.0342V17.0043V16.9743V16.9444V16.9144V16.8845V16.8546V16.8246V16.7947V16.7647V16.7348V16.7049V16.6749V16.645V16.615V16.5851V16.5552V16.5252V16.4953V16.4653V16.4354V16.4055V16.3755V16.3456V16.3156V16.2857V16.2558V16.2258V16.1959V16.1659V16.136V16.1061V16.0761V16.0462V16.0162V15.9863V15.9564V15.9264V15.8965V15.8666V15.8366V15.8067V15.7767V15.7468V15.7169V15.6869V15.657V15.627V15.5971V15.5672V15.5372V15.5073V15.4773V15.4474V15.4175V15.3875V15.3576V15.3276V15.2977V15.2678V15.2378V15.2079V15.1779V15.148V15.1181V15.0881V15.0582V15.0282V14.9983V14.9684V14.9384V14.9085V14.8785V14.8486V14.8187V14.7887V14.7588V14.7288V14.6989V14.669V14.639V14.6091V14.5791V14.5492V14.5193V14.4893V14.4594V14.4294V14.3995V14.3696V14.3396V14.3097V14.2797V14.2498V14.2199V14.1899V14.16V14.13V14.1001L8.26336 14.1H8.23342H8.20348H8.17354H8.1436H8.11366H8.08372H8.05378H8.02384H7.9939H7.96396H7.93402H7.90408H7.87414H7.8442H7.81427H7.78433H7.75439H7.72445H7.69451H7.66457H7.63463H7.60469H7.57475H7.54481H7.51487H7.48493H7.45499H7.42505H7.39511H7.36517H7.33523H7.30529H7.27535H7.24541H7.21547H7.18553H7.15559H7.12565H7.09571H7.06577H7.03583H7.00589H6.97595H6.94601H6.91607H6.88613H6.85619H6.82625H6.79631H6.76637H6.73643H6.70649H6.67655H6.64661H6.61667H6.58673H6.55679H6.52685H6.49691H6.46697H6.43703H6.40709H6.37715H6.34721H6.31727H6.28733H6.25739H6.22745H6.19751H6.16757L6.16748 14.1001V14.13V14.16V14.1899V14.2199V14.2498V14.2797V14.3097V14.3396V14.3696V14.3995V14.4294V14.4594V14.4893V14.5193V14.5492V14.5791V14.6091V14.639V14.669V14.6989V14.7288V14.7588V14.7887V14.8187V14.8486V14.8785V14.9085V14.9384V14.9684V14.9983V15.0282V15.0582V15.0881V15.1181V15.148V15.1779V15.2079V15.2378V15.2678V15.2977V15.3276V15.3576V15.3875V15.4175V15.4474V15.4773V15.5073V15.5372V15.5672V15.5971V15.627V15.657V15.6869V15.7169V15.7468V15.7767V15.8067V15.8366V15.8666V15.8965V15.9264V15.9564V15.9863V16.0162V16.0462V16.0761V16.1061V16.136V16.1659V16.1959V16.2258V16.2558V16.2857V16.3156V16.3456V16.3755V16.4055V16.4354V16.4653V16.4953V16.5252V16.5552V16.5851V16.615V16.645V16.6749V16.7049V16.7348V16.7647V16.7947V16.8246V16.8546V16.8845V16.9144V16.9444V16.9743V17.0043V17.0342V17.0641V17.0941V17.124V17.154V17.1839V17.2138V17.2438V17.2737V17.3037V17.3336V17.3635V17.3935V17.4234V17.4534V17.4833V17.5132V17.5432V17.5731V17.6031V17.633V17.6629V17.6929V17.7228V17.7528V17.7827V17.8126V17.8426V17.8725V17.9025V17.9324V17.9623V17.9923V18.0222V18.0522V18.0821V18.112V18.142V18.1719V18.2019V18.2318V18.2617V18.2917V18.3216V18.3516V18.3815V18.4114V18.4414V18.4713V18.5013V18.5312V18.5611V18.5911V18.621V18.651V18.6809V18.7108V18.7408V18.7707V18.8007V18.8306V18.8605V18.8905V18.9204V18.9504V18.9803V19.0102V19.0402V19.0701V19.1001V19.13V19.1599V19.1899V19.2198V19.2498V19.2797V19.3096V19.3396V19.3695V19.3995V19.4294V19.4593V19.4893V19.5192V19.5492V19.5791V19.609V19.639V19.6689V19.6989V19.7288V19.7587V19.7887V19.8186V19.8485V19.8785V19.9084V19.9384V19.9683V19.9982V20.0282V20.0581V20.0881V20.118V20.1479V20.1779V20.2078V20.2378V20.2677V20.2976V20.3276V20.3575V20.3875V20.4174V20.4473V20.4773V20.5072V20.5372V20.5671V20.597V20.627V20.6569V20.6869V20.7168V20.7467V20.7767V20.8066V20.8366V20.8665V20.8964V20.9264V20.9563V20.9863V21.0162V21.0461V21.0761V21.106V21.136V21.1659V21.1958V21.2258V21.2557V21.2857V21.3156V21.3455V21.3755V21.4054V21.4354V21.4653V21.4952V21.5252V21.5551V21.5851V21.615V21.6449V21.6749V21.7048V21.7348V21.7647V21.7946V21.8246V21.8545V21.8845V21.9144V21.9443V21.9743V22.0042V22.0342V22.0641V22.094V22.124V22.1539V22.1839V22.2138V22.2437V22.2737V22.3036V22.3336V22.3635V22.3934V22.4234V22.4533V22.4833V22.5132V22.5431V22.5731V22.603V22.633V22.6629V22.6928V22.7228V22.7527V22.7827V22.8126V22.8425V22.8725V22.9024V22.9324V22.9623V22.9922V23.0222V23.0521V23.0821V23.112V23.1419V23.1719V23.2018V23.2318V23.2617V23.2916V23.3216V23.3515V23.3815V23.4114V23.4413V23.4713V23.5012V23.5311V23.5611V23.591V23.621V23.6509V23.6808V23.7108V23.7407V23.7707V23.8006V23.8305V23.8605V23.8904V23.9204V23.9503V23.9802V24.0102V24.0401V24.0701V24.1L6.16757 24.1001L6.19742 24.1299V24.1599V24.1898L6.19751 24.1899L6.22736 24.2198V24.2497L6.22745 24.2498L6.2573 24.2796L6.25739 24.2797L6.28724 24.3096L6.28733 24.3097L6.31718 24.3395L6.31727 24.3396H6.34721L6.37706 24.3695L6.37715 24.3696L6.407 24.3994L6.40709 24.3995H6.43703H6.46697H6.49691L6.52676 24.4293L6.52685 24.4294H6.55679H6.58673H6.61667H6.64661H6.67655H6.70649H6.73643H6.76637H6.79631H6.82625H6.85619H6.88613H6.91607H6.94601H6.97595H7.00589H7.03583H7.06577H7.09571H7.12565H7.15559H7.18553H7.21547H7.24541H7.27535H7.30529H7.33523H7.36517H7.39511H7.42505H7.45499H7.48493H7.51487H7.54481H7.57475H7.60469H7.63463H7.66457H7.69451H7.72445H7.75439H7.78433H7.81427H7.8442H7.87414H7.90408L7.90418 24.4293Z" fill="black"/>
<path d="M16.6467 24.4294L16.6765 24.3995H16.7065H16.7364L16.7365 24.3994L16.7664 24.3696L16.7664 24.3695V24.3395V24.3096V24.2797V24.2497V24.2198V24.1898V24.1599V24.13V24.1V24.0701V24.0401V24.0102V23.9803V23.9503V23.9204V23.8904V23.8605V23.8306V23.8006V23.7707V23.7407V23.7108V23.6809V23.6509V23.621V23.591V23.5611V23.5312V23.5012V23.4713V23.4413V23.4114V23.3815V23.3515V23.3216V23.2916V23.2617V23.2318V23.2018V23.1719V23.1419V23.112V23.0821V23.0521V23.0222V22.9922V22.9623V22.9324V22.9024V22.8725V22.8425V22.8126V22.7827V22.7527V22.7228V22.6928V22.6629V22.633V22.603V22.5731V22.5431V22.5132V22.4833V22.4533V22.4234V22.3935V22.3635V22.3336L16.7963 22.3037L16.7964 22.3036L16.7963 22.3035L16.7664 22.2737L16.7664 22.2736L16.7663 22.2737L16.7364 22.3035H16.7065H16.6765H16.6466H16.6167H16.5867H16.5568H16.5268H16.4969H16.467H16.437H16.4071H16.3771H16.3472H16.3173H16.2873H16.2574H16.2274H16.1975H16.1676H16.1376H16.1077H16.0777H16.0478H16.0179H15.9879H15.958H15.928H15.8981H15.8682H15.8382H15.8083H15.7783H15.7484H15.7185H15.6885H15.6586H15.6286H15.5987H15.5688H15.5388H15.5089H15.4789H15.449H15.4191H15.3891H15.3592H15.3292H15.2993H15.2694H15.2394H15.2095H15.1795H15.1496H15.1197H15.0897L15.0599 22.2737L15.0598 22.2736L15.0597 22.2737V22.3036V22.3336V22.3635V22.3935V22.4234V22.4533V22.4833V22.5132V22.5431V22.5731V22.603V22.633V22.6629V22.6928V22.7228V22.7527V22.7827V22.8126V22.8425V22.8725V22.9024V22.9324V22.9623V22.9922V23.0222V23.0521V23.0821V23.112V23.1419V23.1719V23.2018V23.2318V23.2617V23.2916V23.3216V23.3515V23.3815V23.4114V23.4413V23.4713V23.5012V23.5312V23.5611V23.591V23.621V23.6509V23.6809V23.7108V23.7407V23.7707V23.8006V23.8306V23.8605V23.8904V23.9204V23.9503V23.9803V24.0102V24.0401V24.0701V24.1V24.13V24.1599V24.1898V24.2198V24.2497V24.2797V24.3096V24.3395V24.3695L15.0598 24.3696L15.0896 24.3994L15.0897 24.3995H15.1197H15.1496H15.1795H15.2095L15.2393 24.4294L15.2394 24.4295H15.2694H15.2993H15.3292H15.3592H15.3891H15.4191H15.449H15.4789H15.5089H15.5388H15.5688H15.5987H15.6286H15.6586H15.6885H15.7185H15.7484H15.7783H15.8083H15.8382H15.8682H15.8981H15.928H15.958H15.9879H16.0179H16.0478H16.0777H16.1077H16.1376H16.1676H16.1975H16.2274H16.2574H16.2873H16.3173H16.3472H16.3771H16.4071H16.437H16.467H16.4969H16.5268H16.5568H16.5867H16.6167H16.6466L16.6467 24.4294Z" fill="black"/>
</svg>
