<svg width="17" height="22" viewBox="0 0 17 22" fill="none" xmlns="http://www.w3.org/2000/svg">
<path d="M12.3691 3.12125L12.3979 3.09244H12.4268L12.4269 3.09235L12.4557 3.06354L12.4558 3.06345V3.03455L12.4846 3.00574L12.4847 3.00565V2.97675L12.5135 2.94794L12.5136 2.94785V2.91895V2.89005L12.5424 2.86124L12.5425 2.86115V2.83225V2.80335V2.77445L12.5713 2.74564L12.5714 2.74555V2.71665V2.68775V2.65885L12.6002 2.63004L12.6003 2.62995V2.60105V2.57215L12.6291 2.54334L12.6292 2.54325V2.51435V2.48545L12.658 2.45664L12.6581 2.45655V2.42766V2.39876L12.6869 2.36995L12.687 2.36986V2.34096L12.7158 2.31215L12.7159 2.31206V2.28316L12.7447 2.25435L12.7448 2.25426L12.7736 2.22545L12.7737 2.22536V2.19646L12.8025 2.16765L12.8026 2.16756L12.8314 2.13875L12.8315 2.13866L12.8603 2.10985L12.8604 2.10976L12.8892 2.08095L12.8893 2.08086L12.9181 2.05205L12.9182 2.05196L12.947 2.02315L12.9471 2.02306L12.9759 1.99425L12.976 1.99416L13.0048 1.96535H13.0337L13.0338 1.96526L13.0626 1.93645L13.0627 1.93636L13.0915 1.90755H13.1204L13.1205 1.90746L13.1493 1.87865H13.1782L13.1783 1.87856L13.2071 1.84975H13.236L13.2361 1.84966L13.2649 1.82085H13.2938L13.2939 1.82076L13.3227 1.79195H13.3516L13.3517 1.79186L13.3805 1.76305H13.4094L13.4095 1.76296L13.4383 1.73415H13.4672L13.4673 1.73406L13.4961 1.70525H13.525L13.5251 1.70517L13.5539 1.67636L13.554 1.67627L13.5828 1.64746H13.6117L13.6118 1.64737L13.6406 1.61856L13.6407 1.61847L13.6695 1.58966H13.6984L13.6985 1.58957L13.7273 1.56076L13.7274 1.56067L13.7562 1.53186L13.7563 1.53177L13.7851 1.50296L13.7852 1.50287L13.814 1.47406L13.8141 1.47397L13.8429 1.44516L13.843 1.44507L13.8718 1.41626L13.8719 1.41617V1.38727L13.9007 1.35846L13.9008 1.35837L13.9296 1.32956L13.9297 1.32947L13.9585 1.30066L13.9586 1.30057V1.27167L13.9874 1.24286L13.9875 1.24277L14.0163 1.21396L14.0164 1.21387V1.18497L14.0452 1.15616L14.0453 1.15607V1.12717L14.0741 1.09836L14.0742 1.09827V1.06937V1.04047L14.103 1.01166L14.1031 1.01158V0.982676V0.953776L14.1319 0.924966L14.132 0.924876V0.895977V0.867077V0.838178V0.809278L14.1608 0.780468L14.1609 0.780378V0.751479V0.722579V0.69368V0.66478V0.63588V0.606981V0.578081V0.549182V0.520282V0.491383V0.462483V0.433583V0.404684V0.375784V0.346885V0.317985V0.289085V0.260186V0.231286V0.202387V0.173487L14.1608 0.173398L14.132 0.144587V0.115688L14.1319 0.115598L14.1031 0.0867883V0.0578887L14.103 0.0577992L14.0742 0.0289891L14.0741 0.0288996H14.0452L14.0164 8.95175e-05L14.0163 0H13.9874H13.9585H13.9296H13.9007H13.8718H13.8429H13.814L13.8139 8.95175e-05L13.7851 0.0288996H13.7562L13.7561 0.0289891L13.7273 0.0577992L13.7272 0.0578887V0.0867883L13.6984 0.115598L13.6983 0.115688V0.144587L13.6695 0.173398L13.6694 0.173487V0.202387V0.231286L13.6406 0.260096L13.6405 0.260186V0.289085V0.317985V0.346885V0.375784V0.404684V0.433583V0.462483V0.491383V0.520282V0.549182V0.578081V0.606981V0.63588V0.66478V0.69368V0.722579V0.751479V0.780378V0.809278V0.838178V0.867077L13.6117 0.895887L13.6116 0.895977V0.924876V0.953776L13.5828 0.982586L13.5827 0.982676V1.01158L13.5539 1.04039L13.5538 1.04047V1.06937L13.525 1.09818L13.5249 1.09827L13.4961 1.12708L13.496 1.12717L13.4672 1.15598L13.4671 1.15607V1.18497L13.4383 1.21378H13.4094L13.4093 1.21387L13.3805 1.24268L13.3804 1.24277L13.3516 1.27158L13.3515 1.27167L13.3227 1.30048H13.2938L13.2937 1.30057L13.2649 1.32938H13.236L13.2359 1.32947L13.2071 1.35828H13.1782L13.1781 1.35837L13.1493 1.38718H13.1204H13.0915H13.0626L13.0625 1.38727L13.0337 1.41608H13.0048H12.9759H12.947L12.9469 1.41617L12.9181 1.44498H12.8892H12.8603L12.8602 1.44507L12.8314 1.47388H12.8025L12.8024 1.47397L12.7736 1.50278H12.7447L12.7446 1.50287L12.7158 1.53168H12.6869L12.6868 1.53177L12.658 1.56058H12.6291L12.629 1.56067L12.6002 1.58948L12.6001 1.58957L12.5713 1.61838L12.5712 1.61847L12.5424 1.64728H12.5135L12.5134 1.64737L12.4846 1.67618L12.4845 1.67627L12.4557 1.70508L12.4556 1.70517L12.4268 1.73398L12.4267 1.73406L12.3979 1.76287L12.3979 1.76296V1.79186L12.369 1.82067L12.369 1.82076L12.3401 1.84957L12.3401 1.84966L12.3112 1.87847L12.3112 1.87856V1.90746L12.2823 1.93627L12.2823 1.93636L12.2534 1.96517L12.2534 1.96526V1.99416L12.2245 2.02297L12.2245 2.02306V2.05196L12.1956 2.08077L12.1956 2.08086V2.10976L12.1667 2.13857L12.1667 2.13866V2.16756L12.1378 2.19637L12.1378 2.19646V2.22536L12.1089 2.25417L12.1089 2.25426V2.28316V2.31206L12.08 2.34087L12.08 2.34096V2.36986V2.39876V2.42766L12.0511 2.45647L12.0511 2.45655V2.48545V2.51435V2.54325V2.57215V2.60105L12.0222 2.62986L12.0222 2.62995V2.65885V2.68775V2.71665V2.74555V2.77445V2.80335V2.83225V2.86115L12.0222 2.86124L12.0511 2.89005V2.91895V2.94785L12.0511 2.94794L12.08 2.97675V3.00565V3.03455L12.08 3.03464L12.1089 3.06345L12.1089 3.06354L12.1378 3.09235L12.1378 3.09244H12.1667H12.1956L12.2245 3.12125L12.2245 3.12133H12.2534H12.2823H12.3112H12.3401H12.369L12.3691 3.12125Z" fill="black"/>
<path d="M9.24797 4.88412L9.27678 4.85531H9.30568H9.33458H9.36348H9.39238H9.42128H9.45018L9.45027 4.85522L9.47908 4.82641H9.50798H9.53688H9.56578L9.56587 4.82632L9.59468 4.79751H9.62358H9.65248L9.65257 4.79742L9.68138 4.76861H9.71027H9.73917L9.73926 4.76852L9.76807 4.73971H9.79697L9.79706 4.73962L9.82587 4.71081H9.85477L9.85486 4.71072L9.88367 4.68191H9.91257L9.91266 4.68182L9.94147 4.65301H9.97037L9.97046 4.65292L9.99927 4.62411H10.0282L10.0283 4.62402L10.0571 4.59521H10.086L10.0861 4.59512L10.1149 4.56631L10.115 4.56622L10.1438 4.53741H10.1727L10.1728 4.53732L10.2016 4.50851L10.2017 4.50842L10.2305 4.47961L10.2306 4.47952L10.2594 4.45071L10.2595 4.45062L10.2883 4.42181H10.3172L10.3173 4.42172L10.3461 4.39291L10.3462 4.39282L10.375 4.36401L10.3751 4.36392L10.4039 4.33512L10.404 4.33503L10.4328 4.30622L10.4329 4.30613L10.4617 4.27732L10.4618 4.27723L10.4906 4.24842L10.4907 4.24833L10.5195 4.21952L10.5196 4.21943L10.5484 4.19062L10.5485 4.19053V4.16163L10.5773 4.13282L10.5774 4.13273L10.6062 4.10392L10.6063 4.10383L10.6351 4.07502L10.6352 4.07493V4.04603L10.664 4.01722L10.6641 4.01713L10.6929 3.98832L10.693 3.98823V3.95933L10.7218 3.93052L10.7219 3.93043L10.7507 3.90162L10.7507 3.90153V3.87263L10.7796 3.84382L10.7796 3.84373V3.81483L10.8085 3.78602L10.8085 3.78593V3.75703L10.8374 3.72822L10.8374 3.72813V3.69923V3.67033L10.8663 3.64153L10.8663 3.64144V3.61254L10.8952 3.58373L10.8952 3.58364V3.55474V3.52584V3.49694L10.9241 3.46813L10.9241 3.46804V3.43914V3.41024V3.38134L10.953 3.35253L10.953 3.35244V3.32354V3.29464V3.26574V3.23684V3.20794L10.9819 3.17913L10.9819 3.17904V3.15014V3.12124V3.09234V3.06344V3.03454V3.00564V2.97674V2.94784V2.91895V2.89005V2.86115V2.83225V2.80335V2.77445L10.9819 2.77436L10.953 2.74555V2.71665V2.68775V2.65885V2.62995V2.60105L10.953 2.60096L10.9241 2.57215V2.54325V2.51435V2.48545L10.9241 2.48536L10.8952 2.45655V2.42765V2.39875V2.36985L10.8952 2.36976L10.8663 2.34095V2.31205V2.28315L10.8663 2.28306L10.8374 2.25425V2.22536L10.8374 2.22527L10.8085 2.19646V2.16756V2.13866L10.8085 2.13857L10.7796 2.10976L10.7796 2.10967L10.7507 2.08086V2.05196L10.7507 2.05187L10.7219 2.02306V1.99416L10.7218 1.99407L10.693 1.96526V1.93636L10.6929 1.93627L10.6641 1.90746L10.664 1.90737L10.6352 1.87856V1.84966L10.6351 1.84957L10.6063 1.82076L10.6062 1.82067L10.5774 1.79186L10.5773 1.79177L10.5485 1.76296V1.73406L10.5484 1.73397L10.5196 1.70516L10.5195 1.70507L10.4907 1.67626L10.4906 1.67617L10.4618 1.64736L10.4617 1.64727L10.4329 1.61846L10.4328 1.61837L10.404 1.58956L10.4039 1.58947L10.3751 1.56066L10.375 1.56058L10.3462 1.53176L10.3461 1.53168L10.3173 1.50287L10.3172 1.50278L10.2884 1.47397L10.2883 1.47388L10.2595 1.44507L10.2594 1.44498H10.2305L10.2017 1.41617L10.2016 1.41608L10.1728 1.38727L10.1727 1.38718L10.1439 1.35837L10.1438 1.35828H10.1149L10.0861 1.32947L10.086 1.32938L10.0572 1.30057L10.0571 1.30048H10.0282L9.99936 1.27167L9.99927 1.27158H9.97037L9.94156 1.24277L9.94147 1.24268H9.91257L9.88376 1.21387L9.88367 1.21378H9.85477L9.82596 1.18497L9.82587 1.18488H9.79697L9.76816 1.15607L9.76807 1.15598H9.73917H9.71027L9.68147 1.12717L9.68138 1.12708H9.65248H9.62358L9.59477 1.09827L9.59468 1.09818H9.56578H9.53688H9.50798L9.47917 1.06937L9.47908 1.06928H9.45018H9.42128H9.39238H9.36348L9.33467 1.04047L9.33458 1.04038H9.30568H9.27678H9.24788H9.21898H9.19008H9.16118H9.13228H9.10338H9.07448H9.04558H9.01668H8.98779H8.95889H8.92999H8.90109H8.87219H8.84329H8.81439H8.78549H8.75659H8.72769L8.7276 1.04047L8.69879 1.06928H8.66989H8.64099H8.61209H8.58319H8.55429L8.5542 1.06937L8.52539 1.09818H8.49649H8.46759H8.43869L8.4386 1.09827L8.40979 1.12708H8.38089H8.35199L8.3519 1.12717L8.32309 1.15598H8.29419L8.2941 1.15607L8.2653 1.18488H8.2364L8.23631 1.18497L8.2075 1.21378H8.1786L8.17851 1.21387L8.1497 1.24268H8.1208H8.0919L8.09181 1.24277L8.063 1.27158L8.06291 1.27167L8.0341 1.30048H8.0052L8.00511 1.30057L7.9763 1.32938H7.9474L7.94731 1.32947L7.9185 1.35828L7.91841 1.35837L7.8896 1.38718H7.8607L7.86061 1.38727L7.8318 1.41608L7.83171 1.41617L7.8029 1.44498L7.80281 1.44507L7.774 1.47388L7.77391 1.47397L7.7451 1.50278L7.74501 1.50287L7.7162 1.53168H7.6873L7.68721 1.53176L7.6584 1.56058L7.65831 1.56066L7.6295 1.58947L7.62941 1.58956L7.6006 1.61837L7.60051 1.61846L7.57171 1.64727L7.57162 1.64736L7.54281 1.67617L7.54272 1.67626V1.70516L7.51391 1.73397L7.51382 1.73406L7.48501 1.76287L7.48492 1.76296L7.45611 1.79177L7.45602 1.79186V1.82076L7.42721 1.84957L7.42712 1.84966L7.39831 1.87847L7.39822 1.87856L7.36941 1.90737L7.36932 1.90746V1.93636L7.34051 1.96517L7.34042 1.96526V1.99416L7.31161 2.02297L7.31152 2.02306V2.05196L7.28271 2.08077L7.28262 2.08086V2.10976L7.25381 2.13857L7.25372 2.13866V2.16756L7.22491 2.19637L7.22482 2.19646V2.22536L7.19601 2.25417L7.19592 2.25425V2.28315V2.31205L7.16711 2.34086L7.16702 2.34095V2.36985V2.39875L7.13821 2.42756L7.13812 2.42765V2.45655V2.48545V2.51435V2.54325L7.10931 2.57206L7.10922 2.57215V2.60105V2.62995V2.65885V2.68775L7.08041 2.71656L7.08032 2.71665V2.74555V2.77445V2.80335V2.83225V2.86115V2.89005V2.91895V2.94784V2.97674V3.00564V3.03454V3.06344V3.09234V3.12124V3.15014L7.08041 3.15023L7.10922 3.17904V3.20794V3.23684V3.26574V3.29464V3.32354L7.10931 3.32363L7.13812 3.35244V3.38134V3.41024V3.43914L7.13821 3.43923L7.16702 3.46804V3.49694V3.52584V3.55474L7.16711 3.55483L7.19592 3.58364V3.61254L7.19601 3.61263L7.22482 3.64144V3.67033V3.69923L7.22491 3.69932L7.25372 3.72813V3.75703L7.25381 3.75712L7.28262 3.78593V3.81483L7.28271 3.81492L7.31152 3.84373V3.87263L7.31161 3.87272L7.34042 3.90153V3.93043L7.34051 3.93052L7.36932 3.95933V3.98823L7.36941 3.98832L7.39822 4.01713L7.39831 4.01722L7.42712 4.04603V4.07493L7.42721 4.07502L7.45602 4.10383L7.45611 4.10392L7.48492 4.13273L7.48501 4.13282L7.51382 4.16163L7.51391 4.16172L7.54272 4.19053V4.21943L7.54281 4.21952L7.57162 4.24833L7.57171 4.24842L7.60051 4.27723L7.6006 4.27732L7.62941 4.30613L7.6295 4.30622L7.65831 4.33503L7.6584 4.33512L7.68721 4.36392L7.6873 4.36401L7.71611 4.39282L7.7162 4.39291L7.74501 4.42172L7.7451 4.42181H7.774L7.80281 4.45062L7.8029 4.45071L7.83171 4.47952L7.8318 4.47961L7.86061 4.50842L7.8607 4.50851H7.8896L7.91841 4.53732L7.9185 4.53741L7.94731 4.56622L7.9474 4.56631L7.97621 4.59512L7.9763 4.59521H8.0052L8.03401 4.62402L8.0341 4.62411H8.063L8.09181 4.65292L8.0919 4.65301H8.1208L8.14961 4.68182L8.1497 4.68191H8.1786L8.20741 4.71072L8.2075 4.71081H8.2364L8.26521 4.73962L8.2653 4.73971H8.29419L8.323 4.76852L8.32309 4.76861H8.35199H8.38089L8.4097 4.79742L8.40979 4.79751H8.43869H8.46759H8.49649L8.5253 4.82632L8.52539 4.82641H8.55429H8.58319H8.61209L8.6409 4.85522L8.64099 4.85531H8.66989H8.69879H8.72769H8.75659H8.78549H8.81439H8.84329H8.87219L8.901 4.88412L8.90109 4.88421H8.92999H8.95889H8.98779H9.01668H9.04558H9.07448H9.10338H9.13228H9.16118H9.19008H9.21898H9.24788L9.24797 4.88412Z" fill="black"/>
<path d="M13.5541 4.21943L13.5829 4.19062H13.6118H13.6407L13.6408 4.19053L13.6696 4.16172H13.6985L13.6986 4.16163L13.7274 4.13282L13.7275 4.13273L13.7563 4.10392L13.7564 4.10383L13.7852 4.07502L13.7853 4.07493L13.8141 4.04612L13.8142 4.04603V4.01713L13.843 3.98832L13.8431 3.98823V3.95933V3.93043V3.90153V3.87263V3.84373L13.8719 3.81492L13.872 3.81483V3.78593V3.75703V3.72814L13.9008 3.69933L13.9009 3.69924V3.67034V3.64144V3.61254L13.9297 3.58373L13.9298 3.58364V3.55474L13.9586 3.52593L13.9587 3.52584V3.49694L13.9875 3.46813L13.9876 3.46804V3.43914L14.0164 3.41033L14.0165 3.41024L14.0453 3.38143L14.0454 3.38134V3.35244L14.0742 3.32363L14.0743 3.32354L14.1031 3.29473L14.1032 3.29464L14.132 3.26583L14.1321 3.26574L14.1609 3.23693L14.161 3.23684L14.1898 3.20803L14.1899 3.20794L14.2187 3.17913L14.2188 3.17904L14.2476 3.15023L14.2477 3.15014L14.2765 3.12133L14.2766 3.12124L14.3054 3.09243L14.3055 3.09234L14.3343 3.06353H14.3632L14.3633 3.06344L14.3921 3.03463H14.421H14.4499L14.45 3.03455L14.4788 3.00574H14.5077H14.5366L14.5367 3.00565L14.5655 2.97684H14.5944H14.6233L14.6234 2.97675L14.6522 2.94794H14.6811L14.6812 2.94785L14.71 2.91904H14.7389L14.739 2.91895L14.7678 2.89014H14.7967L14.7968 2.89005L14.8256 2.86124H14.8545L14.8546 2.86115L14.8834 2.83234L14.8835 2.83225L14.9123 2.80344H14.9412L14.9413 2.80335L14.9701 2.77454L14.9702 2.77445L14.999 2.74564L14.9991 2.74555L15.0279 2.71674L15.028 2.71665L15.0568 2.68784L15.0569 2.68775L15.0857 2.65894L15.0858 2.65885L15.1146 2.63004L15.1147 2.62995L15.1435 2.60114L15.1436 2.60105V2.57215L15.1724 2.54334L15.1725 2.54325L15.2013 2.51444L15.2014 2.51435V2.48545L15.2302 2.45664L15.2303 2.45655L15.2591 2.42774L15.2592 2.42765V2.39875L15.288 2.36994L15.2881 2.36985L15.3169 2.34104L15.317 2.34096V2.31206L15.3458 2.28325L15.3459 2.28316V2.25426L15.3747 2.22545L15.3748 2.22536V2.19646V2.16756L15.4036 2.13875L15.4037 2.13866V2.10976V2.08086V2.05196L15.4325 2.02315L15.4326 2.02306V1.99416V1.96526V1.93636V1.90746L15.4614 1.87865L15.4615 1.87856V1.84966V1.82076V1.79186V1.76296V1.73406V1.70516V1.67626V1.64736V1.61847V1.58957L15.4614 1.58948L15.4326 1.56067V1.53177V1.50287V1.47397V1.44507L15.4325 1.44498L15.4037 1.41617V1.38727V1.35837L15.4036 1.35828L15.3748 1.32947V1.30057L15.3747 1.30048L15.3459 1.27167V1.24277L15.3458 1.24268L15.317 1.21387L15.3169 1.21378L15.2881 1.18497L15.288 1.18488L15.2592 1.15607L15.2591 1.15598H15.2302L15.2014 1.12717L15.2013 1.12708H15.1724H15.1435H15.1146H15.0857L15.0856 1.12717L15.0568 1.15598H15.0279L15.0278 1.15607L14.999 1.18488L14.9989 1.18497L14.9701 1.21378L14.97 1.21387V1.24277L14.9412 1.27158L14.9411 1.27167V1.30057V1.32947V1.35837V1.38727L14.9123 1.41608L14.9122 1.41617L14.9123 1.41626L14.9411 1.44507V1.47397V1.50287V1.53177V1.56067V1.58957V1.61847V1.64736V1.67626V1.70516V1.73406V1.76296V1.79186V1.82076V1.84966V1.87856V1.90746L14.9123 1.93627L14.9122 1.93636V1.96526V1.99416L14.8834 2.02297L14.8833 2.02306V2.05196L14.8545 2.08077L14.8544 2.08086V2.10976L14.8256 2.13857L14.8255 2.13866L14.7967 2.16747L14.7966 2.16756L14.7678 2.19637L14.7677 2.19646V2.22536L14.7389 2.25417L14.7388 2.25426L14.71 2.28307L14.7099 2.28316L14.6811 2.31197L14.681 2.31206L14.6522 2.34087L14.6521 2.34096L14.6233 2.36977H14.5944L14.5943 2.36985L14.5655 2.39866L14.5654 2.39875L14.5366 2.42756H14.5077L14.5076 2.42765L14.4788 2.45646H14.4499L14.4498 2.45655L14.421 2.48536H14.3921L14.392 2.48545L14.3632 2.51426H14.3343L14.3342 2.51435L14.3054 2.54316H14.2765H14.2476L14.2475 2.54325L14.2187 2.57206H14.1898H14.1609L14.1608 2.57215L14.132 2.60096H14.1031L14.103 2.60105L14.0742 2.62986H14.0453L14.0452 2.62995L14.0164 2.65876H13.9875L13.9874 2.65885L13.9586 2.68766H13.9297L13.9296 2.68775L13.9008 2.71656L13.9007 2.71665L13.8719 2.74546H13.843L13.8429 2.74555L13.8141 2.77436L13.814 2.77445L13.7852 2.80326L13.7851 2.80335L13.7563 2.83216H13.7274L13.7273 2.83225L13.6985 2.86106L13.6984 2.86115L13.6696 2.88996L13.6695 2.89005L13.6407 2.91886L13.6406 2.91895L13.6118 2.94776L13.6117 2.94785V2.97675L13.5829 3.00556L13.5828 3.00565L13.554 3.03446L13.5539 3.03455L13.5251 3.06336L13.525 3.06344V3.09234L13.4962 3.12115L13.4961 3.12124L13.4673 3.15005L13.4672 3.15014V3.17904L13.4384 3.20785L13.4383 3.20794V3.23684L13.4095 3.26565L13.4094 3.26574V3.29464L13.3806 3.32345L13.3805 3.32354V3.35244L13.3517 3.38125L13.3516 3.38134V3.41024V3.43914L13.3228 3.46795L13.3227 3.46804V3.49694V3.52584L13.2939 3.55465L13.2938 3.55474V3.58364V3.61254L13.265 3.64135L13.2649 3.64144V3.67034V3.69924V3.72814L13.2361 3.75695L13.236 3.75703V3.78593V3.81483V3.84373V3.87263V3.90153V3.93043V3.95933V3.98823V4.01713V4.04603L13.2361 4.04612L13.2649 4.07493V4.10383L13.265 4.10392L13.2938 4.13273V4.16163L13.2939 4.16172H13.3228L13.3516 4.19053L13.3517 4.19062L13.3805 4.21943L13.3806 4.21952H13.4095H13.4384H13.4673H13.4962H13.5251H13.554L13.5541 4.21943Z" fill="black"/>
<path d="M2.36996 9.21906L2.39877 9.19025H2.42767H2.45657H2.48547H2.51437L2.51446 9.19016L2.54327 9.16135H2.57217L2.57226 9.16126L2.60107 9.13245H2.62996L2.63005 9.13236L2.65886 9.10355L2.65895 9.10346L2.68776 9.07465L2.68785 9.07456L2.71666 9.04575L2.71675 9.04566L2.74556 9.01685L2.74565 9.01676L2.77446 8.98795L2.77455 8.98786L2.80336 8.95905L2.80345 8.95896L2.83226 8.93015L2.83235 8.93006V8.90116L2.86116 8.87235L2.86125 8.87226V8.84336L2.89006 8.81455L2.89015 8.81446V8.78556L2.91896 8.75675L2.91905 8.75666V8.72776L2.94786 8.69895L2.94795 8.69886V8.66996V8.64106L2.97676 8.61226L2.97685 8.61217V8.58327L3.00566 8.55446L3.00575 8.55437V8.52547V8.49657L3.03456 8.46776L3.03465 8.46767V8.43877L3.06346 8.40996L3.06355 8.40987V8.38097V8.35207L3.09236 8.32326L3.09245 8.32317V8.29427L3.12126 8.26546L3.12135 8.26537V8.23647V8.20757L3.15016 8.17876L3.15025 8.17867V8.14977L3.17906 8.12096L3.17915 8.12087V8.09197V8.06307L3.20796 8.03426L3.20805 8.03417V8.00527L3.23686 7.97646L3.23695 7.97637V7.94747V7.91858L3.26576 7.88977L3.26585 7.88968V7.86078V7.83188L3.29466 7.80307L3.29475 7.80298V7.77408L3.32355 7.74527L3.32364 7.74518V7.71628V7.68738L3.35245 7.65857L3.35254 7.65848V7.62958V7.60068L3.38135 7.57187L3.38144 7.57178V7.54288L3.41025 7.51407L3.41034 7.51398V7.48508V7.45618L3.43915 7.42737L3.43924 7.42728V7.39838V7.36948L3.46805 7.34067L3.46814 7.34058V7.31168L3.49695 7.28287L3.49704 7.28278V7.25388V7.22498L3.52585 7.19618L3.52594 7.19609V7.16719V7.13829L3.55475 7.10948L3.55484 7.10939V7.08049L3.58365 7.05168L3.58374 7.05159V7.02269V6.99379L3.61255 6.96498L3.61264 6.96489V6.93599L3.64145 6.90718L3.64154 6.90709V6.87819V6.84929L3.67035 6.82048L3.67044 6.82039V6.79149L3.69925 6.76268L3.69934 6.76259V6.73369L3.72815 6.70488L3.72824 6.70479V6.67589V6.64699L3.75705 6.61818L3.75714 6.61809V6.58919L3.78595 6.56038L3.78604 6.56029V6.53139V6.5025L3.81485 6.47369L3.81494 6.4736V6.4447L3.84375 6.41589L3.84384 6.4158V6.3869V6.358L3.87265 6.32919L3.87274 6.3291V6.3002L3.90155 6.27139L3.90164 6.2713V6.2424V6.2135L3.93045 6.18469L3.93054 6.1846V6.1557L3.95935 6.12689L3.95944 6.1268V6.0979L3.98825 6.06909L3.98834 6.069V6.0401V6.0112L4.01714 5.98239L4.01723 5.9823V5.9534L4.04604 5.92459L4.04613 5.9245V5.8956V5.8667L4.07494 5.83789L4.07503 5.8378V5.80891L4.10384 5.7801L4.10393 5.78001V5.75111V5.72221L4.13274 5.6934L4.13283 5.69331V5.66441L4.16164 5.6356L4.16173 5.63551V5.60661V5.57771L4.19054 5.5489L4.19063 5.54881V5.51991L4.21944 5.4911L4.21953 5.49101V5.46211V5.43321L4.24834 5.4044L4.24843 5.40431V5.37541L4.27724 5.3466L4.27733 5.34651V5.31761V5.28871L4.30614 5.2599L4.30623 5.25981V5.23091L4.33504 5.2021L4.33513 5.20201V5.17311V5.14421L4.36394 5.1154L4.36403 5.11531V5.08642L4.39284 5.05761L4.39293 5.05752V5.02862V4.99972L4.42174 4.97091L4.42183 4.97082V4.94192L4.45064 4.91311L4.45073 4.91302V4.88412V4.85522L4.47954 4.82641L4.47963 4.82632V4.79742L4.50844 4.76861L4.50853 4.76852V4.73962V4.71072L4.53734 4.68191L4.53743 4.68182V4.65292V4.62402V4.59512V4.56622L4.56624 4.53741L4.56633 4.53732V4.50842V4.47952V4.45062V4.42172V4.39283V4.36393V4.33503V4.30613L4.56624 4.30604L4.53743 4.27723V4.24833V4.21943V4.19053V4.16163L4.53734 4.16154L4.50853 4.13273V4.10383L4.50844 4.10374L4.47963 4.07493V4.04603L4.47954 4.04594L4.45073 4.01713L4.45064 4.01704L4.42183 3.98823L4.42174 3.98814L4.39293 3.95933L4.39284 3.95924L4.36403 3.93043L4.36394 3.93034H4.33504L4.30623 3.90153L4.30614 3.90144L4.27733 3.87263L4.27724 3.87254H4.24834L4.21953 3.84373L4.21944 3.84364H4.19054L4.16173 3.81483L4.16164 3.81474H4.13274L4.10393 3.78593L4.10384 3.78584H4.07494H4.04604L4.01723 3.75703L4.01714 3.75694H3.98825L3.95944 3.72813L3.95935 3.72804H3.93045H3.90155L3.87274 3.69924L3.87265 3.69915H3.84375L3.81494 3.67034L3.81485 3.67025H3.78595H3.75705L3.72824 3.64144L3.72815 3.64135H3.69925H3.67035L3.64154 3.61254L3.64145 3.61245H3.61255L3.58374 3.58364L3.58365 3.58355H3.55475H3.52585L3.49704 3.55474L3.49695 3.55465H3.46805H3.43915L3.41034 3.52584L3.41025 3.52575H3.38135L3.35254 3.49694L3.35245 3.49685H3.32355H3.29466L3.26585 3.46804L3.26576 3.46795H3.23686H3.20796H3.17906L3.15025 3.43914L3.15016 3.43905H3.12126H3.09236H3.06346H3.03456H3.00566H2.97676H2.94786H2.91896H2.89006H2.86116H2.83226H2.80336L2.80327 3.43914L2.77446 3.46795H2.74556H2.71666L2.71657 3.46804L2.68776 3.49685H2.65886L2.65877 3.49694L2.62996 3.52575L2.62987 3.52584L2.60107 3.55465H2.57217L2.57208 3.55474L2.54327 3.58355L2.54318 3.58364L2.51437 3.61245L2.51428 3.61254L2.48547 3.64135L2.48538 3.64144L2.45657 3.67025L2.45648 3.67034L2.42767 3.69915L2.42758 3.69924L2.39877 3.72804L2.39868 3.72813L2.36987 3.75694L2.36978 3.75703V3.78593L2.34097 3.81474L2.34088 3.81483L2.31207 3.84364L2.31198 3.84373V3.87263L2.28317 3.90144L2.28308 3.90153V3.93043L2.25427 3.95924L2.25418 3.95933V3.98823V4.01713L2.22537 4.04594L2.22528 4.04603V4.07493V4.10383L2.19647 4.13264L2.19638 4.13273V4.16163V4.19053L2.16757 4.21934L2.16748 4.21943V4.24833V4.27723L2.13867 4.30604L2.13858 4.30613V4.33503V4.36393L2.10977 4.39274L2.10968 4.39283V4.42172V4.45062L2.08087 4.47943L2.08078 4.47952V4.50842V4.53732L2.05197 4.56613L2.05188 4.56622V4.59512L2.02307 4.62393L2.02298 4.62402V4.65292V4.68182L1.99417 4.71063L1.99408 4.71072V4.73962V4.76852L1.96527 4.79733L1.96518 4.79742V4.82632L1.93637 4.85513L1.93628 4.85522V4.88412V4.91302L1.90747 4.94183L1.90738 4.94192V4.97082L1.87858 4.99963L1.87849 4.99972V5.02862V5.05752L1.84968 5.08633L1.84959 5.08642V5.11531L1.82078 5.14412L1.82069 5.14421V5.17311V5.20201L1.79188 5.23082L1.79179 5.23091V5.25981L1.76298 5.28862L1.76289 5.28871V5.31761V5.34651L1.73408 5.37532L1.73399 5.37541V5.40431L1.70518 5.43312L1.70509 5.43321V5.46211V5.49101L1.67628 5.51982L1.67619 5.51991V5.54881L1.64738 5.57762L1.64729 5.57771V5.60661L1.61848 5.63542L1.61839 5.63551V5.66441V5.69331L1.58958 5.72212L1.58949 5.72221V5.75111L1.56068 5.77992L1.56059 5.78001V5.80891V5.8378L1.53178 5.86661L1.53169 5.8667V5.8956L1.50288 5.92441L1.50279 5.9245V5.9534L1.47398 5.98221L1.47389 5.9823V6.0112V6.0401L1.44508 6.06891L1.44499 6.069V6.0979L1.41618 6.12671L1.41609 6.1268V6.1557V6.1846L1.38728 6.21341L1.38719 6.2135V6.2424L1.35838 6.27121L1.35829 6.2713V6.3002V6.3291L1.32948 6.35791L1.32939 6.358V6.3869L1.30058 6.41571L1.30049 6.4158V6.4447V6.4736L1.27168 6.50241L1.27159 6.5025V6.53139L1.24278 6.5602L1.24269 6.56029V6.58919V6.61809L1.21388 6.6469L1.21379 6.64699V6.67589L1.18499 6.7047L1.1849 6.70479V6.73369V6.76259L1.15609 6.7914L1.156 6.79149V6.82039L1.12719 6.8492L1.1271 6.84929V6.87819V6.90709L1.09829 6.9359L1.0982 6.93599V6.96489L1.06939 6.9937L1.0693 6.99379V7.02269V7.05159L1.04049 7.0804L1.0404 7.08049V7.10939L1.01159 7.1382L1.0115 7.13829V7.16719V7.19609L0.982688 7.22489L0.982598 7.22498V7.25388L0.953789 7.28269L0.953699 7.28278V7.31168V7.34058L0.924889 7.36939L0.924799 7.36948V7.39838L0.895989 7.42719L0.895899 7.42728V7.45618V7.48508L0.86709 7.51389L0.867 7.51398V7.54288L0.83819 7.57169L0.8381 7.57178V7.60068V7.62958L0.809291 7.65839L0.809201 7.65848V7.68738V7.71628L0.780391 7.74509L0.780301 7.74518V7.77408L0.751492 7.80289L0.751402 7.80298V7.83188V7.86078L0.722592 7.88959L0.722502 7.88968V7.91858L0.693692 7.94738L0.693602 7.94747V7.97637V8.00527L0.664793 8.03408L0.664703 8.03417V8.06307V8.09197V8.12087V8.14977L0.635893 8.17858L0.635803 8.17867V8.20757V8.23647V8.26537V8.29427L0.635893 8.29436L0.664703 8.32317V8.35207V8.38097V8.40987L0.664793 8.40996L0.693602 8.43877V8.46767L0.693692 8.46776L0.722502 8.49657V8.52547L0.722592 8.52556L0.751402 8.55437V8.58327L0.751492 8.58336L0.780301 8.61217L0.780391 8.61226L0.809201 8.64106L0.809291 8.64115L0.8381 8.66996L0.83819 8.67005L0.867 8.69886L0.86709 8.69895H0.895989L0.924799 8.72776L0.924889 8.72785L0.953699 8.75666L0.953789 8.75675H0.982688L1.0115 8.78556L1.01159 8.78565L1.0404 8.81446L1.04049 8.81455H1.06939L1.0982 8.84336L1.09829 8.84345H1.12719H1.15609L1.1849 8.87226L1.18499 8.87235H1.21388L1.24269 8.90116L1.24278 8.90125H1.27168H1.30058L1.32939 8.93006L1.32948 8.93015H1.35838H1.38728L1.41609 8.95896L1.41618 8.95905H1.44508H1.47398L1.50279 8.98786L1.50288 8.98795H1.53178H1.56068L1.58949 9.01676L1.58958 9.01685H1.61848H1.64738L1.67619 9.04566L1.67628 9.04575H1.70518H1.73408L1.76289 9.07456L1.76298 9.07465H1.79188H1.82078L1.84959 9.10346L1.84968 9.10355H1.87858H1.90747L1.93628 9.13236L1.93637 9.13245H1.96527H1.99417L2.02298 9.16126L2.02307 9.16135H2.05197H2.08087H2.10977L2.13858 9.19016L2.13867 9.19025H2.16757H2.19647H2.22537H2.25427H2.28317L2.31198 9.21906L2.31207 9.21915H2.34097H2.36987L2.36996 9.21906Z" fill="black"/>
<path d="M8.78553 17.3687L8.81434 17.3399H8.84324H8.87214L8.87223 17.3398L8.90104 17.311H8.92994L8.93003 17.3109L8.95884 17.2821H8.98774L8.98783 17.282L9.01664 17.2532H9.04554L9.04563 17.2531L9.07444 17.2243L9.07453 17.2242L9.10334 17.1954L9.10343 17.1953L9.13224 17.1665H9.16114L9.16123 17.1664L9.19004 17.1376L9.19013 17.1375L9.21894 17.1087L9.21903 17.1086V17.0797L9.24784 17.0509L9.24793 17.0508L9.27674 17.022L9.27683 17.0219L9.30564 16.9931L9.30573 16.993V16.9641L9.33454 16.9353L9.33463 16.9352V16.9063L9.36344 16.8775L9.36353 16.8774V16.8485V16.8197L9.39234 16.7908L9.39242 16.7908V16.7619L9.42123 16.733L9.42132 16.733V16.7041V16.6752V16.6463L9.45013 16.6174L9.45022 16.6174V16.5885V16.5596V16.5307V16.5018V16.4729V16.444V16.4151V16.3862V16.3573V16.3284V16.2995V16.2706V16.2417V16.2128V16.1839V16.155V16.1261V16.0972V16.0683V16.0394L9.45013 16.0393L9.42132 16.0105V15.9816V15.9527V15.9238V15.8949V15.866L9.42123 15.8659L9.39242 15.8371V15.8082V15.7793V15.7504V15.7215L9.39234 15.7214L9.36353 15.6926V15.6637V15.6348V15.6059L9.36344 15.6058L9.33463 15.577V15.5481V15.5192V15.4903V15.4614L9.33454 15.4613L9.30573 15.4325V15.4036V15.3747V15.3458L9.30564 15.3457L9.27683 15.3169V15.288V15.2591V15.2302L9.27674 15.2301L9.24793 15.2013V15.1724V15.1435V15.1146L9.24784 15.1145L9.21903 15.0857V15.0568V15.0279V14.999L9.21894 14.9989L9.19013 14.9701V14.9412V14.9123V14.8834L9.19004 14.8833L9.16123 14.8545V14.8256V14.7967V14.7678L9.16114 14.7677L9.13233 14.7389V14.71V14.6811V14.6522L9.13224 14.6521L9.10343 14.6233V14.5944V14.5655V14.5366L9.10334 14.5365L9.07453 14.5077V14.4788V14.4499V14.421V14.3921L9.07444 14.392L9.04563 14.3632V14.3343V14.3054V14.2765L9.04554 14.2764L9.01673 14.2476V14.2187V14.1898V14.1609V14.132L9.01664 14.1319L8.98783 14.1031V14.0742V14.0453V14.0164V13.9875L8.98774 13.9874L8.95893 13.9586V13.9297V13.9008V13.8719V13.843L8.95884 13.8429L8.93003 13.8141V13.7852V13.7563V13.7274L8.92994 13.7273L8.90113 13.6985V13.6696V13.6407V13.6118V13.5829L8.90104 13.5828L8.87223 13.554V13.5251V13.4962V13.4673L8.87214 13.4672L8.84333 13.4384V13.4095V13.3806V13.3517L8.84324 13.3516L8.81443 13.3228V13.2939V13.265V13.2361L8.81434 13.236L8.78553 13.2072V13.1783V13.1494V13.1205V13.0916L8.78544 13.0915L8.75663 13.0627V13.0338V13.0049V12.976L8.75654 12.9759L8.72773 12.9471V12.9182V12.8893V12.8604L8.72764 12.8603L8.69883 12.8315V12.8026V12.7737V12.7448V12.7159L8.69874 12.7158L8.66994 12.687V12.6581V12.6292V12.6003V12.5714L8.66985 12.5713L8.64104 12.5425V12.5136V12.4847L8.64095 12.4846L8.61214 12.4558V12.4269L8.61205 12.4268L8.58324 12.398V12.3691L8.58315 12.369L8.55434 12.3402V12.3113L8.55425 12.3112L8.52544 12.2824V12.2535L8.52535 12.2534L8.49654 12.2246V12.1957L8.49645 12.1956L8.46764 12.1668L8.46755 12.1667L8.43874 12.1379L8.43865 12.1378L8.40984 12.109V12.0801L8.40975 12.08L8.38094 12.0512L8.38085 12.0511L8.35204 12.0223L8.35195 12.0222L8.32314 11.9934L8.32305 11.9933L8.29424 11.9645L8.29415 11.9644H8.26525L8.23644 11.9356L8.23635 11.9355L8.20754 11.9067L8.20745 11.9066L8.17864 11.8778L8.17855 11.8777L8.14974 11.8489L8.14965 11.8488H8.12075L8.09194 11.82L8.09185 11.8199L8.06304 11.7911L8.06295 11.791H8.03405L8.00524 11.7622L8.00515 11.7621L7.97635 11.7333L7.97626 11.7332L7.94745 11.7044L7.94736 11.7043H7.91846L7.88965 11.6755L7.88956 11.6754L7.86075 11.6466L7.86066 11.6465H7.83176L7.80295 11.6177L7.80286 11.6176L7.77405 11.5888L7.77396 11.5887H7.74506L7.71625 11.5599L7.71616 11.5598L7.68735 11.531L7.68726 11.5309L7.65845 11.5021L7.65836 11.502H7.62946L7.60065 11.4732L7.60056 11.4731L7.57175 11.4443L7.57166 11.4442L7.54285 11.4154L7.54276 11.4153L7.51395 11.3865L7.51386 11.3864H7.48496L7.45615 11.3576L7.45606 11.3575L7.42725 11.3287L7.42716 11.3286L7.39835 11.2998L7.39826 11.2997H7.36936L7.34055 11.2709L7.34046 11.2708L7.31165 11.242L7.31156 11.2419H7.28267L7.25386 11.2131L7.25377 11.213L7.22496 11.1842L7.22487 11.1841L7.19606 11.1553L7.19597 11.1552H7.16707L7.13826 11.1264L7.13817 11.1263L7.10936 11.0975L7.10927 11.0974H7.08037L7.05156 11.0686L7.05147 11.0685L7.02266 11.0397L7.02257 11.0396H6.99367L6.96486 11.0108L6.96477 11.0107L6.93596 10.9819L6.93587 10.9818H6.90697L6.87816 10.953L6.87807 10.9529L6.84926 10.9241L6.84917 10.924L6.82036 10.8952L6.82027 10.8951H6.79137L6.76256 10.8663L6.76247 10.8662L6.73366 10.8374L6.73357 10.8373H6.70467L6.67586 10.8085L6.67577 10.8084L6.64696 10.7796L6.64687 10.7795H6.61797L6.58917 10.7507L6.58908 10.7506L6.56027 10.7218L6.56018 10.7217H6.53128L6.50247 10.6929L6.50238 10.6928L6.47357 10.664L6.47348 10.6639H6.44458L6.41577 10.6351L6.41568 10.635L6.38687 10.6062L6.38678 10.6061L6.35797 10.5773L6.35788 10.5772H6.32898L6.30017 10.5484L6.30008 10.5483L6.27127 10.5195L6.27118 10.5194H6.24228L6.21347 10.4906L6.21338 10.4906L6.18457 10.4617L6.18448 10.4617H6.15558L6.12677 10.4328L6.12668 10.4328L6.09787 10.4039L6.09778 10.4039H6.06888L6.04007 10.375L6.03998 10.375L6.01117 10.3461L6.01108 10.3461L5.98227 10.3172L5.98218 10.3172L5.95337 10.2883V10.2594V10.2305V10.2016L5.98218 10.1728L5.98227 10.1727V10.1438L6.01108 10.115L6.01117 10.1149V10.086V10.0571L6.03998 10.0283L6.04007 10.0282V9.99935L6.06888 9.97054L6.06897 9.97045V9.94155V9.91265L6.09778 9.88384L6.09787 9.88375V9.85485L6.12668 9.82604L6.12677 9.82595V9.79705L6.15558 9.76824L6.15567 9.76815V9.73925V9.71035L6.18448 9.68154L6.18457 9.68145V9.65255L6.21338 9.62374L6.21347 9.62365V9.59475L6.24228 9.56594L6.24237 9.56585V9.53695L6.27118 9.50814L6.27127 9.50805V9.47915V9.45025L6.30008 9.42145L6.30017 9.42136V9.39246L6.32898 9.36365L6.32907 9.36356V9.33466L6.35788 9.30585L6.35797 9.30576V9.27686V9.24796L6.38678 9.21915L6.38687 9.21906V9.19016L6.41568 9.16135L6.41577 9.16126V9.13236V9.10346L6.44458 9.07465L6.44467 9.07456V9.04566L6.47348 9.01685L6.47357 9.01676V8.98786V8.95896L6.50238 8.93015L6.50247 8.93006V8.90116V8.87226L6.53128 8.84345L6.53137 8.84336V8.81446L6.56018 8.78565L6.56027 8.78556V8.75666V8.72777L6.58908 8.69896L6.58917 8.69887V8.66997V8.64107L6.61797 8.61226L6.61806 8.61217V8.58327L6.64687 8.55446L6.64696 8.55437V8.52547V8.49657L6.67577 8.46776L6.67586 8.46767V8.43877L6.70467 8.40996L6.70476 8.40987V8.38097V8.35207L6.73357 8.32326L6.73366 8.32317V8.29427L6.76247 8.26546L6.76256 8.26537V8.23647V8.20757L6.79137 8.17876L6.79146 8.17867V8.14977L6.82027 8.12096L6.82036 8.12087V8.09197L6.84917 8.06316L6.84926 8.06307V8.03418V8.00528L6.87807 7.97647L6.87816 7.97638V7.94748L6.90697 7.91867L6.90706 7.91858V7.88968L6.93587 7.86087L6.93596 7.86078V7.83188V7.80298L6.96477 7.77417L6.96486 7.77408V7.74518L6.99367 7.71637L6.99376 7.71628V7.68738L7.02257 7.65857L7.05138 7.68738L7.05147 7.68747L7.08028 7.71628V7.74518L7.08037 7.74527L7.10918 7.77408V7.80298L7.10927 7.80307L7.13808 7.83188L7.13817 7.83197L7.16698 7.86078V7.88968L7.16707 7.88977L7.19588 7.91858V7.94748L7.19597 7.94757L7.22478 7.97638L7.22487 7.97647L7.25368 8.00528V8.03418L7.25377 8.03427L7.28258 8.06307V8.09197L7.28267 8.09206L7.31147 8.12087V8.14977L7.31156 8.14986L7.34037 8.17867L7.34046 8.17876L7.36927 8.20757V8.23647L7.36936 8.23656L7.39817 8.26537V8.29427L7.39826 8.29436L7.42707 8.32317V8.35207L7.42716 8.35216L7.45597 8.38097V8.40987L7.45606 8.40996L7.48487 8.43877L7.48496 8.43886L7.51377 8.46767V8.49657L7.51386 8.49666L7.54267 8.52547V8.55437L7.54276 8.55446L7.57157 8.58327L7.57166 8.58336L7.60047 8.61217V8.64107L7.60056 8.64116L7.62937 8.66997V8.69887L7.62946 8.69896L7.65827 8.72777L7.65836 8.72786L7.68717 8.75666V8.78556L7.68726 8.78565L7.71607 8.81446L7.71616 8.81455L7.74497 8.84336L7.74506 8.84345L7.77387 8.87226L7.77396 8.87235L7.80277 8.90116L7.80286 8.90125L7.83167 8.93006L7.83176 8.93015L7.86057 8.95896L7.86066 8.95905H7.88956L7.91837 8.98786L7.91846 8.98795L7.94727 9.01676L7.94736 9.01685H7.97626L8.00506 9.04566L8.00515 9.04575L8.03396 9.07456L8.03405 9.07465H8.06295L8.09176 9.10346L8.09185 9.10355H8.12075H8.14965L8.17846 9.13236L8.17855 9.13245H8.20745H8.23635L8.26516 9.16126L8.26525 9.16135H8.29415H8.32305H8.35195H8.38085L8.40966 9.19016L8.40975 9.19025H8.43865H8.46755H8.49645H8.52535H8.55425H8.58315H8.61205L8.64086 9.21906L8.64095 9.21915H8.66985H8.69874H8.72764H8.75654H8.78544H8.81434H8.84324H8.87214H8.90104H8.92994H8.95884H8.98774H9.01664H9.04554H9.07444H9.10334H9.13224H9.16114H9.19004H9.21894H9.24784H9.27674H9.30564H9.33454H9.36344H9.39234H9.42123H9.45013H9.47903L9.47912 9.21906L9.50793 9.19025H9.53683H9.56573H9.59463H9.62353H9.65243H9.68133H9.71023H9.73913H9.76803H9.79693H9.82583H9.85473H9.88363H9.91253H9.94143H9.97033H9.99923H10.0281H10.057H10.0859H10.1148H10.1437H10.1726H10.2015H10.2304H10.2593H10.2882H10.3171H10.346H10.3749H10.4038H10.4327H10.4616H10.4905H10.5194H10.5483H10.5772H10.6061H10.635H10.6639H10.6928H10.7217H10.7506H10.7795H10.8084H10.8373H10.8662H10.8951H10.924H10.9529L10.9817 9.21906V9.24796V9.27686V9.30576V9.33466V9.36356V9.39246V9.42136V9.45025V9.47915V9.50805V9.53695V9.56585V9.59475V9.62365V9.65255V9.68145V9.71035V9.73925V9.76815V9.79705V9.82595V9.85485V9.88375V9.91265V9.94155V9.97045V9.99935V10.0282V10.0571V10.086V10.1149V10.1438V10.1727V10.2016V10.2305V10.2594V10.2883V10.3172V10.3461V10.375V10.4039V10.4328V10.4617V10.4906V10.5195V10.5484V10.5773V10.6062V10.6351V10.664V10.6929V10.7218V10.7507V10.7796V10.8085V10.8374V10.8663V10.8952V10.9241V10.953V10.9819V11.0108V11.0397V11.0686V11.0975V11.1264V11.1553V11.1842V11.2131V11.242V11.2709V11.2998V11.3287V11.3576V11.3865V11.4154V11.4443V11.4732V11.5021V11.531V11.5599V11.5888V11.6177V11.6466V11.6755V11.7044V11.7333V11.7622V11.7911V11.82V11.8489V11.8778V11.9067V11.9356V11.9645V11.9934V12.0223V12.0512V12.0801V12.109V12.1379V12.1668V12.1957V12.2246V12.2535V12.2824V12.3113V12.3402V12.3691V12.398V12.4269V12.4558V12.4847V12.5136V12.5425V12.5714V12.6003V12.6292V12.6581V12.687V12.7159V12.7448V12.7737V12.8026V12.8315V12.8604V12.8893V12.9182V12.9471V12.976V13.0049V13.0338V13.0627V13.0916V13.1205V13.1494V13.1783V13.2072V13.2361V13.265V13.2939V13.3228V13.3517V13.3806V13.4095V13.4384V13.4673V13.4962V13.5251V13.554V13.5829V13.6118V13.6407V13.6696V13.6985V13.7274V13.7563V13.7852V13.8141V13.843V13.8719V13.9008V13.9297V13.9586V13.9875V14.0164V14.0453V14.0742V14.1031V14.132V14.1609V14.1898V14.2187V14.2476V14.2765V14.3054V14.3343V14.3632V14.3921V14.421V14.4499V14.4788V14.5077V14.5366V14.5655V14.5944V14.6233V14.6522V14.6811V14.71V14.7389V14.7678V14.7967V14.8256V14.8545V14.8834V14.9123V14.9412L10.9818 14.9413H11.0107L11.0108 14.9412L11.0396 14.9124L11.0397 14.9123L11.0685 14.8835L11.0686 14.8834L11.0974 14.8546L11.0975 14.8545L11.1263 14.8257L11.1264 14.8256L11.1552 14.7968L11.1553 14.7967L11.1841 14.7679L11.1842 14.7678L11.213 14.739L11.2131 14.7389L11.2419 14.7101L11.242 14.71L11.2708 14.6812H11.2997L11.2998 14.6811L11.3286 14.6523L11.3287 14.6522L11.3575 14.6234L11.3576 14.6233L11.3864 14.5945L11.3865 14.5944L11.4153 14.5656L11.4154 14.5655L11.4442 14.5367L11.4443 14.5366L11.4731 14.5078L11.4732 14.5077L11.502 14.4789L11.5021 14.4788L11.5309 14.45L11.531 14.4499L11.5598 14.4211L11.5599 14.421L11.5887 14.3922L11.5888 14.3921V14.3632V14.3343V14.3054V14.2765V14.2476V14.2187V14.1898V14.1609V14.132V14.1031V14.0742V14.0453V14.0164V13.9875V13.9586V13.9297V13.9008V13.8719V13.843V13.8141V13.7852V13.7563V13.7274V13.6985V13.6696V13.6407V13.6118V13.5829V13.554V13.5251V13.4962V13.4673V13.4384V13.4095V13.3806V13.3517V13.3228V13.2939V13.265V13.2361V13.2072V13.1783V13.1494V13.1205V13.0916V13.0627V13.0338V13.0049V12.976V12.9471V12.9182V12.8893V12.8604V12.8315V12.8026V12.7737V12.7448V12.7159V12.687V12.6581V12.6292V12.6003V12.5714V12.5425V12.5136V12.4847V12.4558V12.4269V12.398V12.3691V12.3402V12.3113V12.2824V12.2535V12.2246V12.1957V12.1668V12.1379V12.109V12.0801V12.0512V12.0223V11.9934V11.9645V11.9356V11.9067V11.8778V11.8489V11.82V11.7911V11.7622V11.7333V11.7044V11.6755V11.6466V11.6177V11.5888V11.5599V11.531V11.5021V11.4732V11.4443V11.4154V11.3865V11.3576V11.3287V11.2998V11.2709V11.242V11.2131V11.1842V11.1553V11.1264V11.0975V11.0686V11.0397V11.0108V10.9819V10.953V10.9241V10.8952V10.8663V10.8374V10.8085V10.7796V10.7507V10.7218V10.6929V10.664V10.6351V10.6062V10.5773V10.5484V10.5195V10.4906V10.4617V10.4328V10.4039V10.375V10.3461V10.3172V10.2883V10.2594V10.2305V10.2016V10.1727V10.1438V10.1149V10.086V10.0571V10.0282V9.99935V9.97045V9.94155V9.91265V9.88375V9.85485V9.82595V9.79705V9.76815V9.73925V9.71035V9.68145V9.65255V9.62365V9.59475V9.56585V9.53695V9.50805V9.47915V9.45025V9.42136V9.39246V9.36356V9.33466V9.30576V9.27686V9.24796V9.21906L11.6176 9.19025H11.6465L11.6466 9.19016L11.6754 9.16135H11.7043H11.7332H11.7621H11.791H11.8199H11.8488H11.8777H11.9066H11.9355H11.9644H11.9933H12.0222H12.0511L12.0512 9.16126L12.08 9.13245H12.1089H12.1378H12.1667H12.1956L12.1957 9.13236L12.2245 9.10355H12.2534H12.2823L12.2824 9.10346L12.3112 9.07465H12.3401L12.3402 9.07456L12.369 9.04575L12.3691 9.04566L12.3979 9.01685H12.4268L12.4269 9.01676L12.4557 8.98795L12.4558 8.98786L12.4846 8.95905L12.4847 8.95896V8.93006L12.5135 8.90125L12.5136 8.90116L12.5424 8.87235L12.5425 8.87226V8.84336L12.5713 8.81455L12.5714 8.81446V8.78556L12.6002 8.75675L12.6003 8.75666V8.72777V8.69887V8.66997L12.6291 8.64116L12.6292 8.64107V8.61217V8.58327V8.55437V8.52547L12.658 8.49666L12.6581 8.49657V8.46767V8.43877V8.40987L12.658 8.40978L12.6292 8.38097V8.35207V8.32317V8.29427V8.26537V8.23647L12.6291 8.23638L12.6003 8.20757V8.17867V8.14977L12.6002 8.14968L12.5714 8.12087V8.09197L12.5713 8.09188L12.5425 8.06307V8.03418L12.5424 8.03409L12.5136 8.00528V7.97638L12.5135 7.97629L12.4847 7.94748L12.4846 7.94739L12.4558 7.91858L12.4557 7.91849L12.4269 7.88968L12.4268 7.88959L12.398 7.86078L12.3979 7.86069L12.3691 7.83188L12.369 7.83179H12.3401L12.3113 7.80298L12.3112 7.80289L12.2824 7.77408L12.2823 7.77399H12.2534H12.2245L12.1957 7.74518L12.1956 7.74509H12.1667L12.1379 7.71628L12.1378 7.71619H12.1089H12.08H12.0511H12.0222L11.9934 7.68738L11.9933 7.68729H11.9644H11.9355H11.9066H11.8777H11.8488H11.8199H11.791H11.7621H11.7332H11.7043H11.6754H11.6465L11.6177 7.65848L11.6176 7.65839L11.5888 7.62958V7.60068V7.57178V7.54288V7.51398V7.48508V7.45618V7.42728V7.39838V7.36948V7.34058V7.31169V7.28279V7.25389V7.22499V7.19609V7.16719V7.13829V7.10939V7.08049V7.05159V7.02269V6.99379V6.96489V6.93599V6.90709V6.87819V6.84929V6.82039V6.79149V6.76259V6.73369V6.70479V6.67589V6.64699V6.6181L11.5887 6.61801L11.5599 6.5892V6.5603V6.5314L11.5598 6.53131L11.531 6.5025V6.4736L11.5309 6.47351L11.5021 6.4447L11.502 6.44461L11.4732 6.4158L11.4731 6.41571H11.4442L11.4154 6.3869L11.4153 6.38681L11.3865 6.358L11.3864 6.35791H11.3575H11.3286H11.2997L11.2709 6.3291L11.2708 6.32901H11.2419L11.2418 6.3291L11.213 6.35791H11.1841H11.1552L11.1551 6.358L11.1263 6.38681L11.1262 6.3869L11.0974 6.41571L11.0973 6.4158L11.0685 6.44461L11.0684 6.4447L11.0396 6.47351L11.0395 6.4736L11.0107 6.50241L11.0106 6.5025V6.5314V6.5603L10.9818 6.58911L10.9817 6.5892V6.6181V6.64699V6.67589V6.70479V6.73369V6.76259V6.79149V6.82039V6.84929V6.87819V6.90709V6.93599V6.96489V6.99379V7.02269V7.05159V7.08049V7.10939V7.13829V7.16719V7.19609V7.22499V7.25389V7.28279V7.31169V7.34058V7.36948V7.39838V7.42728V7.45618V7.48508V7.51398V7.54288V7.57178V7.60068V7.62958V7.65848L10.9529 7.68729H10.924H10.8951H10.8662H10.8373H10.8084H10.7795H10.7506H10.7217H10.6928H10.6639H10.635H10.6061H10.5772H10.5483H10.5194H10.4905H10.4616H10.4327H10.4038H10.3749H10.346H10.3171H10.2882H10.2593H10.2304H10.2015H10.1726H10.1437H10.1148H10.0859H10.057H10.0281H9.99923H9.97033H9.94143H9.91253H9.88363H9.85473H9.82583H9.79693H9.76803H9.73913H9.71023H9.68133H9.65243H9.62353H9.59463H9.56573H9.53683H9.50793H9.47903H9.45013L9.45004 7.68738L9.42123 7.71619L9.39242 7.68738L9.39234 7.68729L9.39225 7.68738L9.36344 7.71619H9.33454H9.30564H9.27674H9.24784H9.21894H9.19004H9.16114H9.13224H9.10334H9.07444H9.04554H9.01664H8.98774H8.95884H8.92994L8.90113 7.68738L8.90104 7.68729L8.87223 7.65848V7.62958L8.87214 7.62949L8.84333 7.60068L8.84324 7.60059L8.81443 7.57178V7.54288L8.81434 7.54279L8.78553 7.51398V7.48508L8.78544 7.48499L8.75663 7.45618V7.42728L8.75654 7.42719L8.72773 7.39838V7.36948L8.72764 7.36939L8.69883 7.34058L8.69874 7.34049L8.66994 7.31169V7.28279L8.66985 7.2827L8.64104 7.25389V7.22499L8.64095 7.2249L8.61214 7.19609V7.16719L8.61205 7.1671L8.58324 7.13829V7.10939L8.58315 7.1093L8.55434 7.08049V7.05159L8.55425 7.0515L8.52544 7.02269V6.99379L8.52535 6.9937L8.49654 6.96489V6.93599L8.49645 6.9359L8.46764 6.90709L8.46755 6.907L8.43874 6.87819V6.84929L8.43865 6.8492L8.40984 6.82039V6.79149L8.40975 6.7914L8.38094 6.76259V6.73369L8.38085 6.7336L8.35204 6.70479V6.67589L8.35195 6.6758L8.32314 6.64699L8.32305 6.6469L8.29424 6.6181V6.5892L8.29415 6.58911L8.26534 6.5603V6.5314L8.26525 6.53131L8.23644 6.5025V6.4736L8.23635 6.47351L8.20754 6.4447L8.20745 6.44461L8.17864 6.4158V6.3869L8.17855 6.38681L8.14974 6.358V6.3291L8.14965 6.32901L8.12084 6.3002V6.2713L8.12075 6.27121L8.09194 6.2424V6.2135L8.09185 6.21341L8.06304 6.1846L8.06295 6.18451L8.03414 6.1557V6.1268L8.03405 6.12671L8.00524 6.0979V6.069L8.00515 6.06891L7.97635 6.0401V6.0112L7.97626 6.01111L7.94745 5.9823V5.9534L7.94736 5.95331L7.91855 5.92451V5.89561L7.91846 5.89552L7.88965 5.86671V5.83781L7.88956 5.83772L7.86075 5.80891L7.86066 5.80882L7.83185 5.78001V5.75111L7.83176 5.75102L7.80295 5.72221V5.69331L7.80286 5.69322L7.77405 5.66441L7.77396 5.66432L7.74515 5.63551V5.60661L7.74506 5.60652L7.71625 5.57771V5.54881L7.71616 5.54872L7.68735 5.51991L7.68726 5.51982L7.65845 5.49101L7.65836 5.49092L7.62955 5.46211V5.43321L7.62946 5.43312L7.60065 5.40431L7.60056 5.40422L7.57175 5.37541V5.34651L7.57166 5.34642L7.54285 5.31761L7.54276 5.31752L7.51395 5.28871L7.51386 5.28862L7.48505 5.25981L7.48496 5.25972L7.45615 5.23091V5.20202L7.45606 5.20193L7.42725 5.17312L7.42716 5.17303L7.39835 5.14422L7.39826 5.14413L7.36945 5.11532L7.36936 5.11523L7.34055 5.08642L7.34046 5.08633L7.31165 5.05752L7.31156 5.05743H7.28267L7.25386 5.02862L7.25377 5.02853L7.22496 4.99972L7.22487 4.99963L7.19606 4.97082L7.19597 4.97073H7.16707L7.13826 4.94192L7.13817 4.94183L7.10936 4.91302L7.10927 4.91293H7.08037L7.05156 4.88412L7.05147 4.88403H7.02257L6.99376 4.85522L6.99367 4.85513L6.96486 4.82632L6.96477 4.82623H6.93587H6.90697L6.87816 4.79742L6.87807 4.79733H6.84917L6.82036 4.76852L6.82027 4.76843H6.79137H6.76247H6.73357L6.70476 4.73962L6.70467 4.73953H6.67577H6.64687H6.61797H6.58908H6.56018H6.53128L6.50247 4.71072L6.50238 4.71063H6.47348H6.44458H6.41568H6.38678H6.35788H6.32898L6.32889 4.71072L6.30008 4.73953H6.27118H6.24228H6.21338H6.18448H6.15558H6.12668L6.12659 4.73962L6.09778 4.76843H6.06888H6.03998L6.03989 4.76852L6.01108 4.79733H5.98218H5.95328L5.95319 4.79742L5.92438 4.82623H5.89549L5.8954 4.82632L5.86659 4.85513H5.83769L5.8376 4.85522L5.80879 4.88403H5.77989L5.7798 4.88412L5.75099 4.91293H5.72209L5.722 4.91302L5.69319 4.94183H5.66429L5.6642 4.94192L5.63539 4.97073L5.6353 4.97082L5.60649 4.99963L5.6064 4.99972L5.57759 5.02853H5.54869L5.5486 5.02862L5.51979 5.05743L5.5197 5.05752L5.49089 5.08633L5.4908 5.08642L5.46199 5.11523L5.4619 5.11532L5.43309 5.14413L5.433 5.14422L5.40419 5.17303L5.4041 5.17312L5.37529 5.20193L5.3752 5.20202V5.23091L5.34639 5.25972L5.3463 5.25981L5.31749 5.28862L5.3174 5.28871L5.28859 5.31752L5.2885 5.31761V5.34651L5.25969 5.37532L5.2596 5.37541L5.23079 5.40422L5.2307 5.40431V5.43321L5.2019 5.46202L5.20181 5.46211V5.49101L5.173 5.51982L5.17291 5.51991V5.54881L5.1441 5.57762L5.14401 5.57771V5.60661L5.1152 5.63542L5.11511 5.63551V5.66441L5.0863 5.69322L5.08621 5.69331V5.72221V5.75111L5.0574 5.77992L5.05731 5.78001V5.80891L5.0285 5.83772L5.02841 5.83781V5.86671V5.89561L4.9996 5.92442L4.99951 5.92451V5.9534V5.9823L4.9707 6.01111L4.97061 6.0112V6.0401L4.9418 6.06891L4.94171 6.069V6.0979V6.1268L4.9129 6.15561L4.91281 6.1557V6.1846L4.884 6.21341L4.88391 6.2135V6.2424V6.2713L4.8551 6.30011L4.85501 6.3002V6.3291L4.8262 6.35791L4.82611 6.358V6.3869V6.4158L4.7973 6.44461L4.79721 6.4447V6.4736L4.7684 6.50241L4.76831 6.5025V6.5314L4.7395 6.56021L4.73941 6.5603V6.5892V6.6181L4.7106 6.6469L4.71051 6.64699V6.67589L4.6817 6.7047L4.68161 6.70479V6.73369L4.6528 6.7625L4.65271 6.76259V6.79149V6.82039L4.6239 6.8492L4.62381 6.84929V6.87819L4.595 6.907L4.59491 6.90709V6.93599L4.5661 6.9648L4.56601 6.96489V6.99379V7.02269L4.5372 7.0515L4.53711 7.05159V7.08049L4.50831 7.1093L4.50822 7.10939V7.13829V7.16719L4.47941 7.196L4.47932 7.19609V7.22499L4.45051 7.2538L4.45042 7.25389V7.28279L4.42161 7.3116L4.42152 7.31169V7.34058V7.36948L4.39271 7.39829L4.39262 7.39838V7.42728L4.36381 7.45609L4.36372 7.45618V7.48508V7.51398L4.33491 7.54279L4.33482 7.54288V7.57178L4.30601 7.60059L4.30592 7.60068V7.62958L4.27711 7.65839L4.27702 7.65848V7.68738V7.71628L4.24821 7.74509L4.24812 7.74518V7.77408L4.21931 7.80289L4.21922 7.80298V7.83188V7.86078L4.19041 7.88959L4.19032 7.88968V7.91858L4.16151 7.94739L4.16142 7.94748V7.97638V8.00528L4.13261 8.03409L4.13252 8.03418V8.06307L4.10371 8.09188L4.10362 8.09197V8.12087V8.14977L4.07481 8.17858L4.07472 8.17867V8.20757L4.04591 8.23638L4.04582 8.23647V8.26537L4.01701 8.29418L4.01692 8.29427V8.32317V8.35207L3.98811 8.38088L3.98802 8.38097V8.40987L3.95921 8.43868L3.95912 8.43877V8.46767V8.49657L3.93031 8.52538L3.93022 8.52547V8.55437L3.90141 8.58318L3.90132 8.58327V8.61217V8.64107L3.87251 8.66988L3.87242 8.66997V8.69887L3.84361 8.72768L3.84352 8.72777V8.75666V8.78556L3.81471 8.81437L3.81463 8.81446V8.84336L3.78582 8.87217L3.78573 8.87226V8.90116V8.93006L3.75692 8.95887L3.75683 8.95896V8.98786L3.72802 9.01667L3.72793 9.01676V9.04566L3.69912 9.07447L3.69903 9.07456V9.10346V9.13236L3.67022 9.16117L3.67013 9.16126V9.19016L3.64132 9.21897L3.64123 9.21906V9.24796L3.61242 9.27677L3.61233 9.27686V9.30576V9.33466L3.58352 9.36347L3.58343 9.36356V9.39246L3.55462 9.42127L3.55453 9.42136V9.45025L3.52572 9.47906L3.52563 9.47915V9.50805L3.49682 9.53686L3.49673 9.53695V9.56585L3.46792 9.59466L3.46783 9.59475V9.62365L3.43902 9.65246L3.43893 9.65255V9.68145L3.41012 9.71026L3.41003 9.71035V9.73925L3.38122 9.76806L3.38113 9.76815V9.79705V9.82595L3.35232 9.85476L3.35223 9.85485V9.88375L3.32342 9.91256L3.32333 9.91265V9.94155L3.29452 9.97036L3.29443 9.97045V9.99935V10.0282L3.26562 10.0571L3.26553 10.0571V10.086V10.1149V10.1438L3.23672 10.1727L3.23663 10.1727V10.2016V10.2305V10.2594V10.2883V10.3172V10.3461V10.375V10.4039V10.4328V10.4617V10.4906V10.5195V10.5484V10.5773V10.6062V10.6351L3.23672 10.6352L3.26553 10.664V10.6929V10.7218L3.26562 10.7219L3.29443 10.7507V10.7796V10.8085L3.29452 10.8086L3.32333 10.8374V10.8663L3.32342 10.8664L3.35223 10.8952L3.35232 10.8953L3.38113 10.9241V10.953L3.38122 10.9531L3.41003 10.9819V11.0108L3.41012 11.0109L3.43893 11.0397L3.43902 11.0398L3.46783 11.0686L3.46792 11.0687L3.49673 11.0975L3.49682 11.0976L3.52563 11.1264L3.52572 11.1265L3.55453 11.1553L3.55462 11.1554L3.58343 11.1842L3.58352 11.1843L3.61233 11.2131L3.61242 11.2132L3.64123 11.242L3.64132 11.2421L3.67013 11.2709L3.67022 11.271H3.69912L3.72793 11.2998L3.72802 11.2999L3.75683 11.3287L3.75692 11.3288L3.78573 11.3576L3.78582 11.3577H3.81471L3.84352 11.3865L3.84361 11.3866L3.87242 11.4154L3.87251 11.4155H3.90141L3.93022 11.4443L3.93031 11.4444L3.95912 11.4732L3.95921 11.4733H3.98811L4.01692 11.5021L4.01701 11.5022L4.04582 11.531L4.04591 11.5311L4.07472 11.5599L4.07481 11.56H4.10371L4.13252 11.5888L4.13261 11.5889L4.16142 11.6177L4.16151 11.6178H4.19041L4.21922 11.6466L4.21931 11.6467L4.24812 11.6755L4.24821 11.6756L4.27702 11.7044L4.27711 11.7045H4.30601L4.33482 11.7333L4.33491 11.7334L4.36372 11.7622L4.36381 11.7623L4.39262 11.7911L4.39271 11.7912H4.42161L4.45042 11.82L4.45051 11.8201L4.47932 11.8489L4.47941 11.849H4.50831L4.53711 11.8778L4.5372 11.8779L4.56601 11.9067L4.5661 11.9068H4.595L4.62381 11.9356L4.6239 11.9357L4.65271 11.9645L4.6528 11.9646H4.6817L4.71051 11.9934L4.7106 11.9935L4.73941 12.0223L4.7395 12.0224L4.76831 12.0512L4.7684 12.0513H4.7973L4.82611 12.0801L4.8262 12.0802L4.85501 12.109L4.8551 12.1091H4.884L4.91281 12.1379L4.9129 12.138L4.94171 12.1668L4.9418 12.1669H4.9707L4.99951 12.1957L4.9996 12.1958L5.02841 12.2246L5.0285 12.2247L5.05731 12.2535L5.0574 12.2536H5.0863L5.11511 12.2824L5.1152 12.2825L5.14401 12.3113L5.1441 12.3114H5.173L5.20181 12.3402L5.2019 12.3403L5.2307 12.3691L5.23079 12.3692H5.25969L5.2885 12.398L5.28859 12.3981L5.3174 12.4269L5.31749 12.427L5.3463 12.4558L5.34639 12.4559H5.37529L5.4041 12.4847L5.40419 12.4848L5.433 12.5136L5.43309 12.5137H5.46199L5.4908 12.5425L5.49089 12.5426L5.5197 12.5714L5.51979 12.5715H5.54869L5.5775 12.6003L5.57759 12.6004L5.6064 12.6292L5.60649 12.6293H5.63539L5.6642 12.6581L5.66429 12.6582L5.6931 12.687L5.69319 12.6871H5.72209L5.7509 12.7159L5.75099 12.716L5.7798 12.7448L5.77989 12.7449H5.80879L5.8376 12.7737L5.83769 12.7738L5.8665 12.8026L5.86659 12.8027H5.89549L5.92429 12.8315L5.92438 12.8316L5.95319 12.8604L5.95328 12.8605H5.98218L6.01099 12.8893L6.01108 12.8894L6.03989 12.9182L6.03998 12.9183H6.06888L6.09769 12.9471L6.09778 12.9472L6.12659 12.976L6.12668 12.9761H6.15558L6.18439 13.0049L6.18448 13.005L6.21329 13.0338L6.21338 13.0339H6.24228L6.27109 13.0627L6.27118 13.0628L6.29999 13.0916L6.30008 13.0917H6.32898L6.35779 13.1205L6.35788 13.1206H6.38678L6.41559 13.1494L6.41568 13.1495L6.44449 13.1783L6.44458 13.1784H6.47348L6.50229 13.2072L6.50238 13.2073L6.53119 13.2361L6.53128 13.2362H6.56018L6.58899 13.265L6.58908 13.2651L6.61788 13.2939L6.61797 13.294H6.64687L6.67568 13.3228L6.67577 13.3229L6.70458 13.3517L6.70467 13.3518H6.73357L6.76238 13.3806L6.76247 13.3807L6.79128 13.4095L6.79137 13.4096H6.82027L6.84908 13.4384L6.84917 13.4385L6.87798 13.4673L6.87807 13.4674L6.90688 13.4962L6.90697 13.4963L6.93578 13.5251V13.554V13.5829V13.6118V13.6407V13.6696L6.93587 13.6697L6.96468 13.6985V13.7274V13.7563V13.7852V13.8141V13.843L6.96477 13.8431L6.99358 13.8719V13.9008V13.9297V13.9586L6.99367 13.9587L7.02248 13.9875V14.0164V14.0453V14.0742L7.02257 14.0743L7.05138 14.1031V14.132V14.1609V14.1898V14.2187L7.05147 14.2188L7.08028 14.2476V14.2765V14.3054V14.3343V14.3632L7.08037 14.3633L7.10918 14.3921V14.421V14.4499V14.4788V14.5077L7.10927 14.5078L7.13808 14.5366V14.5655V14.5944V14.6233V14.6522V14.6811L7.13817 14.6812L7.16698 14.71V14.7389V14.7678V14.7967V14.8256V14.8545L7.16707 14.8546L7.19588 14.8834V14.9123V14.9412V14.9701V14.999L7.19597 14.9991L7.22478 15.0279V15.0568V15.0857V15.1146V15.1435L7.22487 15.1436L7.25368 15.1724V15.2013V15.2302V15.2591V15.288L7.25377 15.2881L7.28258 15.3169V15.3458V15.3747V15.4036L7.28267 15.4037L7.31147 15.4325V15.4614V15.4903V15.5192V15.5481L7.31156 15.5482L7.34037 15.577V15.6059V15.6348V15.6637L7.34046 15.6638L7.36927 15.6926V15.7215V15.7504V15.7793V15.8082L7.36936 15.8083L7.39817 15.8371V15.866V15.8949V15.9238L7.39826 15.9239L7.42707 15.9527V15.9816V16.0105V16.0394L7.42716 16.0395L7.45597 16.0683V16.0972V16.1261V16.155V16.1839L7.45606 16.1839L7.48487 16.2128V16.2417V16.2706V16.2995V16.3284L7.48496 16.3284L7.51377 16.3573V16.3862V16.4151V16.444V16.4729L7.51386 16.4729L7.54267 16.5018V16.5307V16.5596V16.5885L7.54276 16.5885L7.57157 16.6174V16.6463V16.6752L7.57166 16.6752L7.60047 16.7041V16.733V16.7619L7.60056 16.7619L7.62937 16.7908V16.8197L7.62946 16.8197L7.65827 16.8485V16.8774L7.65836 16.8775L7.68717 16.9063L7.68726 16.9064L7.71607 16.9352V16.9641L7.71616 16.9642L7.74497 16.993L7.74506 16.9931L7.77387 17.0219V17.0508L7.77396 17.0509L7.80277 17.0797L7.80286 17.0798L7.83167 17.1086L7.83176 17.1087L7.86057 17.1375L7.86066 17.1376L7.88947 17.1664L7.88956 17.1665L7.91837 17.1953L7.91846 17.1954H7.94736L7.97617 17.2242L7.97626 17.2243L8.00506 17.2531L8.00515 17.2532H8.03405L8.06286 17.282L8.06295 17.2821H8.09185L8.12066 17.3109L8.12075 17.311H8.14965H8.17855L8.20736 17.3398L8.20745 17.3399H8.23635H8.26525L8.29406 17.3687L8.29415 17.3688H8.32305H8.35195H8.38085H8.40975H8.43865H8.46755H8.49645H8.52535H8.55425H8.58315H8.61205H8.64095H8.66985H8.69874H8.72764H8.75654H8.78544L8.78553 17.3687Z" fill="black"/>
<path d="M2.54334 21.3858L2.57215 21.357H2.60105H2.62995H2.65885H2.68775H2.71665H2.74555H2.77445H2.80335H2.83225H2.86115H2.89005H2.91895H2.94785H2.97675H3.00565H3.03455H3.06345H3.09235H3.12124H3.15014H3.17904H3.20794H3.23684H3.26574H3.29464H3.32354H3.35244H3.38134H3.41024H3.43914H3.46804H3.49694H3.52584H3.55474H3.58364H3.61254H3.64144H3.67034H3.69924H3.72814H3.75704H3.78594H3.81483H3.84373H3.87263H3.90153H3.93043H3.95933H3.98823H4.01713H4.04603H4.07493H4.10383H4.13273H4.16163H4.19053H4.21943H4.24833H4.27723H4.30613H4.33503H4.36393H4.39283H4.42173H4.45063H4.47953H4.50842H4.53732H4.56622H4.59512H4.62402H4.65292H4.68182H4.71072H4.73962H4.76852H4.79742H4.82632H4.85522H4.88412H4.91302H4.94192H4.97082H4.99972H5.02862H5.05752H5.08642H5.11532H5.14422H5.17312H5.20201H5.23091H5.25981H5.28871H5.31761H5.34651H5.37541H5.40431H5.43321H5.46211H5.49101H5.51991H5.54881H5.57771H5.60661H5.63551H5.66441H5.69331H5.72221H5.75111H5.78001H5.80891H5.83781H5.86671H5.89561H5.9245H5.9534H5.9823H6.0112H6.0401H6.069H6.0979H6.1268H6.1557H6.1846H6.2135H6.2424H6.2713H6.3002H6.3291H6.358H6.3869H6.4158H6.4447H6.4736H6.5025H6.5314H6.5603H6.5892H6.61809H6.64699H6.67589H6.70479H6.73369H6.76259H6.79149H6.82039H6.84929H6.87819H6.90709H6.93599H6.96489H6.99379H7.02269H7.05159H7.08049H7.10939H7.13829H7.16719H7.19609H7.22499H7.25389H7.28279H7.31168H7.34058H7.36948H7.39838H7.42728H7.45618H7.48508H7.51398H7.54288H7.57178H7.60068H7.62958H7.65848H7.68738H7.71628H7.74518H7.77408H7.80298H7.83188H7.86078H7.88968H7.91858H7.94748H7.97638H8.00528H8.03417H8.06307H8.09197H8.12087H8.14977H8.17867H8.20757H8.23647H8.26537H8.29427H8.32317H8.35207H8.38097H8.40987H8.43877H8.46767H8.49657H8.52547H8.55437H8.58327H8.61217H8.64107H8.66997H8.69887H8.72776H8.75666H8.78556H8.81446H8.84336H8.87226H8.90116H8.93006H8.95896H8.98786H9.01676H9.04566H9.07456H9.10346H9.13236H9.16126H9.19016H9.21906H9.24796H9.27686H9.30576H9.33466H9.36356H9.39246H9.42135H9.45025H9.47915H9.50805H9.53695H9.56585H9.59475H9.62365H9.65255H9.68145H9.71035H9.73925H9.76815H9.79705H9.82595H9.85485H9.88375H9.91265H9.94155H9.97045H9.99935H10.0282H10.0571H10.086H10.1149H10.1438H10.1727H10.2016H10.2305H10.2594H10.2883H10.3172H10.3461H10.375H10.4039H10.4328H10.4617H10.4906H10.5195H10.5484H10.5773H10.6062H10.6351H10.664H10.6929H10.7218H10.7507H10.7796H10.8085H10.8374H10.8663H10.8952H10.9241H10.953H10.9819H11.0108H11.0397H11.0686H11.0975H11.1264H11.1553H11.1842H11.2131H11.242H11.2709H11.2998H11.3287H11.3576H11.3865H11.4154H11.4443H11.4732H11.5021H11.531H11.5599H11.5888H11.6177H11.6466H11.6755H11.7044H11.7333H11.7622H11.7911H11.82H11.8489H11.8778H11.9067H11.9356H11.9645H11.9934H12.0223H12.0512H12.0801H12.109H12.1379H12.1668H12.1957H12.2246H12.2535H12.2824H12.3113H12.3402H12.3691H12.398H12.4269H12.4558H12.4847H12.5136H12.5425H12.5714H12.6003H12.6292H12.6581H12.687H12.7159H12.7448H12.7737H12.8026H12.8315H12.8604H12.8893H12.9182H12.9471H12.976H13.0049H13.0338H13.0627H13.0916H13.1205H13.1494H13.1783H13.2072H13.2361H13.265H13.2939H13.3228H13.3517H13.3806H13.4095H13.4384H13.4673H13.4962H13.5251H13.554H13.5829H13.6118H13.6407H13.6696H13.6985H13.7274H13.7563H13.7852H13.8141H13.843H13.8719H13.9008H13.9297H13.9586H13.9875H14.0164H14.0453H14.0742H14.1031H14.132H14.1609H14.1898H14.2187H14.2476H14.2765H14.3054H14.3343H14.3632H14.3921H14.421H14.4499H14.4788H14.5077H14.5366H14.5655H14.5944H14.6233H14.6522H14.6811H14.71H14.7389H14.7678H14.7967H14.8256H14.8545H14.8834H14.9123H14.9412H14.9701H14.999H15.0279H15.0568H15.0857H15.1146H15.1435H15.1724H15.2013H15.2302H15.2591H15.288H15.3169H15.3458H15.3747H15.4036H15.4325H15.4614H15.4903H15.5192H15.5481H15.577H15.6059H15.6348H15.6637H15.6926H15.7215H15.7504H15.7793H15.8082H15.8371H15.866H15.8949H15.9238H15.9527H15.9816H16.0105H16.0394H16.0683H16.0972H16.1261H16.155H16.1839H16.2128H16.2417H16.2706H16.2995H16.3284H16.3573H16.3862H16.4151H16.444H16.4729H16.5018H16.5307H16.5596H16.5885H16.6174H16.6463H16.6752H16.7041H16.733H16.7618H16.7907H16.8196H16.8485L16.8486 21.3569V21.328V21.2991V21.2702V21.2413V21.2124V21.1835V21.1546V21.1257V21.0968V21.0679V21.039V21.0101V20.9812V20.9523V20.9234V20.8945V20.8656V20.8367V20.8078V20.7789V20.75V20.7211V20.6922V20.6633V20.6344V20.6055V20.5766V20.5477V20.5188V20.4899V20.461V20.4321V20.4032V20.3743V20.3454V20.3165V20.2876V20.2587V20.2298V20.2009V20.172V20.1431V20.1142V20.0853V20.0564V20.0275V19.9986V19.9697V19.9408V19.9119V19.883V19.8541V19.8252V19.7963V19.7674V19.7385V19.7096V19.6807V19.6518V19.6229V19.594V19.5651V19.5362V19.5073V19.4784V19.4495V19.4206V19.3917V19.3628V19.3339V19.305V19.2761V19.2472V19.2183V19.1894V19.1605V19.1316V19.1027V19.0738V19.0449V19.016V18.9871V18.9582V18.9293V18.9004V18.8715V18.8426V18.8137V18.7848V18.7559V18.727V18.6981V18.6692V18.6403V18.6114V18.5825V18.5536V18.5247V18.4958V18.4669V18.438V18.4091V18.3802V18.3513V18.3224V18.2935V18.2646V18.2357V18.2068V18.1779V18.149V18.1201V18.0912V18.0623V18.0334V18.0045V17.9756V17.9467V17.9178V17.8889V17.86V17.8311V17.8022V17.7733V17.7444V17.7155V17.6866V17.6577V17.6288V17.5999V17.571V17.5421V17.5132V17.4843V17.4554V17.4265V17.3976V17.3687V17.3398V17.3109V17.282V17.2531V17.2242V17.1953V17.1664V17.1375V17.1086V17.0797V17.0508V17.0219V16.993V16.9641V16.9352V16.9063V16.8774V16.8485V16.8196V16.7907V16.7618V16.7329V16.704V16.6752V16.6463V16.6174V16.5885V16.5596V16.5307V16.5018V16.4729V16.444V16.4151V16.3862V16.3573V16.3284V16.2995V16.2706V16.2417V16.2128V16.1839V16.155V16.1261V16.0972V16.0683V16.0394V16.0105V15.9816V15.9527V15.9238V15.8949V15.866V15.8371V15.8082V15.7793V15.7504V15.7215V15.6926V15.6637V15.6348V15.6059V15.577V15.5481V15.5192V15.4903V15.4614V15.4325V15.4036V15.3747V15.3458V15.3169V15.288V15.2591V15.2302V15.2013V15.1724V15.1435V15.1146V15.0857V15.0568V15.0279V14.999V14.9701V14.9412V14.9123V14.8834V14.8545V14.8256V14.7967V14.7678V14.7389V14.71V14.6811V14.6522V14.6233V14.5944V14.5655V14.5366V14.5077V14.4788V14.4499V14.421V14.3921V14.3632V14.3343V14.3054V14.2765V14.2476V14.2187V14.1898V14.1609V14.132V14.1031V14.0742V14.0453V14.0164V13.9875V13.9586V13.9297V13.9008V13.8719V13.843V13.8141V13.7852V13.7563V13.7274V13.6985V13.6696V13.6407V13.6118V13.5829V13.554V13.5251V13.4962V13.4673V13.4384V13.4095V13.3806V13.3517V13.3228V13.2939V13.265V13.2361V13.2072V13.1783V13.1494V13.1205V13.0916V13.0627V13.0338V13.0049V12.976V12.9471V12.9182V12.8893V12.8604V12.8315V12.8026V12.7737V12.7448V12.7159V12.687V12.6581V12.6292V12.6003V12.5714V12.5425V12.5136V12.4847V12.4558V12.4269V12.398V12.3691V12.3402V12.3113V12.2824V12.2535V12.2246V12.1957V12.1668V12.1379V12.109V12.0801V12.0512V12.0223V11.9934V11.9645V11.9356V11.9067V11.8778V11.8489V11.82V11.7911V11.7622V11.7333V11.7044V11.6755V11.6466V11.6177V11.5888V11.5599V11.531V11.5021V11.4732V11.4443V11.4154V11.3865V11.3576V11.3287V11.2998V11.2709V11.242V11.2131V11.1842V11.1553V11.1264V11.0975V11.0686V11.0397V11.0108V10.9819V10.953V10.9241V10.8952V10.8663V10.8374V10.8085V10.7796V10.7507V10.7218V10.6929V10.664V10.6351V10.6062V10.5773V10.5484V10.5195V10.4906V10.4617V10.4328V10.4039V10.375V10.3461V10.3172V10.2883V10.2594V10.2305V10.2016V10.1727V10.1438V10.1149L16.8485 10.1149H16.8196L16.8196 10.1149L16.7907 10.1438L16.7907 10.1438L16.7618 10.1727L16.7618 10.1727L16.733 10.2016L16.7329 10.2016L16.7041 10.2305L16.704 10.2305L16.6752 10.2594L16.6751 10.2594L16.6463 10.2883L16.6462 10.2883L16.6174 10.3172L16.6173 10.3172L16.5885 10.346L16.5884 10.3461L16.5596 10.3749L16.5595 10.375L16.5307 10.4038L16.5306 10.4039L16.5018 10.4327L16.5017 10.4328L16.4729 10.4616L16.4728 10.4617L16.444 10.4905L16.4439 10.4906L16.4151 10.5194L16.415 10.5195L16.3862 10.5483L16.3861 10.5484L16.3573 10.5772L16.3572 10.5773L16.3284 10.6061L16.3283 10.6062L16.2995 10.635L16.2994 10.6351L16.2706 10.6639L16.2705 10.664L16.2417 10.6928L16.2416 10.6929V10.7218L16.2128 10.7506L16.2127 10.7507L16.1839 10.7795L16.1838 10.7796L16.155 10.8084L16.1549 10.8085L16.1261 10.8373L16.126 10.8374L16.0972 10.8662L16.0971 10.8663L16.0683 10.8951L16.0682 10.8952L16.0394 10.924L16.0393 10.9241L16.0105 10.9529L16.0104 10.953L15.9816 10.9818L15.9815 10.9819L15.9527 11.0107L15.9526 11.0108L15.9238 11.0396L15.9237 11.0397L15.8949 11.0685L15.8948 11.0686L15.866 11.0974L15.8659 11.0975L15.8371 11.1263L15.837 11.1264L15.8082 11.1552L15.8081 11.1553L15.7793 11.1841L15.7792 11.1842L15.7504 11.213L15.7503 11.2131L15.7215 11.2419L15.7214 11.242L15.6926 11.2708L15.6925 11.2709L15.6637 11.2997L15.6636 11.2998L15.6348 11.3286L15.6347 11.3287L15.6059 11.3575L15.6058 11.3576L15.577 11.3864L15.5769 11.3865L15.5481 11.4153L15.548 11.4154L15.5192 11.4442L15.5191 11.4443L15.4903 11.4731L15.4902 11.4732L15.4614 11.502L15.4613 11.5021L15.4325 11.5309L15.4324 11.531L15.4036 11.5598L15.4035 11.5599L15.3747 11.5887L15.3746 11.5888L15.3458 11.6176L15.3457 11.6177L15.3169 11.6465L15.3168 11.6466L15.288 11.6754L15.2879 11.6755L15.2591 11.7043H15.2302L15.2301 11.7044L15.2013 11.7332L15.2012 11.7333L15.1724 11.7621L15.1723 11.7622L15.1435 11.791L15.1434 11.7911L15.1146 11.8199L15.1145 11.82L15.0857 11.8488L15.0856 11.8489L15.0568 11.8777L15.0567 11.8778L15.0279 11.9066L15.0278 11.9067L14.999 11.9355L14.9989 11.9356L14.9701 11.9644L14.97 11.9645L14.9412 11.9933L14.9411 11.9934L14.9123 12.0222L14.9122 12.0223L14.8834 12.0511L14.8833 12.0512L14.8545 12.08L14.8544 12.0801L14.8256 12.1089L14.8255 12.109L14.7967 12.1378L14.7966 12.1379L14.7678 12.1667L14.7677 12.1668L14.7389 12.1956L14.7388 12.1957L14.71 12.2245L14.7099 12.2246L14.6811 12.2534L14.681 12.2535L14.6522 12.2823L14.6521 12.2824L14.6233 12.3112L14.6232 12.3113L14.5944 12.3401L14.5943 12.3402L14.5655 12.369L14.5654 12.3691L14.5366 12.3979L14.5365 12.398L14.5077 12.4268L14.5076 12.4269L14.4788 12.4557L14.4787 12.4558L14.4499 12.4846L14.4498 12.4847L14.421 12.5135L14.4209 12.5136L14.3921 12.5424L14.392 12.5425L14.3632 12.5713L14.3631 12.5714L14.3343 12.6002L14.3342 12.6003L14.3054 12.6291L14.3053 12.6292L14.2765 12.658L14.2764 12.6581L14.2476 12.6869L14.2475 12.687L14.2187 12.7158L14.2186 12.7159L14.1898 12.7447L14.1897 12.7448L14.1609 12.7736L14.1608 12.7737L14.132 12.8025L14.1319 12.8026L14.1031 12.8314L14.103 12.8315L14.0742 12.8603L14.0741 12.8604L14.0453 12.8892L14.0452 12.8893L14.0164 12.9181L14.0163 12.9182L13.9875 12.947L13.9874 12.9471L13.9586 12.9759L13.9585 12.976L13.9297 13.0048L13.9296 13.0049L13.9008 13.0337L13.9007 13.0338L13.8719 13.0626L13.8718 13.0627L13.843 13.0915L13.8429 13.0916L13.8141 13.1204L13.814 13.1205L13.7852 13.1493L13.7851 13.1494L13.7563 13.1782L13.7562 13.1783L13.7274 13.2071L13.7273 13.2072L13.6985 13.236L13.6984 13.2361L13.6696 13.2649L13.6695 13.265L13.6407 13.2938L13.6406 13.2939L13.6118 13.3227L13.6117 13.3228L13.5829 13.3516L13.5828 13.3517L13.554 13.3805L13.5539 13.3806L13.5251 13.4094L13.525 13.4095L13.4962 13.4383L13.4961 13.4384L13.4673 13.4672L13.4672 13.4673L13.4384 13.4961L13.4383 13.4962L13.4095 13.525L13.4094 13.5251L13.3806 13.5539L13.3805 13.554L13.3517 13.5828L13.3516 13.5829L13.3228 13.6117L13.3227 13.6118L13.2939 13.6406L13.2938 13.6407L13.265 13.6695L13.2649 13.6696L13.2361 13.6984L13.236 13.6985L13.2072 13.7273L13.2071 13.7274L13.1783 13.7562L13.1782 13.7563L13.1494 13.7851L13.1493 13.7852L13.1205 13.814L13.1204 13.8141L13.0916 13.8429L13.0915 13.843L13.0627 13.8718L13.0626 13.8719L13.0338 13.9007L13.0337 13.9008L13.0049 13.9296L13.0048 13.9297L12.976 13.9585L12.9759 13.9586L12.9471 13.9874L12.947 13.9875L12.9182 14.0163L12.9181 14.0164L12.8893 14.0452L12.8892 14.0453L12.8604 14.0741L12.8603 14.0742L12.8315 14.103L12.8314 14.1031L12.8026 14.1319L12.8025 14.132L12.7737 14.1608L12.7736 14.1609L12.7448 14.1897L12.7447 14.1898L12.7159 14.2186L12.7158 14.2187L12.687 14.2475L12.6869 14.2476L12.6581 14.2764L12.658 14.2765L12.6292 14.3053L12.6291 14.3054V14.3343L12.6003 14.3631L12.6002 14.3632L12.5714 14.392L12.5713 14.3921L12.5425 14.4209L12.5424 14.421L12.5136 14.4498L12.5135 14.4499L12.4847 14.4787L12.4846 14.4788L12.4558 14.5076L12.4557 14.5077L12.4269 14.5365L12.4268 14.5366L12.398 14.5654L12.3979 14.5655L12.3691 14.5943L12.369 14.5944L12.3402 14.6232L12.3401 14.6233L12.3113 14.6521L12.3112 14.6522L12.2824 14.681L12.2823 14.6811L12.2535 14.7099L12.2534 14.71L12.2246 14.7388L12.2245 14.7389L12.1957 14.7677L12.1956 14.7678L12.1668 14.7966L12.1667 14.7967L12.1379 14.8255L12.1378 14.8256L12.109 14.8544L12.1089 14.8545L12.0801 14.8833L12.08 14.8834L12.0512 14.9122L12.0511 14.9123L12.0223 14.9411L12.0222 14.9412L11.9934 14.97L11.9933 14.9701L11.9645 14.9989L11.9644 14.999L11.9356 15.0278L11.9355 15.0279L11.9067 15.0567L11.9066 15.0568L11.8778 15.0856L11.8777 15.0857L11.8489 15.1145L11.8488 15.1146L11.82 15.1434L11.8199 15.1435L11.7911 15.1723L11.791 15.1724L11.7622 15.2012L11.7621 15.2013L11.7333 15.2301L11.7332 15.2302L11.7044 15.259L11.7043 15.2591L11.6755 15.2879L11.6754 15.288L11.6466 15.3168L11.6465 15.3169L11.6177 15.3457L11.6176 15.3458L11.5888 15.3746L11.5887 15.3747L11.5599 15.4035L11.5598 15.4036L11.531 15.4324L11.5309 15.4325L11.5021 15.4613L11.502 15.4614L11.4732 15.4902L11.4731 15.4903L11.4443 15.5191L11.4442 15.5192L11.4154 15.548L11.4153 15.5481L11.3865 15.5769L11.3864 15.577L11.3576 15.6058L11.3575 15.6059L11.3287 15.6347L11.3286 15.6348L11.2998 15.6636L11.2997 15.6637L11.2709 15.6925L11.2708 15.6926L11.242 15.7214L11.2419 15.7215L11.2131 15.7503L11.213 15.7504L11.1842 15.7792H11.1553L11.1552 15.7793L11.1264 15.8081L11.1263 15.8082L11.0975 15.837L11.0974 15.8371L11.0686 15.8659L11.0685 15.866L11.0397 15.8948L11.0396 15.8949L11.0108 15.9237L11.0107 15.9238L10.9819 15.9526L10.9818 15.9527L10.953 15.9815L10.9529 15.9816L10.9241 16.0104L10.924 16.0105L10.8952 16.0393L10.8951 16.0394L10.8663 16.0682L10.8662 16.0683L10.8374 16.0971L10.8373 16.0972L10.8085 16.126L10.8084 16.1261L10.7796 16.1549L10.7795 16.155L10.7507 16.1838L10.7506 16.1839L10.7218 16.2127L10.7217 16.2128L10.6929 16.2416L10.6928 16.2417L10.664 16.2705L10.6639 16.2706L10.6351 16.2994L10.635 16.2995L10.6062 16.3283L10.6061 16.3284L10.5773 16.3572L10.5772 16.3573L10.5484 16.3861L10.5483 16.3862L10.5195 16.415L10.5194 16.4151L10.4906 16.4439L10.4905 16.444L10.4617 16.4728L10.4617 16.4729V16.5018L10.4328 16.5306L10.4328 16.5307L10.4039 16.5595L10.4039 16.5596L10.375 16.5884L10.375 16.5885L10.3461 16.6173L10.3461 16.6174L10.3172 16.6462L10.3172 16.6463L10.2883 16.6751L10.2883 16.6752L10.2594 16.704L10.2594 16.704L10.2305 16.7329L10.2305 16.7329L10.2016 16.7618L10.2016 16.7618V16.7907L10.1727 16.8196L10.1727 16.8196L10.1438 16.8485L10.1438 16.8485L10.1149 16.8774L10.1149 16.8774V16.9063L10.086 16.9352L10.086 16.9352L10.0571 16.9641L10.0571 16.9641L10.0282 16.993L10.0282 16.993V17.0219L9.99935 17.0508L9.99926 17.0508V17.0797L9.97045 17.1086L9.97036 17.1086L9.94155 17.1375L9.94146 17.1375V17.1664L9.91265 17.1953L9.91256 17.1953V17.2242L9.88375 17.2531L9.88366 17.2531V17.282L9.85485 17.3109L9.85476 17.3109L9.82595 17.3398L9.82586 17.3398V17.3687L9.79705 17.3975L9.79696 17.3976L9.76815 17.4264L9.76806 17.4265V17.4554L9.73925 17.4842L9.73916 17.4843L9.71035 17.5131L9.71026 17.5132L9.68145 17.542L9.68136 17.5421L9.65255 17.5709L9.65246 17.571L9.62365 17.5998L9.62356 17.5999L9.59475 17.6287L9.59466 17.6288L9.56585 17.6576L9.56576 17.6577L9.53695 17.6865L9.53686 17.6866L9.50805 17.7154L9.50796 17.7155L9.47915 17.7443L9.47906 17.7444L9.45025 17.7732L9.45016 17.7733L9.42135 17.8021H9.39246L9.39237 17.8022L9.36356 17.831L9.36347 17.8311L9.33466 17.8599H9.30576L9.30567 17.86L9.27686 17.8888L9.27677 17.8889L9.24796 17.9177H9.21906L9.21897 17.9178L9.19016 17.9466H9.16126L9.16117 17.9467L9.13236 17.9755H9.10346L9.10337 17.9756L9.07456 18.0044H9.04566H9.01676L9.01667 18.0045L8.98786 18.0333H8.95896H8.93006L8.92997 18.0334L8.90116 18.0622H8.87226H8.84336H8.81446H8.78556L8.78547 18.0623L8.75666 18.0911H8.72776H8.69887H8.66997H8.64107H8.61217H8.58327H8.55437H8.52547H8.49657H8.46767H8.43877H8.40987H8.38097L8.35216 18.0623L8.35207 18.0622H8.32317H8.29427H8.26537H8.23647L8.20766 18.0334L8.20757 18.0333H8.17867H8.14977L8.12096 18.0045L8.12087 18.0044H8.09197H8.06307L8.03426 17.9756L8.03417 17.9755H8.00528L7.97647 17.9467L7.97638 17.9466H7.94748L7.91867 17.9178L7.91858 17.9177H7.88968L7.86087 17.8889L7.86078 17.8888H7.83188L7.80307 17.86L7.80298 17.8599H7.77408L7.74527 17.8311L7.74518 17.831L7.71637 17.8022L7.71628 17.8021H7.68738L7.65857 17.7733L7.65848 17.7732H7.62958L7.60077 17.7444L7.60068 17.7443H7.57178L7.54297 17.7155L7.54288 17.7154H7.51398L7.48517 17.6866L7.48508 17.6865H7.45618L7.42737 17.6577L7.42728 17.6576H7.39838L7.36957 17.6288L7.36948 17.6287H7.34058H7.31168L7.28288 17.5999L7.28279 17.5998H7.25389H7.22499L7.19618 17.571L7.19609 17.5709H7.16719H7.13829H7.10939H7.08049H7.05159H7.02269H6.99379L6.96498 17.5421L6.96489 17.542H6.93599H6.90709L6.907 17.5421L6.87819 17.5709H6.84929H6.82039H6.79149H6.76259H6.73369H6.70479H6.67589L6.6758 17.571L6.64699 17.5998H6.61809H6.5892H6.5603L6.56021 17.5999L6.5314 17.6287H6.5025H6.4736L6.47351 17.6288L6.4447 17.6576H6.4158H6.3869L6.38681 17.6577L6.358 17.6865H6.3291L6.32901 17.6866L6.3002 17.7154L6.30011 17.7155L6.2713 17.7443H6.2424L6.24231 17.7444L6.2135 17.7732H6.1846L6.18451 17.7733L6.1557 17.8021L6.15561 17.8022L6.1268 17.831H6.0979L6.09781 17.8311L6.069 17.8599H6.0401L6.04001 17.86L6.0112 17.8888H5.9823L5.98221 17.8889L5.9534 17.9177L5.95331 17.9178L5.9245 17.9466H5.89561L5.89552 17.9467L5.86671 17.9755H5.83781L5.83772 17.9756L5.80891 18.0044H5.78001L5.77992 18.0045L5.75111 18.0333L5.75102 18.0334L5.72221 18.0622H5.69331L5.69322 18.0623L5.66441 18.0911H5.63551L5.63542 18.0912L5.60661 18.12L5.60652 18.1201L5.57771 18.1489H5.54881L5.54872 18.149L5.51991 18.1778H5.49101L5.49092 18.1779L5.46211 18.2067H5.43321L5.43312 18.2068L5.40431 18.2356L5.40422 18.2357L5.37541 18.2645H5.34651L5.34642 18.2646L5.31761 18.2934H5.28871L5.28862 18.2935L5.25981 18.3223H5.23091L5.23082 18.3224L5.20201 18.3512L5.20193 18.3513L5.17312 18.3801H5.14422L5.14413 18.3802L5.11532 18.409H5.08642L5.08633 18.4091L5.05752 18.4379L5.05743 18.438L5.02862 18.4668H4.99972L4.99963 18.4669L4.97082 18.4957H4.94192L4.94183 18.4958L4.91302 18.5246H4.88412L4.88403 18.5247L4.85522 18.5535L4.85513 18.5536L4.82632 18.5824H4.79742L4.79733 18.5825L4.76852 18.6113H4.73962L4.73953 18.6114L4.71072 18.6402H4.68182L4.68173 18.6403L4.65292 18.6691L4.65283 18.6692L4.62402 18.698H4.59512L4.59503 18.6981L4.56622 18.7269H4.53732L4.53723 18.727L4.50842 18.7558L4.50833 18.7559L4.47953 18.7847H4.45063L4.45054 18.7848L4.42173 18.8136H4.39283L4.39274 18.8137L4.36393 18.8425H4.33503L4.33494 18.8426L4.30613 18.8714L4.30604 18.8715L4.27723 18.9003H4.24833L4.24824 18.9004L4.21943 18.9292H4.19053L4.19044 18.9293L4.16163 18.9581L4.16154 18.9582L4.13273 18.987H4.10383L4.10374 18.9871L4.07493 19.0159H4.04603L4.04594 19.016L4.01713 19.0448H3.98823L3.98814 19.0449L3.95933 19.0737L3.95924 19.0738L3.93043 19.1026H3.90153L3.90144 19.1027L3.87263 19.1315H3.84373L3.84364 19.1316L3.81483 19.1604H3.78594L3.78585 19.1605L3.75704 19.1893L3.75695 19.1894L3.72814 19.2182H3.69924L3.69915 19.2183L3.67034 19.2471H3.64144L3.64135 19.2472L3.61254 19.276H3.58364L3.58355 19.2761L3.55474 19.3049L3.55465 19.305L3.52584 19.3338H3.49694L3.49685 19.3339L3.46804 19.3627H3.43914L3.43905 19.3628L3.41024 19.3916H3.38134L3.38125 19.3917L3.35244 19.4205L3.35235 19.4206L3.32354 19.4494H3.29464L3.29455 19.4495L3.26574 19.4783H3.23684L3.23675 19.4784L3.20794 19.5072L3.20785 19.5073L3.17904 19.5361H3.15014L3.15005 19.5362L3.12124 19.565H3.09235L3.09226 19.5651L3.06345 19.5939H3.03455L3.03446 19.594L3.00565 19.6228L3.00556 19.6229L2.97675 19.6517H2.94785L2.94776 19.6518L2.91895 19.6806H2.89005L2.88996 19.6807L2.86115 19.7095H2.83225L2.83216 19.7096L2.80335 19.7384L2.80326 19.7385L2.77445 19.7673H2.74555L2.74546 19.7674L2.71665 19.7962H2.68775L2.68766 19.7963L2.65885 19.8251L2.65876 19.8252L2.62995 19.854H2.60105L2.60096 19.8541L2.57215 19.8829H2.54325L2.54316 19.883L2.51435 19.9118H2.48545L2.48536 19.9119L2.45655 19.9407L2.45646 19.9408L2.42765 19.9696H2.39876L2.39867 19.9697L2.36986 19.9985H2.34096L2.34087 19.9986L2.31206 20.0274L2.31197 20.0275L2.28316 20.0563H2.25426L2.25417 20.0564L2.22536 20.0852H2.19646L2.19637 20.0853L2.16756 20.1141H2.13866L2.13857 20.1142L2.10976 20.143L2.10967 20.1431L2.08086 20.1719H2.05196L2.05187 20.172L2.02306 20.2008H1.99416L1.99407 20.2009L1.96526 20.2297H1.93636L1.93627 20.2298L1.90746 20.2586L1.90737 20.2587L1.87856 20.2875H1.84966L1.84957 20.2876L1.82076 20.3164H1.79186L1.79177 20.3165L1.76296 20.3453H1.73406L1.73397 20.3454L1.70517 20.3742L1.70508 20.3743L1.67627 20.4031H1.64737L1.64728 20.4032L1.61847 20.432H1.58957L1.58948 20.4321L1.56067 20.4609H1.53177L1.53168 20.461L1.50287 20.4898L1.50278 20.4899L1.47397 20.5187H1.44507L1.44498 20.5188L1.41617 20.5476H1.38727L1.38718 20.5477L1.35837 20.5765L1.35828 20.5766L1.32947 20.6054H1.30057L1.30048 20.6055L1.27167 20.6343H1.24277L1.24268 20.6344L1.21387 20.6632H1.18497L1.18488 20.6633L1.15607 20.6921L1.15598 20.6922L1.12717 20.721H1.09827L1.09818 20.7211L1.06937 20.7499H1.04047L1.04038 20.75L1.01158 20.7788H0.982675L0.982585 20.7789L0.953776 20.8077L0.953686 20.8078L0.924876 20.8366H0.895977L0.895887 20.8367L0.867077 20.8655H0.838178L0.838088 20.8656L0.809278 20.8944H0.780378L0.780288 20.8945L0.751479 20.9233L0.751389 20.9234L0.722579 20.9522H0.69368L0.69359 20.9523L0.66478 20.9811H0.63588L0.63579 20.9812L0.606981 21.01L0.606891 21.0101L0.578081 21.0389H0.549182L0.549092 21.039L0.520282 21.0678H0.491382L0.491293 21.0679L0.462483 21.0967H0.433583L0.433493 21.0968L0.404684 21.1256L0.404594 21.1257L0.375784 21.1545H0.346885L0.346795 21.1546L0.317985 21.1834H0.289085L0.288995 21.1835L0.260186 21.2123H0.231286L0.231196 21.2124L0.202387 21.2412L0.202297 21.2413L0.173487 21.2701H0.144587L0.144497 21.2702L0.115688 21.299H0.0867883L0.0866983 21.2991L0.0578887 21.3279H0.0289891L0.0288991 21.328L8.95175e-05 21.3568L0 21.3569V21.3858L8.95175e-05 21.3859L0.000179476 21.3858L0.0289891 21.357L0.0577987 21.3858L0.0578887 21.3859H0.0867883H0.115688H0.144587H0.173487H0.202387H0.231286H0.260186H0.289085H0.317985H0.346885H0.375784H0.404684H0.433583H0.462483H0.491382H0.520282H0.549182H0.578081H0.606981H0.63588H0.66478H0.69368H0.722579H0.751479H0.780378H0.809278H0.838178H0.867077H0.895977H0.924876H0.953776H0.982675H1.01158H1.04047H1.06937H1.09827H1.12717H1.15607H1.18497H1.21387H1.24277H1.27167H1.30057H1.32947H1.35837H1.38727H1.41617H1.44507H1.47397H1.50287H1.53177H1.56067H1.58957H1.61847H1.64737H1.67627H1.70517H1.73406H1.76296H1.79186H1.82076H1.84966H1.87856H1.90746H1.93636H1.96526H1.99416H2.02306H2.05196H2.08086H2.10976H2.13866H2.16756H2.19646H2.22536H2.25426H2.28316H2.31206H2.34096H2.36986H2.39876H2.42765H2.45655H2.48545H2.51435H2.54325L2.54334 21.3858Z" fill="black"/>
<path d="M1.76301 19.2183L1.79182 19.1895H1.82072H1.84962H1.87852H1.90742H1.93632H1.96522L1.96531 19.1894L1.99411 19.1606H2.02301H2.05191L2.052 19.1605L2.08081 19.1317H2.10971L2.1098 19.1316L2.13861 19.1028H2.16751L2.1676 19.1027L2.19641 19.0739L2.1965 19.0738L2.22531 19.045H2.25421L2.2543 19.0449L2.28311 19.0161L2.2832 19.016L2.31201 18.9872L2.3121 18.9871L2.34091 18.9583L2.341 18.9582L2.36981 18.9294L2.3699 18.9293L2.39871 18.9005L2.3988 18.9004L2.42761 18.8716L2.4277 18.8715L2.45651 18.8427L2.4566 18.8426L2.48541 18.8138L2.4855 18.8137L2.51431 18.7849L2.5144 18.7848V18.7559L2.54321 18.7271L2.5433 18.727V18.6981L2.57211 18.6693L2.5722 18.6692L2.60101 18.6404L2.6011 18.6403V18.6114L2.62991 18.5826L2.63 18.5825V18.5536L2.65881 18.5248L2.6589 18.5247L2.6877 18.4959L2.68779 18.4958V18.4669L2.7166 18.4381L2.71669 18.438L2.7455 18.4092L2.74559 18.4091V18.3802L2.7744 18.3514L2.77449 18.3513V18.3224L2.8033 18.2936L2.80339 18.2935L2.8322 18.2647L2.83229 18.2646V18.2357L2.8611 18.2069L2.86119 18.2068V18.1779L2.89 18.1491L2.89009 18.149L2.9189 18.1202L2.91899 18.1201V18.0912L2.9478 18.0624L2.94789 18.0623V18.0334L2.9767 18.0046L2.97679 18.0045L3.0056 17.9757L3.00569 17.9756V17.9467L3.0345 17.9179L3.03459 17.9178L3.0634 17.889L3.06349 17.8889V17.86L3.0923 17.8312L3.09239 17.8311V17.8022L3.1212 17.7734L3.12129 17.7733L3.1501 17.7445L3.15019 17.7444V17.7155L3.179 17.6867L3.17909 17.6866V17.6577L3.2079 17.6289L3.20799 17.6288L3.2368 17.6L3.23689 17.5999V17.571L3.2657 17.5422L3.26579 17.5421V17.5132L3.2946 17.4844L3.29469 17.4843L3.3235 17.4555L3.32359 17.4554V17.4265L3.3524 17.3977L3.35249 17.3976V17.3687L3.3813 17.3399L3.38139 17.3398V17.3109L3.41019 17.2821L3.41028 17.282L3.43909 17.2532L3.43918 17.2531V17.2242L3.46799 17.1954L3.46808 17.1953V17.1664L3.49689 17.1376L3.49698 17.1375L3.52579 17.1087L3.52588 17.1086V17.0797L3.55469 17.0509L3.55478 17.0508V17.0219L3.58359 16.9931L3.58368 16.993V16.9641L3.61249 16.9353L3.61258 16.9352V16.9063L3.64139 16.8775L3.64148 16.8774L3.67029 16.8486L3.67038 16.8485V16.8196L3.69919 16.7908L3.69928 16.7907V16.7618L3.72809 16.733L3.72818 16.7329V16.704L3.75699 16.6752L3.75708 16.6751L3.78589 16.6463L3.78598 16.6462V16.6173L3.81479 16.5885L3.81488 16.5884V16.5596L3.84369 16.5307L3.84378 16.5307V16.5018L3.87259 16.4729L3.87268 16.4729V16.444L3.90149 16.4151L3.90158 16.4151L3.93039 16.3862L3.93048 16.3862V16.3573L3.95929 16.3284L3.95938 16.3284V16.2995L3.98819 16.2706L3.98828 16.2706L4.01709 16.2417L4.01718 16.2417V16.2128L4.04599 16.1839L4.04608 16.1839V16.155L4.07489 16.1261L4.07498 16.1261V16.0972L4.10378 16.0683L4.10387 16.0683L4.13268 16.0394L4.13277 16.0394V16.0105L4.16158 15.9816L4.16167 15.9816V15.9527L4.19048 15.9238L4.19057 15.9238L4.21938 15.8949L4.21947 15.8949V15.866L4.24828 15.8372L4.24837 15.8371L4.27718 15.8083L4.27727 15.8082V15.7793L4.30608 15.7505L4.30617 15.7504V15.7215L4.33498 15.6927L4.33507 15.6926L4.36388 15.6638L4.36397 15.6637V15.6348L4.39278 15.606L4.39287 15.6059V15.577L4.42168 15.5482L4.42177 15.5481V15.5192L4.45058 15.4904L4.45067 15.4903V15.4614L4.47948 15.4326L4.47957 15.4325V15.4036L4.50838 15.3748L4.50847 15.3747V15.3458L4.53728 15.317L4.53737 15.3169V15.288L4.56618 15.2592L4.56627 15.2591V15.2302V15.2013L4.59508 15.1725L4.59517 15.1724V15.1435V15.1146L4.62398 15.0858L4.62407 15.0857V15.0568V15.0279L4.65288 14.9991L4.65297 14.999V14.9701V14.9412V14.9123L4.68178 14.8835L4.68187 14.8834V14.8545V14.8256V14.7967V14.7678L4.71068 14.739L4.71077 14.7389V14.71V14.6811V14.6522V14.6233L4.73958 14.5945L4.73967 14.5944V14.5655V14.5366V14.5077L4.76848 14.4789L4.76857 14.4788V14.4499V14.421V14.3921V14.3632L4.79737 14.3344L4.79746 14.3343V14.3054V14.2765V14.2476V14.2187L4.82627 14.1899L4.82636 14.1898V14.1609V14.132V14.1031L4.85517 14.0743L4.85526 14.0742V14.0453V14.0164V13.9875L4.88407 13.9587L4.88416 13.9586V13.9297V13.9008V13.8719V13.843L4.91297 13.8142L4.91306 13.8141V13.7852V13.7563V13.7274L4.94187 13.6986L4.94196 13.6985V13.6696V13.6407V13.6118V13.5829L4.97077 13.5541L4.97086 13.554V13.5251V13.4962V13.4673L4.99967 13.4385L4.99976 13.4384V13.4095V13.3806V13.3517V13.3228L5.02857 13.294L5.02866 13.2939V13.265V13.2361V13.2072V13.1783L5.05747 13.1495L5.05756 13.1494V13.1205V13.0916V13.0627L5.08637 13.0339L5.08646 13.0338V13.0049L5.08637 13.0048L5.05756 12.976L5.05747 12.9759H5.02857L4.99976 12.9471L4.99967 12.947L4.97086 12.9182L4.97077 12.9181H4.94187L4.91306 12.8893L4.91297 12.8892L4.88416 12.8604L4.88407 12.8603H4.85517L4.82636 12.8315L4.82627 12.8314H4.79737L4.76857 12.8026L4.76848 12.8025L4.73967 12.7737L4.73958 12.7736H4.71068L4.68187 12.7448L4.68178 12.7447L4.65297 12.7159L4.65288 12.7158H4.62398L4.59517 12.687L4.59508 12.6869L4.56627 12.6581L4.56618 12.658H4.53728L4.50847 12.6292L4.50838 12.6291L4.47957 12.6003L4.47948 12.6002L4.45067 12.5714L4.45058 12.5713H4.42168L4.39287 12.5425L4.39278 12.5424L4.36397 12.5136L4.36388 12.5135H4.33498L4.30617 12.4847L4.30608 12.4846L4.27727 12.4558L4.27718 12.4557L4.24837 12.4269L4.24828 12.4268H4.21938L4.19057 12.398L4.19048 12.3979L4.16167 12.3691L4.16158 12.369H4.13268L4.10387 12.3402L4.10378 12.3401L4.07498 12.3113L4.07489 12.3112L4.04608 12.2824L4.04599 12.2823H4.01709L3.98828 12.2535L3.98819 12.2534L3.95938 12.2246L3.95929 12.2245L3.93048 12.1957L3.93039 12.1956H3.90149L3.87268 12.1668L3.87259 12.1667L3.84378 12.1379L3.84369 12.1378L3.81488 12.109L3.81479 12.1089H3.78589L3.75708 12.0801L3.75699 12.08L3.72818 12.0512L3.72809 12.0511H3.69919L3.67038 12.0223L3.67029 12.0222L3.64148 11.9934L3.64139 11.9933H3.61249L3.58368 11.9645L3.58359 11.9644L3.55478 11.9356L3.55469 11.9355H3.52579L3.49698 11.9067L3.49689 11.9066L3.46808 11.8778L3.46799 11.8777H3.43909L3.41028 11.8489L3.41019 11.8488L3.38139 11.82L3.3813 11.8199H3.3524L3.32359 11.7911L3.3235 11.791L3.29469 11.7622L3.2946 11.7621H3.2657L3.23689 11.7333L3.2368 11.7332L3.20799 11.7044L3.2079 11.7043H3.179L3.15019 11.6755L3.1501 11.6754L3.12129 11.6466L3.1212 11.6465H3.0923L3.06349 11.6177L3.0634 11.6176H3.0345L3.03441 11.6177V11.6466V11.6755V11.7044V11.7333V11.7622V11.7911L3.0056 11.8199L3.00551 11.82V11.8489V11.8778V11.9067V11.9356V11.9645V11.9934V12.0223L2.9767 12.0511L2.97661 12.0512V12.0801V12.109V12.1379V12.1668V12.1957V12.2246V12.2535V12.2824L2.9478 12.3112L2.94771 12.3113V12.3402V12.3691V12.398V12.4269V12.4558V12.4847V12.5136L2.9189 12.5424L2.91881 12.5425V12.5714V12.6003V12.6292V12.6581V12.687V12.7159V12.7448L2.89 12.7736L2.88991 12.7737V12.8026V12.8315V12.8604V12.8893V12.9182V12.9471V12.976L2.8611 13.0048L2.86101 13.0049V13.0338V13.0627V13.0916V13.1205V13.1494V13.1783V13.2072V13.2361L2.8322 13.2649L2.83211 13.265V13.2939V13.3228V13.3517V13.3806V13.4095V13.4384V13.4673V13.4962L2.8033 13.525L2.80321 13.5251V13.554V13.5829V13.6118V13.6407V13.6696V13.6985V13.7274V13.7563V13.7852L2.7744 13.814L2.77431 13.8141V13.843V13.8719V13.9008V13.9297V13.9586V13.9875V14.0164L2.7455 14.0452L2.74541 14.0453V14.0742V14.1031V14.132V14.1609V14.1898V14.2187V14.2476V14.2765L2.7166 14.3053L2.71651 14.3054V14.3343V14.3632V14.3921V14.421V14.4499L2.6877 14.4787L2.68762 14.4788V14.5077V14.5366V14.5655V14.5944V14.6233L2.65881 14.6521L2.65872 14.6522V14.6811V14.71V14.7389L2.62991 14.7677L2.62982 14.7678V14.7967V14.8256L2.60101 14.8544L2.60092 14.8545V14.8834L2.57211 14.9122L2.57202 14.9123V14.9412L2.54321 14.97L2.54312 14.9701V14.999L2.51431 15.0278L2.51422 15.0279L2.48541 15.0567L2.48532 15.0568V15.0857L2.45651 15.1145L2.45642 15.1146V15.1435L2.42761 15.1723L2.42752 15.1724L2.39871 15.2012L2.39862 15.2013V15.2302L2.36981 15.259L2.36972 15.2591L2.34091 15.2879L2.34082 15.288V15.3169L2.31201 15.3457L2.31192 15.3458V15.3747L2.28311 15.4035L2.28302 15.4036L2.25421 15.4324L2.25412 15.4325V15.4614L2.22531 15.4902L2.22522 15.4903L2.19641 15.5191L2.19632 15.5192V15.5481L2.16751 15.5769L2.16742 15.577L2.13861 15.6058L2.13852 15.6059V15.6348L2.10971 15.6636L2.10962 15.6637V15.6926L2.08081 15.7214L2.08072 15.7215V15.7504L2.05191 15.7792L2.05182 15.7793L2.02301 15.8081L2.02292 15.8082V15.8371L1.99411 15.8659L1.99402 15.866V15.8949L1.96522 15.9237L1.96513 15.9238L1.93632 15.9526L1.93623 15.9527V15.9816L1.90742 16.0104L1.90733 16.0105V16.0394L1.87852 16.0682L1.87843 16.0683L1.84962 16.0971L1.84953 16.0972V16.1261L1.82072 16.1549L1.82063 16.155V16.1839L1.79182 16.2127L1.79173 16.2128V16.2417L1.76292 16.2705L1.76283 16.2706L1.73402 16.2994L1.73393 16.2995V16.3284L1.70512 16.3572L1.70503 16.3573V16.3862L1.67622 16.415L1.67613 16.4151V16.444L1.64732 16.4728L1.64723 16.4729L1.61842 16.5017L1.61833 16.5018V16.5307L1.58952 16.5595L1.58943 16.5596V16.5884L1.56062 16.6173L1.56053 16.6173L1.53172 16.6462L1.53163 16.6462V16.6751L1.50282 16.704L1.50273 16.704V16.7329L1.47392 16.7618L1.47383 16.7618V16.7907L1.44502 16.8196L1.44493 16.8196L1.41612 16.8485L1.41603 16.8485V16.8774L1.38722 16.9063L1.38713 16.9063V16.9352L1.35832 16.9641L1.35823 16.9641V16.993L1.32942 17.0219L1.32933 17.0219V17.0508L1.30052 17.0797L1.30043 17.0797L1.27163 17.1086L1.27154 17.1086V17.1375L1.24273 17.1664L1.24264 17.1664L1.21383 17.1953L1.21374 17.1953V17.2242L1.18493 17.2531L1.18484 17.2531L1.15603 17.2819L1.15594 17.282V17.3109L1.12713 17.3397L1.12704 17.3398L1.09823 17.3686L1.09814 17.3687V17.3976L1.06933 17.4264L1.06924 17.4265L1.04043 17.4553L1.04034 17.4554V17.4843L1.01153 17.5131L1.01144 17.5132V17.5421L0.982629 17.5709L0.982539 17.571L0.95373 17.5998L0.95364 17.5999V17.6288L0.92483 17.6576L0.92474 17.6577V17.6866L0.895931 17.7154L0.895841 17.7155V17.7444L0.867031 17.7732L0.866941 17.7733V17.8022L0.838131 17.831L0.838042 17.8311V17.86L0.809232 17.8888L0.809142 17.8889V17.9178V17.9467L0.780332 17.9755L0.780242 17.9756V18.0045V18.0334V18.0623L0.751433 18.0911L0.751343 18.0912V18.1201V18.149V18.1779V18.2068V18.2357V18.2646V18.2935V18.3224V18.3513V18.3802V18.4091V18.438V18.4669V18.4958L0.751433 18.4959L0.780242 18.5247V18.5536V18.5825L0.780332 18.5826L0.809142 18.6114V18.6403V18.6692L0.809232 18.6693L0.838042 18.6981V18.727L0.838131 18.7271L0.866941 18.7559V18.7848L0.867031 18.7849L0.895841 18.8137L0.895931 18.8138L0.92474 18.8426L0.92483 18.8427L0.95364 18.8715V18.9004L0.95373 18.9005L0.982539 18.9293L0.982629 18.9294L1.01144 18.9582L1.01153 18.9583L1.04034 18.9871L1.04043 18.9872H1.06933L1.09814 19.016L1.09823 19.0161L1.12704 19.0449L1.12713 19.045H1.15603L1.18484 19.0738L1.18493 19.0739H1.21383L1.24264 19.1027L1.24273 19.1028H1.27163L1.30043 19.1316L1.30052 19.1317H1.32942L1.35823 19.1605L1.35832 19.1606H1.38722H1.41612H1.44502L1.47383 19.1894L1.47392 19.1895H1.50282H1.53172H1.56062H1.58952H1.61842H1.64732H1.67622L1.70503 19.2183L1.70512 19.2184H1.73402H1.76292L1.76301 19.2183Z" fill="black"/>
</svg>
